SplineFontDB: 3.2
FontName: mango-classic
FullName: Mango Classic
FamilyName: Mango Classic
Weight: Regular
Copyright: Mark Koch for the MangoCAD Project
Version: 0.1
ItalicAngle: 0
UnderlinePosition: 0
UnderlineWidth: 0
Ascent: 800
Descent: 200
InvalidEm: 0
LayerCount: 2
Layer: 0 0 "Back" 1
Layer: 1 0 "Fore" 0
HasVMetrics: 1
XUID: [1021 599 -1159185231 9526473]
OS2Version: 0
OS2_WeightWidthSlopeOnly: 0
OS2_UseTypoMetrics: 0
CreationTime: 1709490652
ModificationTime: 1709491115
PfmFamily: 17
TTFWeight: 400
TTFWidth: 5
LineGap: 90
VLineGap: 90
OS2TypoAscent: 0
OS2TypoAOffset: 1
OS2TypoDescent: 0
OS2TypoDOffset: 1
OS2TypoLinegap: 90
OS2WinAscent: 0
OS2WinAOffset: 1
OS2WinDescent: 0
OS2WinDOffset: 1
HheadAscent: 0
HheadAOffset: 1
HheadDescent: 0
HheadDOffset: 1
OS2Vendor: 'PfEd'
Lookup: 258 0 0 "'kern' Horizontal Kerning in Latin lookup 0" { "'kern' Horizontal Kerning in Latin lookup 0 subtable"  } ['kern' ('latn' <'dflt' > ) ]
MarkAttachClasses: 1
DEI: 91125
Encoding: Original
UnicodeInterp: none
NameList: AGL For New Fonts
DisplaySize: -48
AntiAlias: 1
FitToEm: 0
WinInfo: 0 21 11
BeginPrivate: 0
EndPrivate
BeginChars: 130 128

StartChar: .notdef
Encoding: 0 0 0
Width: 400
VWidth: 824
Flags: H
LayerCount: 2
Fore
SplineSet
186.255859375 198.697265625 m 0
 185.702148438 198.872070312 185.30078125 199.389648438 185.30078125 200 c 0
 185.30078125 400 l 1
 185.30078125 400.000976562 l 2
 185.30078125 400.75390625 185.912109375 401.366210938 186.666015625 401.3671875 c 2
 186.666992188 401.3671875 l 2
 187.420898438 401.3671875 188.033203125 400.754882812 188.033203125 400.000976562 c 2
 188.033203125 400 l 2
 188.033203125 204.3359375 l 1
 278.880859375 334.1171875 l 2
 279.127929688 334.469726562 279.538085938 334.700195312 280.000976562 334.700195312 c 0
 280.463867188 334.700195312 280.872070312 334.469726562 281.119140625 334.1171875 c 0
 281.12109375 334.1171875 371.966796875 204.3359375 371.966796875 204.3359375 c 1
 371.966796875 400 l 1
 371.966796875 400.000976562 l 2
 371.966796875 400.754882812 372.579101562 401.3671875 373.333007812 401.3671875 c 2
 373.333984375 401.3671875 l 2
 374.087890625 401.366210938 374.69921875 400.75390625 374.69921875 400.000976562 c 2
 374.69921875 400 l 2
 374.69921875 200 l 2
 374.698242188 199.24609375 374.086914062 198.633789062 373.33203125 198.633789062 c 0
 372.869140625 198.633789062 372.459960938 198.864257812 372.212890625 199.216796875 c 0
 372.211914062 199.217773438 280 330.94921875 280 330.94921875 c 1
 187.787109375 199.216796875 l 2
 187.540039062 198.86328125 187.129882812 198.6328125 186.666992188 198.6328125 c 0
 186.5234375 198.6328125 186.385742188 198.65625 186.255859375 198.697265625 c 0
EndSplineSet
EndChar

StartChar: Exclamation
Encoding: 2 33 2
Width: 250
VWidth: 824
Flags: HW
LayerCount: 2
Fore
SplineSet
33.333984375 601.22265625 m 2
 33.3330078125 601.22265625 l 2
 32.2900390625 601.22265625 31.4443359375 600.375976562 31.443359375 599.333984375 c 1
 31.443359375 199.333984375 l 1
 31.443359375 199.333007812 l 2
 31.443359375 198.290039062 32.2900390625 197.443359375 33.3330078125 197.443359375 c 2
 33.333984375 197.443359375 l 2
 34.3759765625 197.444335938 35.22265625 198.290039062 35.22265625 199.333007812 c 2
 35.22265625 199.333984375 l 2
 35.22265625 599.333984375 l 2
 35.2216796875 600.375976562 34.3759765625 601.221679688 33.333984375 601.22265625 c 2
13.333984375 42.556640625 m 1
 13.3330078125 42.556640625 l 2
 12.2900390625 42.556640625 11.443359375 41.7099609375 11.443359375 40.6669921875 c 2
 11.443359375 40.666015625 l 2
 11.443359375 0.666015625 l 2
 11.4443359375 -0.376953125 12.291015625 -1.22265625 13.3330078125 -1.22265625 c 2
 13.333984375 -1.22265625 l 2
 53.333984375 -1.22265625 l 2
 54.3759765625 -1.2216796875 55.2216796875 -0.3759765625 55.22265625 0.666015625 c 1
 55.22265625 40.666015625 l 1
 55.22265625 40.6669921875 l 2
 55.22265625 41.708984375 54.376953125 42.5556640625 53.333984375 42.556640625 c 1
 13.333984375 42.556640625 l 1
15.22265625 38.77734375 m 1
 51.443359375 38.77734375 l 1
 51.443359375 2.556640625 l 1
 15.22265625 2.556640625 l 1
 15.22265625 38.77734375 l 1
EndSplineSet
EndChar

StartChar: Double Quote
Encoding: 3 34 3
Width: 280
VWidth: 824
Flags: HW
LayerCount: 2
Fore
SplineSet
13.333984375 734.666015625 m 2
 13.3330078125 734.666015625 l 2
 12.59765625 734.666015625 12.0009765625 734.069335938 12 733.333984375 c 1
 12 600 l 1
 12 599.999023438 l 2
 12 599.263671875 12.59765625 598.666015625 13.3330078125 598.666015625 c 2
 13.333984375 598.666015625 l 2
 14.0693359375 598.666992188 14.666015625 599.263671875 14.666015625 599.999023438 c 2
 14.666015625 600 l 2
 14.666015625 733.333984375 l 2
 14.6650390625 734.068359375 14.068359375 734.665039062 13.333984375 734.666015625 c 2
180 734.666015625 m 1
 179.999023438 734.666015625 l 2
 179.263671875 734.666015625 178.666992188 734.069335938 178.666015625 733.333984375 c 1
 178.666015625 600 l 1
 178.666015625 599.999023438 l 2
 178.666015625 599.263671875 179.263671875 598.666015625 179.999023438 598.666015625 c 2
 180 598.666015625 l 1
 180.000976562 598.666015625 l 2
 180.736328125 598.666015625 181.333984375 599.263671875 181.333984375 599.999023438 c 2
 181.333984375 600 l 2
 181.333984375 733.333984375 l 2
 181.333007812 734.069335938 180.736328125 734.666015625 180.000976562 734.666015625 c 2
 180 734.666015625 l 1
EndSplineSet
EndChar

StartChar: Hash
Encoding: 4 35 4
Width: 500
VWidth: 824
Flags: HW
LayerCount: 2
Fore
SplineSet
113.333984375 601.333984375 m 2
 113.333007812 601.333984375 l 2
 112.59765625 601.333984375 112 600.736328125 112 600.000976562 c 2
 112 600 l 2
 112 401.333984375 l 1
 13.333984375 401.333984375 l 1
 13.3330078125 401.333984375 l 2
 12.59765625 401.333984375 12 400.736328125 12 400.000976562 c 2
 12 400 l 1
 12 399.999023438 l 2
 12 399.263671875 12.59765625 398.666015625 13.3330078125 398.666015625 c 2
 13.333984375 398.666015625 l 2
 112 398.666015625 l 1
 112 201.333984375 l 1
 13.333984375 201.333984375 l 1
 13.3330078125 201.333984375 l 2
 12.59765625 201.333984375 12 200.736328125 12 200.000976562 c 2
 12 200 l 1
 12 199.999023438 l 2
 12 199.263671875 12.59765625 198.666015625 13.3330078125 198.666015625 c 2
 13.333984375 198.666015625 l 2
 112 198.666015625 l 1
 112 0 l 1
 112 -0.0009765625 l 2
 112 -0.736328125 112.59765625 -1.333984375 113.333007812 -1.333984375 c 2
 113.333984375 -1.333984375 l 2
 114.069335938 -1.3330078125 114.666015625 -0.736328125 114.666015625 -0.0009765625 c 2
 114.666015625 0 l 2
 114.666015625 198.666015625 l 1
 312 198.666015625 l 1
 312 0 l 1
 312 -0.0009765625 l 2
 312 -0.736328125 312.59765625 -1.333984375 313.333007812 -1.333984375 c 2
 313.333984375 -1.333984375 l 2
 314.069335938 -1.3330078125 314.666015625 -0.736328125 314.666015625 -0.0009765625 c 2
 314.666015625 0 l 2
 314.666015625 198.666015625 l 1
 413.333984375 198.666015625 l 2
 414.069335938 198.666992188 414.666015625 199.263671875 414.666015625 199.999023438 c 2
 414.666015625 200 l 1
 414.666015625 200.000976562 l 2
 414.666015625 200.736328125 414.069335938 201.333007812 413.333984375 201.333984375 c 1
 314.666015625 201.333984375 l 1
 314.666015625 398.666015625 l 1
 413.333984375 398.666015625 l 2
 414.069335938 398.666992188 414.666015625 399.263671875 414.666015625 399.999023438 c 2
 414.666015625 400 l 1
 414.666015625 400.000976562 l 2
 414.666015625 400.736328125 414.069335938 401.333007812 413.333984375 401.333984375 c 1
 314.666015625 401.333984375 l 1
 314.666015625 600 l 1
 314.666015625 600.000976562 l 2
 314.666015625 600.736328125 314.069335938 601.333007812 313.333984375 601.333984375 c 2
 313.333007812 601.333984375 l 2
 312.59765625 601.333984375 312 600.736328125 312 600.000976562 c 2
 312 600 l 2
 312 401.333984375 l 1
 114.666015625 401.333984375 l 1
 114.666015625 600 l 1
 114.666015625 600.000976562 l 2
 114.666015625 600.736328125 114.069335938 601.333007812 113.333984375 601.333984375 c 2
114.666015625 398.666015625 m 1
 312 398.666015625 l 1
 312 201.333984375 l 1
 114.666015625 201.333984375 l 1
 114.666015625 398.666015625 l 1
EndSplineSet
EndChar

StartChar: Dollar
Encoding: 5 36 5
Width: 380
VWidth: 824
Flags: HW
LayerCount: 2
Fore
SplineSet
146.666015625 601.333984375 m 1
 145.930664062 601.333007812 145.333984375 600.736328125 145.333984375 600.000976562 c 2
 145.333984375 600 l 2
 145.333984375 531.01171875 l 1
 143.369140625 531.158203125 141.399414062 531.357421875 139.447265625 531.396484375 c 0
 87.6259765625 532.432617188 29.681640625 491.813476562 29.681640625 426.8203125 c 0
 29.681640625 361.833984375 87.197265625 332.712890625 87.197265625 332.712890625 c 1
 87.146484375 332.73828125 l 1
 145.333984375 300.154296875 l 1
 145.333984375 68.748046875 l 1
 118.6796875 73.5908203125 90.23828125 86.849609375 66.89453125 100.181640625 c 0
 37.609375 116.90625 16.353515625 133.625 16.353515625 133.625 c 2
 16.126953125 133.803710938 15.83984375 133.91015625 15.529296875 133.91015625 c 0
 15.1044921875 133.91015625 14.724609375 133.712890625 14.48046875 133.40234375 c 0
 14.3017578125 133.17578125 14.1953125 132.888671875 14.1953125 132.578125 c 0
 14.1953125 132.153320312 14.392578125 131.7734375 14.703125 131.529296875 c 2
 14.703125 131.529296875 36.1025390625 114.694335938 65.5703125 97.865234375 c 0
 89.197265625 84.3720703125 118.006835938 70.8544921875 145.333984375 66.017578125 c 1
 145.333984375 0 l 1
 145.333984375 -0.0009765625 l 2
 145.333984375 -0.736328125 145.930664062 -1.3330078125 146.666015625 -1.333984375 c 2
 146.666992188 -1.333984375 l 2
 147.40234375 -1.333984375 148 -0.736328125 148 -0.0009765625 c 2
 148 0 l 2
 148 65.58203125 l 1
 153.841796875 64.66796875 159.611328125 64.13671875 165.23046875 64.13671875 c 0
 188.415039062 64.13671875 214.498046875 72.69921875 234.859375 90.064453125 c 0
 255.220703125 107.4296875 269.806640625 133.66015625 269.806640625 168.712890625 c 0
 269.806640625 238.7421875 217.40625 262.84375 217.40625 262.84375 c 1
 217.50390625 262.794921875 l 1
 148 301.716796875 l 1
 148 528.1640625 l 1
 196.109375 523.288085938 247.05859375 487.67578125 247.05859375 487.67578125 c 2
 247.275390625 487.5234375 247.5390625 487.434570312 247.82421875 487.434570312 c 0
 248.275390625 487.434570312 248.674804688 487.65625 248.916015625 488 c 0
 249.068359375 488.216796875 249.157226562 488.48046875 249.157226562 488.765625 c 0
 249.157226562 489.216796875 248.935546875 489.616210938 248.591796875 489.857421875 c 2
 248.591796875 489.857421875 197.34765625 525.999023438 148 530.837890625 c 1
 148 600 l 1
 148 600.000976562 l 2
 148 600.736328125 147.40234375 601.333984375 146.666992188 601.333984375 c 2
 146.666015625 601.333984375 l 1
139.392578125 528.73046875 m 2
 141.359375 528.69140625 143.349609375 528.493164062 145.333984375 528.33984375 c 2
 145.333984375 303.208984375 l 1
 88.44921875 335.064453125 l 2
 88.43359375 335.07421875 88.4169921875 335.083007812 88.400390625 335.091796875 c 2
 88.400390625 335.091796875 32.34765625 363.40625 32.34765625 426.8203125 c 0
 32.34765625 490.227539062 89.00390625 529.73828125 139.392578125 528.73046875 c 1
 139.392578125 528.73046875 l 2
148 298.66015625 m 1
 216.201171875 260.46875 l 2
 216.232421875 260.450195312 216.265625 260.43359375 216.298828125 260.41796875 c 2
 216.298828125 260.41796875 267.140625 237.418945312 267.140625 168.712890625 c 0
 267.140625 134.397460938 252.961914062 109.006835938 233.12890625 92.091796875 c 0
 213.295898438 75.1767578125 187.755859375 66.802734375 165.23046875 66.802734375 c 0
 159.637695312 66.802734375 153.865234375 67.3427734375 148 68.287109375 c 1
 148 298.66015625 l 1
EndSplineSet
EndChar

StartChar: Percent
Encoding: 6 37 6
Width: 660
VWidth: 824
Flags: HW
LayerCount: 2
Fore
SplineSet
546.587890625 601.33203125 m 0
 546.223632812 601.310546875 545.897460938 601.142578125 545.669921875 600.88671875 c 1
 545.670898438 600.885742188 12.3359375 0.88671875 12.3359375 0.88671875 c 2
 12.126953125 0.6513671875 11.9990234375 0.3408203125 11.9990234375 0.001953125 c 0
 11.9990234375 -0.39453125 12.171875 -0.751953125 12.447265625 -0.99609375 c 0
 12.6826171875 -1.2060546875 12.9931640625 -1.333984375 13.3330078125 -1.333984375 c 0
 13.7294921875 -1.333984375 14.0859375 -1.1611328125 14.330078125 -0.88671875 c 0
 14.330078125 -0.8857421875 547.6640625 599.11328125 547.6640625 599.11328125 c 2
 547.873046875 599.348632812 548.000976562 599.659179688 548.000976562 599.998046875 c 0
 548.000976562 600.39453125 547.828125 600.751953125 547.552734375 600.99609375 c 0
 547.317382812 601.206054688 547.005859375 601.333984375 546.666015625 601.333984375 c 0
 546.639648438 601.333984375 546.614257812 601.333984375 546.587890625 601.33203125 c 0
124.951171875 600.853515625 m 0
 68.86328125 600.853515625 23.3671875 555.357421875 23.3671875 499.26953125 c 0
 23.3671875 443.181640625 68.86328125 397.685546875 124.951171875 397.685546875 c 0
 181.0390625 397.685546875 226.53515625 443.181640625 226.53515625 499.26953125 c 0
 226.53515625 555.357421875 181.0390625 600.853515625 124.951171875 600.853515625 c 0
124.951171875 598.1875 m 0
 179.59765625 598.1875 223.869140625 553.916015625 223.869140625 499.26953125 c 0
 223.869140625 444.623046875 179.59765625 400.3515625 124.951171875 400.3515625 c 0
 70.3046875 400.3515625 26.033203125 444.623046875 26.033203125 499.26953125 c 0
 26.033203125 553.916015625 70.3046875 598.1875 124.951171875 598.1875 c 0
444.49609375 203.2734375 m 0
 388.408203125 203.2734375 342.912109375 157.77734375 342.912109375 101.689453125 c 0
 342.912109375 45.6015625 388.408203125 0.10546875 444.49609375 0.10546875 c 0
 500.583984375 0.10546875 546.080078125 45.6015625 546.080078125 101.689453125 c 0
 546.080078125 157.77734375 500.583984375 203.2734375 444.49609375 203.2734375 c 0
444.49609375 200.607421875 m 0
 499.142578125 200.607421875 543.4140625 156.3359375 543.4140625 101.689453125 c 0
 543.4140625 47.04296875 499.142578125 2.771484375 444.49609375 2.771484375 c 0
 389.849609375 2.771484375 345.578125 47.04296875 345.578125 101.689453125 c 0
 345.578125 156.3359375 389.849609375 200.607421875 444.49609375 200.607421875 c 0
EndSplineSet
EndChar

StartChar: Ampersand
Encoding: 7 38 7
Width: 500
VWidth: 824
Flags: HW
LayerCount: 2
Fore
SplineSet
150 601.333984375 m 0
 117.321289062 601.333984375 88.0185546875 581.737304688 70.9609375 555.078125 c 0
 53.9033203125 528.418945312 49.0400390625 494.530273438 65.51171875 466 c 0
 65.515625 465.993164062 65.51953125 465.987304688 65.5234375 465.98046875 c 0
 143.451171875 336.1015625 l 1
 33.669921875 173.720703125 l 2
 14.6953125 146.090820312 10.029296875 118.374023438 15.09765625 93.490234375 c 0
 20.166015625 68.603515625 34.9111328125 46.576171875 54.5625 30.072265625 c 0
 93.8642578125 -2.935546875 153.038085938 -14.0107421875 194.30859375 18.8125 c 0
 194.313476562 18.81640625 194.317382812 18.8203125 194.322265625 18.82421875 c 0
 287.841796875 95.451171875 l 1
 345.5234375 -0.685546875 l 2
 345.756835938 -1.07421875 346.181640625 -1.333984375 346.66796875 -1.333984375 c 0
 346.91796875 -1.333984375 347.153320312 -1.2626953125 347.353515625 -1.142578125 c 0
 347.741210938 -0.9091796875 348.001953125 -0.484375 348.001953125 0.0009765625 c 0
 348.001953125 0.2509765625 347.930664062 0.4853515625 347.810546875 0.685546875 c 1
 347.8125 0.6845703125 289.92578125 97.16015625 289.92578125 97.16015625 c 1
 414.177734375 198.96875 l 2
 414.4765625 199.212890625 414.66796875 199.584960938 414.66796875 200.000976562 c 0
 414.66796875 200.321289062 414.553710938 200.616210938 414.365234375 200.845703125 c 0
 414.12109375 201.14453125 413.749023438 201.334960938 413.333984375 201.334960938 c 0
 413.012695312 201.334960938 412.71875 201.219726562 412.48828125 201.03125 c 1
 412.48828125 201.032226562 288.5390625 99.470703125 288.5390625 99.470703125 c 1
 146.61328125 336.015625 l 1
 234.4375 465.919921875 l 2
 234.455078125 465.946289062 234.47265625 465.97265625 234.48828125 466 c 0
 267.631835938 523.405273438 225.540039062 601.333984375 150 601.333984375 c 0
150 598.666015625 m 0
 223.703125 598.666015625 264.299804688 523.004882812 232.185546875 467.3515625 c 1
 145.099609375 338.5390625 l 1
 67.822265625 467.333984375 l 2
 51.9208984375 494.875 56.5771484375 527.650390625 73.20703125 553.640625 c 0
 89.8369140625 579.630859375 118.388671875 598.666015625 150 598.666015625 c 0
144.96484375 333.578125 m 1
 286.455078125 97.76171875 l 1
 192.6328125 20.88671875 l 2
 152.565429688 -10.9638671875 94.7900390625 -0.2294921875 56.27734375 32.115234375 c 0
 37.0185546875 48.2900390625 22.638671875 69.8271484375 17.7109375 94.0234375 c 0
 12.783203125 118.219726562 17.2470703125 145.103515625 35.873046875 172.220703125 c 0
 35.875 172.223632812 35.876953125 172.225585938 35.87890625 172.228515625 c 0
 144.96484375 333.578125 l 1
EndSplineSet
EndChar

StartChar: Single Quote
Encoding: 8 39 8
Width: 120
VWidth: 824
Flags: HW
LayerCount: 2
Fore
SplineSet
13.333984375 734.666015625 m 2
 13.3330078125 734.666015625 l 2
 12.59765625 734.666015625 12.0009765625 734.069335938 12 733.333984375 c 1
 12 600 l 1
 12 599.999023438 l 2
 12 599.263671875 12.59765625 598.666015625 13.3330078125 598.666015625 c 2
 13.333984375 598.666015625 l 2
 14.0693359375 598.666992188 14.666015625 599.263671875 14.666015625 599.999023438 c 2
 14.666015625 600 l 2
 14.666015625 733.333984375 l 2
 14.6650390625 734.068359375 14.068359375 734.665039062 13.333984375 734.666015625 c 2
EndSplineSet
EndChar

StartChar: L. Parenthesis
Encoding: 9 40 9
Width: 250
VWidth: 824
Flags: HW
LayerCount: 2
Fore
SplineSet
145.740234375 600.958984375 m 1
 -27.0419921875 433.971679688 -32.638671875 165.2265625 145.7578125 -0.974609375 c 0
 145.99609375 -1.1962890625 146.315429688 -1.3330078125 146.666992188 -1.3330078125 c 0
 147.051757812 -1.3330078125 147.399414062 -1.169921875 147.642578125 -0.908203125 c 0
 147.864257812 -0.669921875 148 -0.3505859375 148 -0.0009765625 c 0
 148 0.3837890625 147.836914062 0.7314453125 147.576171875 0.974609375 c 0
 -29.7509765625 166.180664062 -24.181640625 433.026367188 147.59375 599.041015625 c 0
 147.84375 599.283203125 148 599.623046875 148 599.999023438 c 0
 148 600.358398438 147.856445312 600.685546875 147.625 600.92578125 c 0
 147.3828125 601.176757812 147.041992188 601.333007812 146.666015625 601.333007812 c 0
 146.306640625 601.333007812 145.98046875 601.190429688 145.740234375 600.958984375 c 1
 145.740234375 600.958984375 l 1
EndSplineSet
EndChar

StartChar: R. Parenthesis
Encoding: 10 41 10
Width: 280
VWidth: 824
Flags: HW
LayerCount: 2
Fore
SplineSet
16.30859375 600.958984375 m 0
 16.068359375 601.190429688 15.7421875 601.333007812 15.3828125 601.333007812 c 0
 15.0068359375 601.333007812 14.666015625 601.176757812 14.423828125 600.92578125 c 0
 14.19140625 600.685546875 14.048828125 600.359375 14.048828125 599.999023438 c 0
 14.048828125 599.624023438 14.205078125 599.283203125 14.455078125 599.041015625 c 0
 186.23046875 433.026367188 191.799804688 166.180664062 14.47265625 0.974609375 c 0
 14.2119140625 0.7314453125 14.048828125 0.384765625 14.048828125 -0 c 0
 14.048828125 -0.3505859375 14.1845703125 -0.669921875 14.40625 -0.908203125 c 0
 14.6494140625 -1.169921875 14.9970703125 -1.3330078125 15.3818359375 -1.3330078125 c 0
 15.732421875 -1.3330078125 16.052734375 -1.1962890625 16.291015625 -0.974609375 c 0
 194.6875 165.2265625 189.090820312 433.971679688 16.30859375 600.958984375 c 0
EndSplineSet
EndChar

StartChar: Asterisk
Encoding: 11 42 11
Width: 500
VWidth: 824
Flags: HW
LayerCount: 2
Fore
SplineSet
200 428 m 1
 199.999023438 428 l 2
 199.263671875 428 198.666015625 427.40234375 198.666015625 426.666992188 c 2
 198.666015625 426.666015625 l 2
 198.666015625 241.830078125 l 1
 13.7421875 301.26953125 l 2
 13.61328125 301.310546875 13.4765625 301.333007812 13.333984375 301.333007812 c 0
 12.740234375 301.333007812 12.2373046875 300.9453125 12.064453125 300.408203125 c 0
 12.0234375 300.279296875 12.0009765625 300.142578125 12.0009765625 300 c 0
 12.0009765625 299.40625 12.388671875 298.903320312 12.92578125 298.73046875 c 0
 197.810546875 239.302734375 l 1
 78.93359375 80.80078125 l 2
 78.7666015625 80.578125 78.6669921875 80.30078125 78.6669921875 80.0009765625 c 0
 78.6669921875 79.564453125 78.875 79.1767578125 79.19921875 78.93359375 c 0
 79.421875 78.7666015625 79.69921875 78.6669921875 79.9990234375 78.6669921875 c 0
 80.435546875 78.6669921875 80.8232421875 78.875 81.06640625 79.19921875 c 0
 81.06640625 79.201171875 200 237.77734375 200 237.77734375 c 1
 318.93359375 79.19921875 l 2
 319.176757812 78.875 319.564453125 78.6650390625 320.000976562 78.6650390625 c 0
 320.30078125 78.6650390625 320.578125 78.7666015625 320.80078125 78.93359375 c 0
 321.125 79.1767578125 321.334960938 79.564453125 321.334960938 80.0009765625 c 0
 321.334960938 80.30078125 321.233398438 80.578125 321.06640625 80.80078125 c 1
 321.068359375 80.80078125 202.189453125 239.302734375 202.189453125 239.302734375 c 1
 387.07421875 298.73046875 l 2
 387.611328125 298.903320312 388 299.40625 388 300 c 0
 388 300.142578125 387.9765625 300.279296875 387.935546875 300.408203125 c 0
 387.762695312 300.9453125 387.259765625 301.333984375 386.666015625 301.333984375 c 0
 386.5234375 301.333984375 386.38671875 301.310546875 386.2578125 301.26953125 c 0
 201.333984375 241.830078125 l 1
 201.333984375 426.666015625 l 1
 201.333984375 426.666992188 l 2
 201.333984375 427.40234375 200.736328125 428 200.000976562 428 c 2
 200 428 l 1
EndSplineSet
EndChar

StartChar: Plus
Encoding: 12 43 12
Width: 500
VWidth: 824
Flags: HW
LayerCount: 2
Fore
SplineSet
213.333984375 434.666015625 m 2
 213.333007812 434.666015625 l 2
 212.59765625 434.666015625 212.000976562 434.069335938 212 433.333984375 c 1
 212 234.666015625 l 1
 13.333984375 234.666015625 l 1
 13.3330078125 234.666015625 l 2
 12.59765625 234.666015625 12.0009765625 234.069335938 12 233.333984375 c 2
 12 233.333007812 l 2
 12 232.59765625 12.59765625 232 13.3330078125 232 c 2
 13.333984375 232 l 2
 212 232 l 1
 212 33.333984375 l 1
 212 33.3330078125 l 2
 212 32.59765625 212.59765625 32 213.333007812 32 c 2
 213.333984375 32 l 2
 214.069335938 32.0009765625 214.666015625 32.59765625 214.666015625 33.3330078125 c 2
 214.666015625 33.333984375 l 2
 214.666015625 232 l 1
 413.333984375 232 l 2
 414.069335938 232.000976562 414.666015625 232.59765625 414.666015625 233.333007812 c 2
 414.666015625 233.333984375 l 2
 414.665039062 234.068359375 414.068359375 234.665039062 413.333984375 234.666015625 c 1
 214.666015625 234.666015625 l 1
 214.666015625 433.333984375 l 2
 214.665039062 434.068359375 214.068359375 434.665039062 213.333984375 434.666015625 c 2
EndSplineSet
EndChar

StartChar: Comma
Encoding: 13 44 13
Width: 200
VWidth: 824
Flags: HW
LayerCount: 2
Fore
SplineSet
33.333984375 28 m 1
 33.3330078125 28 l 2
 32.59765625 28 32 27.40234375 32 26.6669921875 c 2
 32 26.666015625 l 2
 32 0 l 1
 32 -0.0009765625 l 2
 32 -0.736328125 32.59765625 -1.333984375 33.3330078125 -1.333984375 c 2
 33.333984375 -1.333984375 l 2
 58.119140625 -1.333984375 l 1
 12.07421875 -132.892578125 l 2
 12.0263671875 -133.030273438 12 -133.178710938 12 -133.333007812 c 0
 12 -133.915039062 12.3720703125 -134.41015625 12.892578125 -134.591796875 c 0
 13.0302734375 -134.639648438 13.1787109375 -134.666015625 13.3330078125 -134.666015625 c 0
 13.9150390625 -134.666015625 14.41015625 -134.293945312 14.591796875 -133.7734375 c 0
 14.591796875 -133.772460938 61.2578125 -0.44140625 61.2578125 -0.44140625 c 2
 61.306640625 -0.3037109375 61.333984375 -0.154296875 61.333984375 0 c 1
 61.333984375 26.666015625 l 1
 61.333984375 26.6669921875 l 2
 61.333984375 27.40234375 60.736328125 28 60.0009765625 28 c 2
 60 28 l 2
 33.333984375 28 l 1
34.666015625 25.333984375 m 1
 58.666015625 25.333984375 l 1
 58.666015625 1.333984375 l 1
 34.666015625 1.333984375 l 1
 34.666015625 25.333984375 l 1
EndSplineSet
EndChar

StartChar: Hyphen-Minus
Encoding: 14 45 14
Width: 500
VWidth: 824
Flags: HW
LayerCount: 2
Fore
SplineSet
13.333984375 234.666015625 m 1
 13.3330078125 234.666015625 l 2
 12.59765625 234.666015625 12.0009765625 234.069335938 12 233.333984375 c 2
 12 233.333007812 l 2
 12 232.59765625 12.59765625 232 13.3330078125 232 c 2
 13.333984375 232 l 2
 413.333984375 232 l 2
 414.069335938 232.000976562 414.666015625 232.59765625 414.666015625 233.333007812 c 2
 414.666015625 233.333984375 l 2
 414.665039062 234.068359375 414.068359375 234.665039062 413.333984375 234.666015625 c 1
 13.333984375 234.666015625 l 1
EndSplineSet
EndChar

StartChar: Period
Encoding: 15 46 15
Width: 300
VWidth: 824
Flags: HW
LayerCount: 2
Fore
SplineSet
33.333984375 28 m 1
 33.3330078125 28 l 2
 32.59765625 28 32 27.40234375 32 26.6669921875 c 2
 32 26.666015625 l 2
 32 0 l 1
 32 -0.0009765625 l 2
 32 -0.736328125 32.59765625 -1.333984375 33.3330078125 -1.333984375 c 2
 33.333984375 -1.333984375 l 2
 60 -1.333984375 l 1
 60.0009765625 -1.333984375 l 2
 60.736328125 -1.333984375 61.333984375 -0.736328125 61.333984375 -0.0009765625 c 2
 61.333984375 0 l 2
 61.333984375 26.666015625 l 1
 61.333984375 26.6669921875 l 2
 61.333984375 27.40234375 60.736328125 28 60.0009765625 28 c 2
 60 28 l 2
 33.333984375 28 l 1
34.666015625 25.333984375 m 1
 58.666015625 25.333984375 l 1
 58.666015625 1.333984375 l 1
 34.666015625 1.333984375 l 1
 34.666015625 25.333984375 l 1
EndSplineSet
EndChar

StartChar: Forward Slash
Encoding: 16 47 16
Width: 400
VWidth: 824
Flags: H
LayerCount: 2
Fore
SplineSet
280.455078125 667.919921875 m 0
 280.3125 667.971679688 280.159179688 668 279.999023438 668 c 0
 279.423828125 668 278.932617188 667.634765625 278.74609375 667.123046875 c 0
 278.74609375 667.122070312 12.080078125 -66.2109375 12.080078125 -66.2109375 c 2
 12.0283203125 -66.353515625 12 -66.5068359375 12 -66.6669921875 c 0
 12 -67.2421875 12.365234375 -67.7333984375 12.876953125 -67.919921875 c 0
 13.01953125 -67.9716796875 13.1728515625 -68 13.3330078125 -68 c 0
 13.908203125 -68 14.3994140625 -67.634765625 14.5859375 -67.123046875 c 0
 14.5859375 -67.1220703125 281.25390625 666.2109375 281.25390625 666.2109375 c 2
 281.305664062 666.352539062 281.333984375 666.505859375 281.333984375 666.666015625 c 0
 281.333984375 667.2421875 280.967773438 667.734375 280.455078125 667.919921875 c 0
EndSplineSet
EndChar

StartChar: Digit Zero
Encoding: 17 48 17
Width: 440
VWidth: 824
Flags: HW
LayerCount: 2
Fore
SplineSet
168.357421875 599.435546875 m 1
 126.247070312 599.48046875 85.7197265625 577.647460938 65.498046875 533.974609375 c 0
 -8.03515625 400.087890625 -8.0361328125 199.819335938 65.498046875 66.025390625 c 1
 105.821289062 -21.173828125 240.176757812 -21.9970703125 281.154296875 66 c 1
 368.21484375 199.778320312 368.211914062 400.666992188 281.134765625 534.03515625 c 1
 281.125 534.048828125 l 2
 254.2578125 577.510742188 210.490234375 599.390625 168.357421875 599.435546875 c 1
 168.357421875 599.435546875 l 1
168.35546875 596.76953125 m 1
 209.209960938 596.7265625 251.692382812 575.686523438 278.142578125 533.72265625 c 1
 278.021484375 533.758789062 277.892578125 533.778320312 277.759765625 533.778320312 c 0
 277.241210938 533.778320312 276.79296875 533.483398438 276.572265625 533.05078125 c 0
 276.571289062 533.048828125 66.716796875 69.443359375 66.716796875 69.443359375 c 1
 -5.1240234375 202.248046875 -4.7705078125 400.4921875 67.8359375 532.69140625 c 0
 67.8505859375 532.717773438 67.8642578125 532.74609375 67.876953125 532.7734375 c 0
 87.658203125 575.579101562 127.138671875 596.813476562 168.35546875 596.76953125 c 1
 168.35546875 596.76953125 l 1
279.0625 532.314453125 m 1
 365.3125 399.953125 365.258789062 200.061523438 278.8828125 67.39453125 c 0
 278.848632812 67.341796875 278.817382812 67.2861328125 278.791015625 67.228515625 c 0
 238.921875 -18.623046875 108.018554688 -18.0322265625 68.248046875 66.49609375 c 0
 68.2861328125 66.52734375 68.3212890625 66.560546875 68.35546875 66.595703125 c 0
 68.3564453125 66.5966796875 279.001953125 531.951171875 279.001953125 531.951171875 c 2
 279.038085938 532.06640625 279.059570312 532.188476562 279.0625 532.314453125 c 1
 279.0625 532.313476562 279.0625 532.314453125 279.0625 532.314453125 c 1
EndSplineSet
EndChar

StartChar: Digit One
Encoding: 18 49 18
Width: 440
VWidth: 824
Flags: HW
LayerCount: 2
Fore
SplineSet
180.578125 601.201171875 m 0
 180.403320312 601.28515625 180.208007812 601.33203125 180.001953125 601.33203125 c 0
 179.6875 601.33203125 179.396484375 601.223632812 179.16796875 601.041015625 c 1
 179.169921875 601.041015625 12.5 467.70703125 12.5 467.70703125 c 2
 12.1953125 467.462890625 12 467.086914062 12 466.666015625 c 0
 12 466.3515625 12.1103515625 466.0625 12.29296875 465.833984375 c 0
 12.537109375 465.528320312 12.9130859375 465.333007812 13.3349609375 465.333007812 c 0
 13.6484375 465.333007812 13.9384765625 465.443359375 14.166015625 465.625 c 1
 14.166015625 465.624023438 178.666015625 597.2265625 178.666015625 597.2265625 c 1
 178.666015625 1.333984375 l 1
 13.333984375 1.333984375 l 1
 13.3330078125 1.333984375 l 2
 12.59765625 1.333984375 12 0.736328125 12 0.0009765625 c 2
 12 0 l 1
 12 -0.0009765625 l 2
 12 -0.736328125 12.59765625 -1.333984375 13.3330078125 -1.333984375 c 2
 13.333984375 -1.333984375 l 2
 180 -1.333984375 l 1
 346.666015625 -1.333984375 l 1
 346.666992188 -1.333984375 l 2
 347.40234375 -1.333984375 348 -0.736328125 348 -0.0009765625 c 2
 348 0 l 1
 348 0.0009765625 l 2
 348 0.736328125 347.40234375 1.333984375 346.666992188 1.333984375 c 2
 346.666015625 1.333984375 l 2
 181.333984375 1.333984375 l 1
 181.333984375 600 l 2
 181.333984375 600.529296875 181.025390625 600.986328125 180.578125 601.201171875 c 0
EndSplineSet
EndChar

StartChar: Digit Two
Encoding: 19 50 19
Width: 440
VWidth: 824
Flags: HW
LayerCount: 2
Fore
SplineSet
180 601.333984375 m 0
 90.107421875 601.333984375 30.19921875 534.764648438 12.044921875 467.01171875 c 0
 12.015625 466.901367188 12 466.786132812 12 466.666992188 c 0
 12 466.049804688 12.4189453125 465.53125 12.98828125 465.37890625 c 0
 13.0986328125 465.349609375 13.2138671875 465.333984375 13.3330078125 465.333984375 c 0
 13.9501953125 465.333984375 14.46875 465.752929688 14.62109375 466.322265625 c 0
 32.5087890625 533.081054688 91.423828125 598.666015625 180 598.666015625 c 0
 219.827148438 598.666015625 261.234375 582.262695312 292.619140625 555.865234375 c 0
 324.00390625 529.467773438 345.333984375 493.149414062 345.333984375 453.333984375 c 0
 345.333984375 420.677734375 328.354492188 389.548828125 305.623046875 360.830078125 c 0
 305.622070312 360.829101562 305.622070312 360.829101562 305.62109375 360.828125 c 2
 -0.0234375 3.556640625 l 2
 -0.22265625 3.3232421875 -0.3427734375 3.021484375 -0.3427734375 2.69140625 c 0
 -0.3427734375 1.9560546875 0.2548828125 1.357421875 0.990234375 1.357421875 c 0
 0.990234375 1.3583984375 346.666015625 1.357421875 346.666015625 1.357421875 c 1
 346.666992188 1.357421875 l 2
 347.40234375 1.357421875 347.999023438 1.9541015625 348 2.689453125 c 2
 348 2.6904296875 l 2
 348 3.42578125 347.40234375 4.0234375 346.666992188 4.0234375 c 2
 346.666015625 4.0234375 l 2
 3.884765625 4.0234375 l 1
 307.6796875 359.1328125 l 2
 307.69140625 359.145507812 307.702148438 359.158203125 307.712890625 359.171875 c 0
 330.625 388.119140625 348 419.754882812 348 453.333984375 c 0
 348 494.1015625 326.1875 531.116210938 294.3359375 557.90625 c 0
 262.484375 584.696289062 220.55859375 601.333984375 180 601.333984375 c 0
EndSplineSet
EndChar

StartChar: Digit Three
Encoding: 20 51 20
Width: 440
VWidth: 824
Flags: HW
LayerCount: 2
Fore
SplineSet
13.333984375 601.333984375 m 1
 13.3330078125 601.333984375 l 2
 12.59765625 601.333984375 12 600.736328125 12 600.000976562 c 2
 12 600 l 1
 12 599.999023438 l 2
 12 599.263671875 12.59765625 598.666015625 13.3330078125 598.666015625 c 2
 13.333984375 598.666015625 l 2
 213.333984375 598.666015625 l 2
 256.420898438 598.666015625 288.482421875 582.182617188 309.853515625 557.4609375 c 0
 331.224609375 532.739257812 341.875976562 499.71484375 341.794921875 466.669921875 c 0
 341.713867188 433.625 330.90234375 400.596679688 309.48828125 375.873046875 c 0
 288.07421875 351.149414062 256.091796875 334.666015625 213.333984375 334.666015625 c 2
 180 334.666015625 l 1
 80 334.666015625 l 2
 79.2802734375 334.647460938 78.7021484375 334.056640625 78.7021484375 333.333007812 c 0
 78.7021484375 332.609375 79.2802734375 332.018554688 80 332 c 1
 180 332 l 2
 234.84765625 332 275.813476562 311.341796875 303.162109375 280.3671875 c 0
 330.510742188 249.392578125 344.216796875 208.038085938 344.216796875 166.666015625 c 0
 344.216796875 125.293945312 330.510742188 83.94140625 303.162109375 52.966796875 c 0
 275.813476562 21.9921875 234.84765625 1.333984375 180 1.333984375 c 2
 13.333984375 1.333984375 l 1
 13.3330078125 1.333984375 l 2
 12.59765625 1.333984375 12 0.736328125 12 0.0009765625 c 2
 12 0 l 1
 12 -0.0009765625 l 2
 12 -0.736328125 12.59765625 -1.333984375 13.3330078125 -1.333984375 c 2
 13.333984375 -1.333984375 l 2
 180 -1.333984375 l 2
 235.518554688 -1.333984375 277.327148438 19.67578125 305.162109375 51.201171875 c 0
 332.997070312 82.7265625 346.8828125 124.705078125 346.8828125 166.666015625 c 0
 346.8828125 208.626953125 332.997070312 250.607421875 305.162109375 282.1328125 c 0
 282.913085938 307.331054688 251.583007812 325.59765625 211.61328125 332 c 1
 213.333984375 332 l 2
 256.779296875 332 289.612304688 348.850585938 311.50390625 374.126953125 c 0
 333.395507812 399.403320312 344.37890625 433.041992188 344.4609375 466.6640625 c 0
 344.54296875 500.286132812 333.723632812 533.926757812 311.87109375 559.205078125 c 0
 290.018554688 584.483398438 257.103515625 601.333984375 213.333984375 601.333984375 c 2
 13.333984375 601.333984375 l 1
EndSplineSet
EndChar

StartChar: Digit Four
Encoding: 21 52 21
Width: 440
VWidth: 824
Flags: HW
LayerCount: 2
Fore
SplineSet
147.033203125 601.28125 m 0
 146.916992188 601.314453125 146.79296875 601.33203125 146.666015625 601.33203125 c 0
 146.057617188 601.33203125 145.544921875 600.924804688 145.384765625 600.3671875 c 0
 12.05078125 133.69921875 l 2
 12.017578125 133.583007812 12 133.459960938 12 133.333007812 c 0
 12 132.59765625 12.59765625 132 13.3330078125 132 c 2
 13.333984375 132 l 2
 245.333984375 132 l 1
 245.333984375 0 l 1
 245.333984375 -0.0009765625 l 2
 245.333984375 -0.736328125 245.930664062 -1.3330078125 246.666015625 -1.333984375 c 2
 246.666992188 -1.333984375 l 2
 247.40234375 -1.333984375 248 -0.736328125 248 -0.0009765625 c 2
 248 0 l 2
 248 132 l 1
 346.666015625 132 l 1
 346.666992188 132 l 2
 347.40234375 132 348 132.59765625 348 133.333007812 c 2
 348 133.333984375 l 2
 347.999023438 134.069335938 347.40234375 134.666015625 346.666992188 134.666015625 c 2
 346.666015625 134.666015625 l 2
 248 134.666015625 l 1
 248 266.666015625 l 1
 248 266.666992188 l 2
 248 267.40234375 247.40234375 268 246.666992188 268 c 2
 246.666015625 268 l 2
 245.930664062 267.999023438 245.333984375 267.40234375 245.333984375 266.666992188 c 2
 245.333984375 266.666015625 l 2
 245.333984375 134.666015625 l 1
 15.1015625 134.666015625 l 1
 147.94921875 599.6328125 l 2
 147.982421875 599.749023438 148 599.872070312 148 599.999023438 c 0
 148 600.608398438 147.590820312 601.122070312 147.033203125 601.28125 c 0
EndSplineSet
EndChar

StartChar: Digit Five
Encoding: 22 53 22
Width: 480
VWidth: 824
Flags: HW
LayerCount: 2
Fore
SplineSet
13.333984375 601.333984375 m 1
 13.3330078125 601.333984375 l 2
 12.59765625 601.333984375 12 600.736328125 12 600.000976562 c 2
 12 600 l 2
 12 333.333984375 l 1
 12 333.333007812 l 2
 12 332.59765625 12.59765625 332 13.3330078125 332 c 2
 13.333984375 332 l 2
 186.666015625 332 l 2
 239.212890625 332 278.622070312 311.358398438 305.0390625 280.384765625 c 0
 331.456054688 249.411132812 344.84375 208.044921875 345.005859375 166.662109375 c 0
 345.16796875 125.279296875 332.104492188 83.9169921875 305.771484375 52.947265625 c 0
 279.438476562 21.9775390625 239.87109375 1.333984375 186.666015625 1.333984375 c 2
 13.333984375 1.333984375 l 1
 13.3330078125 1.333984375 l 2
 12.59765625 1.333984375 12 0.736328125 12 0.0009765625 c 2
 12 0 l 1
 12 -0.0009765625 l 2
 12 -0.736328125 12.59765625 -1.333984375 13.3330078125 -1.333984375 c 2
 13.333984375 -1.333984375 l 2
 186.666015625 -1.333984375 l 2
 240.5625 -1.333984375 280.995117188 19.6884765625 307.8046875 51.21875 c 0
 334.614257812 82.7490234375 347.8359375 124.721679688 347.671875 166.671875 c 0
 347.5078125 208.622070312 333.95703125 250.588867188 307.068359375 282.115234375 c 0
 280.1796875 313.641601562 239.913085938 334.666015625 186.666015625 334.666015625 c 2
 14.666015625 334.666015625 l 1
 14.666015625 598.666015625 l 1
 346.666015625 598.666015625 l 1
 346.666992188 598.666015625 l 2
 347.40234375 598.666015625 348 599.263671875 348 599.999023438 c 2
 348 600 l 1
 348 600.000976562 l 2
 348 600.736328125 347.40234375 601.333984375 346.666992188 601.333984375 c 2
 346.666015625 601.333984375 l 2
 13.333984375 601.333984375 l 1
EndSplineSet
EndChar

StartChar: Digit Six
Encoding: 23 54 23
Width: 440
VWidth: 824
Flags: HW
LayerCount: 2
Fore
SplineSet
280 601.333984375 m 2
 118.530273438 601.333984375 12 472.540039062 12 333.333984375 c 2
 12 166.666015625 l 2
 12 82.9375 81.8828125 -1.333984375 180 -1.333984375 c 0
 267.717773438 -1.333984375 348 78.7548828125 348 166.666015625 c 2
 348 200 l 2
 348 279.177734375 288.485351562 334.666015625 213.333984375 334.666015625 c 2
 14.697265625 334.666015625 l 1
 15.375 472 120.463867188 598.666015625 280 598.666015625 c 2
 280.000976562 598.666015625 l 2
 280.736328125 598.666015625 281.333984375 599.263671875 281.333984375 599.999023438 c 2
 281.333984375 600 l 1
 281.333984375 600.000976562 l 2
 281.333984375 600.736328125 280.736328125 601.333984375 280.000976562 601.333984375 c 2
 280 601.333984375 l 2
14.666015625 332 m 1
 213.333984375 332 l 2
 287.176757812 332 345.333984375 277.845703125 345.333984375 200 c 2
 345.333984375 166.666015625 l 2
 345.333984375 80.3828125 266.090820312 1.333984375 180 1.333984375 c 0
 83.41015625 1.333984375 14.666015625 84.4228515625 14.666015625 166.666015625 c 2
 14.666015625 332 l 1
EndSplineSet
EndChar

StartChar: Digit Seven
Encoding: 24 55 24
Width: 440
VWidth: 824
Flags: HW
LayerCount: 2
Fore
SplineSet
13.333984375 601.333984375 m 1
 13.3330078125 601.333984375 l 2
 12.59765625 601.333984375 12 600.736328125 12 600.000976562 c 2
 12 600 l 2
 12 533.333984375 l 1
 12 533.333007812 l 2
 12 532.59765625 12.59765625 532 13.3330078125 532 c 2
 13.333984375 532 l 2
 14.0693359375 532.000976562 14.666015625 532.59765625 14.666015625 533.333007812 c 2
 14.666015625 533.333984375 l 2
 14.666015625 598.666015625 l 1
 344.912109375 598.666015625 l 1
 178.71484375 0.357421875 l 2
 178.682617188 0.2431640625 178.666015625 0.123046875 178.666015625 -0.0009765625 c 0
 178.666015625 -0.61328125 179.080078125 -1.12890625 179.642578125 -1.28515625 c 0
 179.756835938 -1.3173828125 179.876953125 -1.333984375 180.000976562 -1.333984375 c 0
 180.61328125 -1.333984375 181.12890625 -0.919921875 181.28515625 -0.357421875 c 0
 181.286132812 -0.357421875 347.951171875 599.642578125 347.951171875 599.642578125 c 2
 347.983398438 599.756835938 348 599.876953125 348 600.000976562 c 0
 348 600.736328125 347.40234375 601.333984375 346.666015625 601.333984375 c 2
 346.666015625 601.333984375 l 1
 13.333984375 601.333984375 l 1
EndSplineSet
EndChar

StartChar: Digit Eight
Encoding: 25 56 25
Width: 440
VWidth: 824
Flags: HW
LayerCount: 2
Fore
SplineSet
179.58984375 601.515625 m 0
 105.231445312 601.515625 44.923828125 541.208007812 44.923828125 466.849609375 c 0
 44.923828125 398.700195312 95.591796875 342.388671875 161.294921875 333.453125 c 1
 77.765625 323.735351562 12.896484375 252.76171875 12.896484375 166.62890625 c 0
 12.896484375 73.861328125 88.12890625 -1.37109375 180.896484375 -1.37109375 c 0
 273.6640625 -1.37109375 348.896484375 73.861328125 348.896484375 166.62890625 c 0
 348.896484375 253.212890625 283.352539062 324.497070312 199.189453125 333.619140625 c 1
 264.259765625 343.116210938 314.255859375 399.150390625 314.255859375 466.849609375 c 0
 314.255859375 541.208007812 253.948242188 601.515625 179.58984375 601.515625 c 0
179.58984375 598.849609375 m 0
 252.506835938 598.849609375 311.58984375 539.766601562 311.58984375 466.849609375 c 0
 311.58984375 393.932617188 252.506835938 334.849609375 179.58984375 334.849609375 c 0
 106.672851562 334.849609375 47.58984375 393.932617188 47.58984375 466.849609375 c 0
 47.58984375 539.766601562 106.672851562 598.849609375 179.58984375 598.849609375 c 0
180.896484375 331.962890625 m 0
 272.223632812 331.962890625 346.23046875 257.956054688 346.23046875 166.62890625 c 0
 346.23046875 75.3017578125 272.223632812 1.294921875 180.896484375 1.294921875 c 0
 89.5693359375 1.294921875 15.5625 75.3017578125 15.5625 166.62890625 c 0
 15.5625 257.956054688 89.5693359375 331.962890625 180.896484375 331.962890625 c 0
EndSplineSet
EndChar

StartChar: Digit Nine
Encoding: 26 57 26
Width: 460
VWidth: 824
Flags: HW
LayerCount: 2
Fore
SplineSet
180 601.333984375 m 0
 92.2822265625 601.333984375 12 521.245117188 12 433.333984375 c 2
 12 400 l 2
 12 320.822265625 71.5146484375 265.333984375 146.666015625 265.333984375 c 2
 345.302734375 265.333984375 l 1
 344.625 128 239.536132812 1.333984375 80 1.333984375 c 2
 79.9990234375 1.333984375 l 2
 79.263671875 1.333984375 78.666015625 0.736328125 78.666015625 0.0009765625 c 2
 78.666015625 0 l 1
 78.666015625 -0.0009765625 l 2
 78.666015625 -0.736328125 79.263671875 -1.333984375 79.9990234375 -1.333984375 c 2
 80 -1.333984375 l 2
 241.469726562 -1.333984375 348 127.459960938 348 266.666015625 c 2
 348 433.333984375 l 2
 348 517.0625 278.1171875 601.333984375 180 601.333984375 c 0
180 598.666015625 m 0
 276.58984375 598.666015625 345.333984375 515.577148438 345.333984375 433.333984375 c 2
 345.333984375 268 l 1
 146.666015625 268 l 2
 72.8232421875 268 14.666015625 322.154296875 14.666015625 400 c 2
 14.666015625 433.333984375 l 2
 14.666015625 519.6171875 93.9091796875 598.666015625 180 598.666015625 c 0
EndSplineSet
EndChar

StartChar: Colon
Encoding: 27 58 27
Width: 400
VWidth: 824
Flags: H
LayerCount: 2
Fore
SplineSet
14.666015625 348 m 2
 13.9306640625 347.999023438 13.333984375 347.40234375 13.333984375 346.666992188 c 2
 13.333984375 346.666015625 l 2
 13.333984375 320 l 1
 13.333984375 319.999023438 l 2
 13.333984375 319.263671875 13.9306640625 318.666992188 14.666015625 318.666015625 c 1
 41.333984375 318.666015625 l 2
 42.0693359375 318.666992188 42.666015625 319.263671875 42.666015625 319.999023438 c 2
 42.666015625 320 l 2
 42.666015625 346.666015625 l 1
 42.666015625 346.666992188 l 2
 42.666015625 347.40234375 42.0693359375 347.999023438 41.333984375 348 c 1
 14.666015625 348 l 2
16 345.333984375 m 1
 40 345.333984375 l 1
 40 321.333984375 l 1
 16 321.333984375 l 1
 16 345.333984375 l 1
14.666015625 80 m 2
 13.9306640625 79.9990234375 13.333984375 79.40234375 13.333984375 78.6669921875 c 2
 13.333984375 78.666015625 l 2
 13.333984375 52 l 1
 13.333984375 51.9990234375 l 2
 13.333984375 51.263671875 13.9306640625 50.6669921875 14.666015625 50.666015625 c 1
 41.333984375 50.666015625 l 2
 42.0693359375 50.6669921875 42.666015625 51.263671875 42.666015625 51.9990234375 c 2
 42.666015625 52 l 2
 42.666015625 78.666015625 l 1
 42.666015625 78.6669921875 l 2
 42.666015625 79.40234375 42.0693359375 79.9990234375 41.333984375 80 c 1
 14.666015625 80 l 2
16 77.333984375 m 1
 40 77.333984375 l 1
 40 53.333984375 l 1
 16 53.333984375 l 1
 16 77.333984375 l 1
EndSplineSet
EndChar

StartChar: Semi-Colon
Encoding: 28 59 28
Width: 400
VWidth: 824
Flags: H
LayerCount: 2
Fore
SplineSet
14.666015625 348 m 2
 13.9306640625 347.999023438 13.333984375 347.40234375 13.333984375 346.666992188 c 2
 13.333984375 346.666015625 l 2
 13.333984375 320 l 1
 13.333984375 319.999023438 l 2
 13.333984375 319.263671875 13.9306640625 318.666992188 14.666015625 318.666015625 c 1
 41.333984375 318.666015625 l 2
 42.0693359375 318.666992188 42.666015625 319.263671875 42.666015625 319.999023438 c 2
 42.666015625 320 l 2
 42.666015625 346.666015625 l 1
 42.666015625 346.666992188 l 2
 42.666015625 347.40234375 42.0693359375 347.999023438 41.333984375 348 c 1
 14.666015625 348 l 2
16 345.333984375 m 1
 40 345.333984375 l 1
 40 321.333984375 l 1
 16 321.333984375 l 1
 16 345.333984375 l 1
13.333984375 26.666015625 m 1
 13.3330078125 26.666015625 l 2
 12.59765625 26.666015625 12.0009765625 26.0693359375 12 25.333984375 c 1
 12 -1.333984375 l 2
 12.0009765625 -2.0693359375 12.59765625 -2.666015625 13.3330078125 -2.666015625 c 2
 13.333984375 -2.666015625 l 2
 38.26171875 -2.666015625 l 1
 12.025390625 -133.0703125 l 2
 12.0078125 -133.155273438 11.9990234375 -133.244140625 11.9990234375 -133.333984375 c 0
 11.9990234375 -133.98046875 12.4599609375 -134.518554688 13.0703125 -134.640625 c 0
 13.1552734375 -134.658203125 13.244140625 -134.666992188 13.333984375 -134.666992188 c 0
 13.98046875 -134.666992188 14.5185546875 -134.206054688 14.640625 -133.595703125 c 1
 14.6416015625 -133.596679688 41.111328125 -2.025390625 41.111328125 -2.025390625 c 2
 41.244140625 -1.826171875 41.3251953125 -1.587890625 41.333984375 -1.333984375 c 1
 41.3330078125 -1.3359375 41.333984375 25.333984375 41.333984375 25.333984375 c 2
 41.3330078125 26.0693359375 40.736328125 26.666015625 40.0009765625 26.666015625 c 2
 40 26.666015625 l 2
 13.333984375 26.666015625 l 1
14.666015625 24 m 1
 38.666015625 24 l 1
 38.666015625 0 l 1
 14.666015625 0 l 1
 14.666015625 24 l 1
EndSplineSet
EndChar

StartChar: Less Than
Encoding: 29 60 29
Width: 500
VWidth: 824
Flags: HW
LayerCount: 2
Fore
SplineSet
413.841796875 401.232421875 m 0
 413.685546875 401.296875 413.513671875 401.333007812 413.333984375 401.333007812 c 0
 413.153320312 401.333007812 412.978515625 401.295898438 412.8203125 401.23046875 c 1
 412.822265625 401.23046875 12.8203125 234.564453125 12.8203125 234.564453125 c 2
 12.3388671875 234.36328125 12 233.887695312 12 233.333007812 c 0
 12 232.779296875 12.3388671875 232.3046875 12.8203125 232.103515625 c 0
 12.8203125 232.102539062 412.8203125 65.435546875 412.8203125 65.435546875 c 2
 412.977539062 65.3701171875 413.151367188 65.333984375 413.33203125 65.333984375 c 0
 413.887695312 65.333984375 414.364257812 65.671875 414.564453125 66.154296875 c 0
 414.629882812 66.3115234375 414.666015625 66.484375 414.666015625 66.6650390625 c 0
 414.666015625 67.2197265625 414.328125 67.6953125 413.845703125 67.896484375 c 0
 413.84375 67.896484375 16.798828125 233.333984375 16.798828125 233.333984375 c 1
 413.845703125 398.76953125 l 2
 414.328125 398.969726562 414.66796875 399.446289062 414.66796875 400.000976562 c 0
 414.66796875 400.182617188 414.629882812 400.356445312 414.564453125 400.513671875 c 0
 414.428710938 400.838867188 414.16796875 401.09765625 413.841796875 401.232421875 c 0
EndSplineSet
EndChar

StartChar: Equal
Encoding: 30 61 30
Width: 400
VWidth: 824
Flags: H
LayerCount: 2
Fore
SplineSet
13.333984375 334.666015625 m 1
 13.3330078125 334.666015625 l 2
 12.59765625 334.666015625 12.0009765625 334.069335938 12 333.333984375 c 2
 12 333.333007812 l 2
 12 332.59765625 12.59765625 332 13.3330078125 332 c 2
 13.333984375 332 l 2
 413.333984375 332 l 2
 414.069335938 332.000976562 414.666015625 332.59765625 414.666015625 333.333007812 c 2
 414.666015625 333.333984375 l 2
 414.665039062 334.068359375 414.068359375 334.665039062 413.333984375 334.666015625 c 1
 13.333984375 334.666015625 l 1
13.333984375 134.666015625 m 1
 13.3330078125 134.666015625 l 2
 12.59765625 134.666015625 12.0009765625 134.069335938 12 133.333984375 c 2
 12 133.333007812 l 2
 12 132.59765625 12.59765625 132 13.3330078125 132 c 2
 13.333984375 132 l 2
 413.333984375 132 l 2
 414.069335938 132.000976562 414.666015625 132.59765625 414.666015625 133.333007812 c 2
 414.666015625 133.333984375 l 2
 414.665039062 134.068359375 414.068359375 134.665039062 413.333984375 134.666015625 c 1
 13.333984375 134.666015625 l 1
EndSplineSet
EndChar

StartChar: Greater Than
Encoding: 31 62 31
Width: 500
VWidth: 824
Flags: HW
LayerCount: 2
Fore
SplineSet
13.845703125 401.23046875 m 2
 13.6884765625 401.295898438 13.515625 401.33203125 13.3349609375 401.33203125 c 0
 12.7802734375 401.33203125 12.3046875 400.995117188 12.103515625 400.513671875 c 0
 12.037109375 400.35546875 12.0009765625 400.182617188 12.0009765625 400.000976562 c 0
 12.0009765625 399.446289062 12.3388671875 398.970703125 12.8203125 398.76953125 c 0
 12.822265625 398.76953125 409.8671875 233.333984375 409.8671875 233.333984375 c 1
 12.8203125 67.896484375 l 2
 12.3388671875 67.6953125 12 67.2197265625 12 66.666015625 c 0
 12 66.484375 12.0380859375 66.3115234375 12.103515625 66.154296875 c 0
 12.3046875 65.671875 12.7802734375 65.3330078125 13.3349609375 65.3330078125 c 0
 13.515625 65.3330078125 13.6884765625 65.3701171875 13.845703125 65.435546875 c 1
 13.845703125 65.43359375 413.845703125 232.103515625 413.845703125 232.103515625 c 2
 414.327148438 232.3046875 414.666015625 232.780273438 414.666015625 233.334960938 c 0
 414.666015625 233.888671875 414.327148438 234.36328125 413.845703125 234.564453125 c 0
 413.845703125 234.565429688 13.845703125 401.23046875 13.845703125 401.23046875 c 2
EndSplineSet
EndChar

StartChar: Questionmark
Encoding: 32 63 32
Width: 400
VWidth: 824
Flags: H
LayerCount: 2
Fore
SplineSet
180 601.333984375 m 0
 96.201171875 601.333984375 57.4501953125 588.141601562 12.8125 569.228515625 c 0
 12.333984375 569.025390625 11.9990234375 568.551757812 11.9990234375 568 c 0
 11.9990234375 567.81640625 12.0380859375 567.640625 12.10546875 567.48046875 c 0
 12.3076171875 567.001953125 12.7822265625 566.665039062 13.333984375 566.665039062 c 0
 13.5185546875 566.665039062 13.6943359375 566.704101562 13.853515625 566.771484375 c 0
 58.392578125 585.642578125 96.4794921875 598.666015625 180 598.666015625 c 0
 212.194335938 598.666015625 236.791015625 584.829101562 253.427734375 565.724609375 c 0
 270.064453125 546.620117188 278.666015625 522.212890625 278.666015625 501.333984375 c 0
 278.666015625 475.41796875 267.819335938 459.1875 254.044921875 445.044921875 c 0
 240.306640625 430.938476562 223.607421875 419.065429688 212.318359375 402.19921875 c 0
 178.650390625 368.517578125 145.333984375 326.295898438 145.333984375 281.333984375 c 2
 145.333984375 201.333984375 l 1
 145.333984375 201.333007812 l 2
 145.333984375 200.59765625 145.930664062 200.000976562 146.666015625 200 c 2
 146.666992188 200 l 2
 147.40234375 200 148 200.59765625 148 201.333007812 c 2
 148 201.333984375 l 2
 148 281.333984375 l 2
 148 325.002929688 180.75 366.865234375 214.275390625 400.390625 c 0
 214.337890625 400.453125 214.393554688 400.520507812 214.443359375 400.59375 c 0
 225.375 416.991210938 241.952148438 428.805664062 255.955078125 443.18359375 c 0
 269.958007812 457.561523438 281.333984375 474.666992188 281.333984375 501.333984375 c 0
 281.333984375 522.942382812 272.513671875 547.8671875 255.439453125 567.474609375 c 0
 238.365234375 587.08203125 212.9609375 601.333984375 180 601.333984375 c 0
133.333984375 28 m 1
 133.333007812 28 l 2
 132.59765625 28 132 27.40234375 132 26.6669921875 c 2
 132 26.666015625 l 2
 132 0 l 1
 132 -0.0009765625 l 2
 132 -0.736328125 132.59765625 -1.333984375 133.333007812 -1.333984375 c 2
 133.333984375 -1.333984375 l 2
 160 -1.333984375 l 1
 160.000976562 -1.333984375 l 2
 160.736328125 -1.333984375 161.333984375 -0.736328125 161.333984375 -0.0009765625 c 2
 161.333984375 0 l 2
 161.333984375 26.666015625 l 1
 161.333984375 26.6669921875 l 2
 161.333984375 27.40234375 160.736328125 28 160.000976562 28 c 2
 160 28 l 2
 133.333984375 28 l 1
134.666015625 25.333984375 m 1
 158.666015625 25.333984375 l 1
 158.666015625 1.333984375 l 1
 134.666015625 1.333984375 l 1
 134.666015625 25.333984375 l 1
EndSplineSet
EndChar

StartChar: At Sign
Encoding: 33 64 33
Width: 640
VWidth: 824
Flags: HW
LayerCount: 2
Fore
SplineSet
280 701.333984375 m 0
 145.295898438 701.333984375 78.037109375 635.930664062 44.7734375 570.60546875 c 0
 11.509765625 505.280273438 12 439.990234375 12 439.990234375 c 1
 12 133.333984375 l 2
 12 57.91796875 42.2060546875 -0.828125 87.482421875 -40.630859375 c 0
 132.758789062 -80.43359375 193.064453125 -101.333984375 253.333984375 -101.333984375 c 0
 254.069335938 -101.333007812 254.666015625 -100.736328125 254.666015625 -100.000976562 c 2
 254.666015625 -100 l 1
 254.666015625 -99.9990234375 l 2
 254.666015625 -99.263671875 254.069335938 -98.6669921875 253.333984375 -98.666015625 c 0
 193.680664062 -98.666015625 133.984375 -77.9599609375 89.2421875 -38.626953125 c 0
 44.5 0.7060546875 14.666015625 58.62890625 14.666015625 133.333984375 c 2
 14.666015625 440 l 2
 14.666015625 440.001953125 14.666015625 440.002929688 14.666015625 440.004882812 c 0
 14.666015625 440.006835938 14.666015625 440.008789062 14.666015625 440.009765625 c 2
 14.666015625 440.009765625 14.2177734375 504.719726562 47.150390625 569.39453125 c 0
 80.0830078125 634.069335938 146.157226562 698.666015625 280 698.666015625 c 0
 413.84375 698.666015625 479.918945312 634.190429688 512.8515625 569.63671875 c 0
 545.784179688 505.083007812 545.333984375 440.49609375 545.333984375 440.49609375 c 2
 545.333984375 440.494140625 545.333984375 440.493164062 545.333984375 440.491210938 c 0
 545.333984375 440.489257812 545.333984375 440.487304688 545.333984375 440.486328125 c 0
 545.333984375 200 l 2
 545.333984375 172.696289062 535.092773438 152.486328125 519.74609375 139.03125 c 0
 504.399414062 125.576171875 483.880859375 118.897460938 463.33984375 118.9921875 c 0
 442.798828125 119.086914062 422.2734375 125.954101562 406.921875 139.4609375 c 0
 391.5703125 152.967773438 381.333984375 173.084960938 381.333984375 200 c 2
 381.333984375 500 l 1
 381.333984375 500.000976562 l 2
 381.333984375 500.736328125 380.736328125 501.333984375 380.000976562 501.333984375 c 2
 380 501.333984375 l 2
 280.0234375 501.333984375 l 2
 251.302734375 501.8203125 225.986328125 487.418945312 207.8671875 467.490234375 c 0
 189.748046875 447.561523438 178.733398438 422.09375 178.666015625 400.00390625 c 0
 178.666015625 400.002929688 178.666015625 400.002929688 178.666015625 400.001953125 c 0
 178.666015625 400.000976562 178.666015625 400.000976562 178.666015625 400 c 0
 178.666015625 200 l 2
 178.666015625 172.33984375 191.34765625 151.528320312 210.259765625 137.8125 c 0
 229.171875 124.096679688 254.262695312 117.381835938 279.337890625 117.478515625 c 0
 304.413085938 117.575195312 329.501953125 124.484375 348.41015625 138.24609375 c 0
 364.73828125 150.129882812 376.37890625 167.22265625 379.263671875 189.228515625 c 1
 381.651367188 166.905273438 391.404296875 149.5625 405.16015625 137.458984375 c 0
 421.05859375 123.470703125 442.202148438 116.423828125 463.328125 116.326171875 c 0
 484.454101562 116.228515625 505.600585938 123.08203125 521.50390625 137.025390625 c 0
 537.407226562 150.96875 548 172.026367188 548 200 c 2
 548 440.4765625 l 1
 548 440.486328125 l 2
 548 440.514648438 548.483398438 505.66015625 515.2265625 570.849609375 c 0
 481.962890625 636.052734375 414.703125 701.333984375 280 701.333984375 c 0
279.9765625 498.666015625 m 2
 279.98046875 498.666015625 279.984375 498.666015625 279.98828125 498.666015625 c 0
 279.9921875 498.666015625 279.99609375 498.666015625 280 498.666015625 c 0
 378.666015625 498.666015625 l 1
 378.666015625 201.333984375 l 2
 377.930664062 201.333007812 377.333984375 200.736328125 377.333984375 200.000976562 c 2
 377.333984375 200 l 2
 377.333984375 173.540039062 365.181640625 153.751953125 346.83984375 140.40234375 c 0
 328.498046875 127.052734375 303.918945312 120.239257812 279.328125 120.14453125 c 0
 254.737304688 120.049804688 230.162109375 126.673828125 211.82421875 139.97265625 c 0
 193.486328125 153.271484375 181.333984375 173.150390625 181.333984375 200 c 2
 181.333984375 399.99609375 l 1
 181.333984375 400 l 2
 181.399414062 421.203125 192.123046875 446.2109375 209.83984375 465.697265625 c 0
 227.557617188 485.184570312 252.173828125 499.13671875 279.9765625 498.666015625 c 2
 279.9765625 498.666015625 l 2
EndSplineSet
EndChar

StartChar: A
Encoding: 34 65 34
Width: 500
VWidth: 824
Flags: HW
LayerCount: 2
Fore
SplineSet
61.3515625 161.890625 m 2
 60.3095703125 161.889648438 59.462890625 161.043945312 59.462890625 160.000976562 c 2
 59.462890625 160 l 1
 59.462890625 159.999023438 l 2
 59.462890625 158.956054688 60.3095703125 158.110351562 61.3515625 158.109375 c 1
 354.689453125 158.109375 l 2
 355.731445312 158.110351562 356.578125 158.956054688 356.578125 159.999023438 c 2
 356.578125 160 l 1
 356.578125 160.000976562 l 2
 356.578125 161.043945312 355.731445312 161.889648438 354.689453125 161.890625 c 1
 61.3515625 161.890625 l 2
208 601.888671875 m 1
 208 601.888671875 l 2
 207.166015625 601.888671875 206.458007812 601.34765625 206.20703125 600.59765625 c 0
 206.206054688 600.59765625 6.20703125 0.59765625 6.20703125 0.59765625 c 2
 6.14453125 0.41015625 6.1103515625 0.208984375 6.1103515625 0 c 0
 6.1103515625 -0.833984375 6.6513671875 -1.54296875 7.40234375 -1.79296875 c 0
 7.58984375 -1.85546875 7.791015625 -1.8896484375 8 -1.8896484375 c 0
 8.833984375 -1.8896484375 9.54296875 -1.3486328125 9.79296875 -0.59765625 c 0
 9.79296875 -0.5966796875 208 594.0234375 208 594.0234375 c 1
 406.20703125 -0.59765625 l 2
 406.45703125 -1.3486328125 407.166015625 -1.890625 408 -1.890625 c 0
 408.208984375 -1.890625 408.41015625 -1.85546875 408.59765625 -1.79296875 c 0
 409.348632812 -1.54296875 409.890625 -0.833984375 409.890625 0 c 0
 409.890625 0.208984375 409.85546875 0.41015625 409.79296875 0.59765625 c 1
 409.793945312 0.59765625 209.79296875 600.59765625 209.79296875 600.59765625 c 2
 209.541992188 601.34765625 208.833984375 601.888671875 208 601.888671875 c 1
 208 601.888671875 l 1
EndSplineSet
EndChar

StartChar: 
Encoding: 35 66 35
Width: 450
VWidth: 824
Flags: HW
LayerCount: 2
Fore
SplineSet
13.333984375 602.833984375 m 1
 13.3330078125 602.833984375 l 2
 11.7685546875 602.833984375 10.4990234375 601.564453125 10.498046875 600 c 1
 10.498046875 333.333984375 l 1
 10.498046875 0 l 2
 10.4990234375 -1.564453125 11.7685546875 -2.833984375 13.3330078125 -2.833984375 c 2
 13.333984375 -2.833984375 l 2
 207.5 -2.833984375 l 2
 207.50390625 -2.833984375 207.506835938 -2.833984375 207.510742188 -2.833984375 c 0
 207.514648438 -2.833984375 207.517578125 -2.833984375 207.521484375 -2.833984375 c 2
 207.521484375 -2.833984375 243.079101562 -2.5810546875 278.59375 18.814453125 c 0
 314.108398438 40.2099609375 349.567382812 83.0849609375 349.501953125 166.66796875 c 0
 349.436523438 250.368164062 308.598632812 293.275390625 267.935546875 314.6015625 c 0
 247.432617188 325.354492188 226.983398438 330.729492188 211.712890625 333.43359375 c 1
 223.997070312 335.767578125 239.318359375 339.920898438 254.806640625 347.68359375 c 0
 288.879882812 364.759765625 323.108398438 399.348632812 322.833984375 466.677734375 c 0
 322.560546875 533.904296875 289.703125 568.471679688 257.068359375 585.58203125 c 0
 224.43359375 602.692382812 191.923828125 602.833984375 191.923828125 602.833984375 c 2
 191.920898438 602.833984375 191.918945312 602.833984375 191.916015625 602.833984375 c 0
 191.913085938 602.833984375 191.911132812 602.833984375 191.908203125 602.833984375 c 0
 13.333984375 602.833984375 l 1
16.16796875 597.166015625 m 1
 191.892578125 597.166015625 l 1
 191.892578125 597.166015625 223.16015625 596.959960938 254.435546875 580.5625 c 0
 285.7109375 564.165039062 316.899414062 532.064453125 317.166015625 466.654296875 c 0
 317.432617188 401.231445312 284.994140625 369.154296875 252.265625 352.751953125 c 0
 219.553710938 336.358398438 186.700195312 336.16796875 186.666015625 336.16796875 c 2
 16.16796875 336.16796875 l 1
 16.16796875 597.166015625 l 1
16.16796875 330.498046875 m 1
 186.646484375 330.498046875 l 1
 186.646484375 330.498046875 225.99609375 330.193359375 265.30078125 309.580078125 c 0
 304.60546875 288.966796875 343.768554688 248.540039062 343.83203125 166.6640625 c 0
 343.895507812 84.6708984375 309.76953125 44.2138671875 275.66796875 23.669921875 c 0
 241.56640625 3.1259765625 207.4765625 2.833984375 207.4765625 2.833984375 c 1
 16.16796875 2.833984375 l 1
 16.16796875 330.498046875 l 1
EndSplineSet
EndChar

StartChar: 
Encoding: 36 67 36
Width: 380
VWidth: 824
Flags: HW
LayerCount: 2
Fore
SplineSet
146.666015625 602.833984375 m 1
 146.9296875 602.822265625 l 1
 146.9296875 602.822265625 96.5732421875 607.360351562 51.232421875 562.3828125 c 0
 5.8759765625 517.389648438 10.51171875 466.40234375 10.51171875 466.40234375 c 1
 10.498046875 466.666015625 l 1
 10.498046875 133.333984375 l 1
 10.513671875 133.62890625 l 1
 10.513671875 133.62890625 9.328125 121.989257812 13.724609375 104.611328125 c 0
 18.12109375 87.2333984375 28.0947265625 63.8662109375 50.224609375 39.794921875 c 0
 94.61328125 -8.48828125 146.869140625 -4.908203125 146.869140625 -4.908203125 c 1
 146.7109375 -4.9140625 l 1
 280.044921875 -2.833984375 l 2
 281.587890625 -2.8095703125 282.833984375 -1.548828125 282.833984375 0 c 0
 282.833984375 0.015625 282.833984375 0.029296875 282.833984375 0.044921875 c 0
 282.809570312 1.587890625 281.548828125 2.8330078125 280 2.8330078125 c 0
 279.984375 2.8330078125 279.969726562 2.833984375 279.955078125 2.833984375 c 0
 279.954101562 2.8330078125 146.623046875 0.75390625 146.623046875 0.75390625 c 2
 146.569335938 0.7529296875 146.517578125 0.7509765625 146.46484375 0.748046875 c 2
 146.46484375 0.748046875 97.2060546875 -2.9306640625 54.3984375 43.6328125 c 0
 32.9296875 66.984375 23.4140625 89.4248046875 19.220703125 106.001953125 c 0
 15.02734375 122.578125 16.15234375 133.0390625 16.15234375 133.0390625 c 2
 16.1630859375 133.13671875 16.16796875 133.233398438 16.16796875 133.333984375 c 0
 16.16796875 133.336914062 16.16796875 466.666015625 16.16796875 466.666015625 c 2
 16.16796875 466.668945312 16.16796875 466.671875 16.16796875 466.673828125 c 0
 16.16796875 466.76171875 16.1640625 466.845703125 16.15625 466.931640625 c 2
 16.15625 466.931640625 11.51171875 514.995117188 55.224609375 558.357421875 c 0
 98.9541015625 601.736328125 146.404296875 597.177734375 146.404296875 597.177734375 c 2
 146.490234375 597.169921875 146.577148438 597.166015625 146.6640625 597.166015625 c 0
 146.666015625 597.166015625 146.6640625 597.166015625 146.666015625 597.166015625 c 0
 146.668945312 597.166015625 280 597.166015625 280 597.166015625 c 2
 281.563476562 597.166015625 282.833984375 598.436523438 282.833984375 600 c 0
 282.833984375 601.563476562 281.563476562 602.833984375 280 602.833984375 c 1
 146.666015625 602.833984375 l 1
EndSplineSet
EndChar

StartChar: 
Encoding: 37 68 37
Width: 480
VWidth: 824
Flags: HW
LayerCount: 2
Fore
SplineSet
191.541015625 603.083984375 m 0
 184.391601562 603.282226562 180.265625 602.909179688 179.955078125 602.880859375 c 2
 13.333984375 602.880859375 l 1
 13.3330078125 602.880859375 l 2
 11.744140625 602.880859375 10.453125 601.58984375 10.453125 600.000976562 c 2
 10.453125 600 l 2
 10.466796875 599.963867188 10.482421875 599.926757812 10.498046875 599.890625 c 1
 10.498046875 599.891601562 10.498046875 0.140625 10.498046875 0.140625 c 2
 10.482421875 0.1064453125 10.4677734375 0.0703125 10.453125 0.03515625 c 0
 10.453125 0.0234375 10.453125 0.0107421875 10.453125 -0.0009765625 c 0
 10.453125 -1.5791015625 11.7255859375 -2.8623046875 13.298828125 -2.880859375 c 1
 13.2978515625 -2.8818359375 179.875 -4.912109375 179.875 -4.912109375 c 1
 179.875 -4.912109375 264.383789062 -8.990234375 310.681640625 39.76953125 c 0
 356.6796875 88.2138671875 351.759765625 166.158203125 351.72265625 166.740234375 c 2
 351.72265625 433.333984375 l 2
 351.80859375 434.53515625 356.435546875 502.741210938 303.470703125 555.92578125 c 0
 263.366210938 596.197265625 213.811523438 602.466796875 191.541015625 603.083984375 c 0
191.640625 597.333984375 m 1
 213.065429688 596.727539062 260.74609375 590.665039062 299.388671875 551.861328125 c 0
 350.94921875 500.086914062 345.970703125 433.548828125 345.970703125 433.548828125 c 2
 345.965820312 433.477539062 345.962890625 433.407226562 345.962890625 433.333984375 c 0
 345.962890625 433.33203125 345.962890625 166.666015625 345.962890625 166.666015625 c 2
 345.962890625 166.606445312 345.96484375 166.548828125 345.96875 166.490234375 c 2
 345.96875 166.490234375 350.375976562 89.9423828125 306.50390625 43.736328125 c 0
 262.758789062 -2.3359375 180.125 0.84375 180.125 0.84375 c 2
 180.094726562 0.8447265625 180.065429688 0.845703125 180.03515625 0.845703125 c 0
 180.034179688 0.845703125 16.16796875 2.84765625 16.16796875 2.84765625 c 1
 16.16796875 597.119140625 l 1
 180 597.119140625 l 2
 180.09375 597.119140625 180.18359375 597.124023438 180.275390625 597.1328125 c 2
 180.275390625 597.1328125 184.499023438 597.536132812 191.640625 597.333984375 c 1
 191.640625 597.333984375 l 1
EndSplineSet
EndChar

StartChar: 
Encoding: 38 69 38
Width: 360
VWidth: 824
Flags: HW
LayerCount: 2
Fore
SplineSet
13.333984375 602.833984375 m 1
 13.3330078125 602.833984375 l 2
 11.7685546875 602.833984375 10.4990234375 601.564453125 10.498046875 600 c 1
 10.498046875 333.333984375 l 1
 10.498046875 0 l 2
 10.4990234375 -1.564453125 11.7685546875 -2.833984375 13.3330078125 -2.833984375 c 2
 13.333984375 -2.833984375 l 2
 280 -2.833984375 l 2
 281.563476562 -2.833984375 282.833984375 -1.5634765625 282.833984375 0 c 0
 282.833984375 1.5634765625 281.563476562 2.833984375 280 2.833984375 c 1
 16.16796875 2.833984375 l 1
 16.16796875 330.498046875 l 1
 213.333984375 330.498046875 l 2
 214.8984375 330.498046875 216.16796875 331.768554688 216.16796875 333.333007812 c 2
 216.16796875 333.333984375 l 2
 216.16796875 334.897460938 214.897460938 336.16796875 213.333984375 336.16796875 c 1
 16.16796875 336.16796875 l 1
 16.16796875 597.166015625 l 1
 280 597.166015625 l 2
 281.563476562 597.166015625 282.833984375 598.436523438 282.833984375 600 c 0
 282.833984375 601.563476562 281.563476562 602.833984375 280 602.833984375 c 1
 13.333984375 602.833984375 l 1
EndSplineSet
EndChar

StartChar: 
Encoding: 39 70 39
Width: 400
VWidth: 824
Flags: HW
LayerCount: 2
Fore
SplineSet
13.333984375 602.833984375 m 1
 13.3330078125 602.833984375 l 2
 11.7685546875 602.833984375 10.4990234375 601.564453125 10.498046875 600 c 1
 10.498046875 333.333984375 l 1
 10.498046875 0 l 2
 10.498046875 -1.564453125 11.7685546875 -2.833984375 13.3330078125 -2.833984375 c 2
 13.333984375 -2.833984375 l 2
 14.8974609375 -2.833984375 16.16796875 -1.5634765625 16.16796875 0 c 1
 16.16796875 330.498046875 l 1
 280 330.498046875 l 2
 281.564453125 330.498046875 282.833984375 331.768554688 282.833984375 333.333007812 c 2
 282.833984375 333.333984375 l 2
 282.833984375 334.897460938 281.563476562 336.16796875 280 336.16796875 c 1
 16.16796875 336.16796875 l 1
 16.16796875 597.166015625 l 1
 280 597.166015625 l 2
 281.563476562 597.166015625 282.833984375 598.436523438 282.833984375 600 c 0
 282.833984375 601.563476562 281.563476562 602.833984375 280 602.833984375 c 1
 13.333984375 602.833984375 l 1
EndSplineSet
EndChar

StartChar: 
Encoding: 40 71 40
Width: 480
VWidth: 824
Flags: HW
LayerCount: 2
Fore
SplineSet
146.666015625 602.833984375 m 1
 146.9296875 602.822265625 l 1
 146.9296875 602.822265625 96.5732421875 607.360351562 51.232421875 562.3828125 c 0
 5.8759765625 517.389648438 10.51171875 466.40234375 10.51171875 466.40234375 c 1
 10.498046875 466.666015625 l 1
 10.498046875 133.333984375 l 1
 10.513671875 133.62890625 l 1
 10.513671875 133.62890625 9.328125 121.989257812 13.724609375 104.611328125 c 0
 18.12109375 87.2333984375 28.0947265625 63.8662109375 50.224609375 39.794921875 c 0
 94.61328125 -8.48828125 146.869140625 -4.908203125 146.869140625 -4.908203125 c 1
 146.6953125 -4.9140625 l 1
 346.6953125 -2.833984375 l 2
 348.24609375 -2.818359375 349.501953125 -1.5546875 349.501953125 0 c 1
 349.500976562 -0 349.501953125 333.333984375 349.501953125 333.333984375 c 2
 349.500976562 334.8984375 348.231445312 336.16796875 346.666992188 336.16796875 c 2
 346.666015625 336.16796875 l 2
 246.666015625 336.16796875 l 2
 245.102539062 336.16796875 243.83203125 334.897460938 243.83203125 333.333984375 c 2
 243.83203125 333.333007812 l 2
 243.83203125 331.768554688 245.1015625 330.498046875 246.666015625 330.498046875 c 1
 343.83203125 330.498046875 l 1
 343.83203125 2.8046875 l 1
 146.63671875 0.75390625 l 2
 146.578125 0.75390625 146.522460938 0.751953125 146.46484375 0.748046875 c 2
 146.46484375 0.748046875 97.2060546875 -2.9306640625 54.3984375 43.6328125 c 0
 32.9296875 66.984375 23.4140625 89.42578125 19.220703125 106.001953125 c 0
 15.02734375 122.578125 16.15234375 133.0390625 16.15234375 133.0390625 c 2
 16.1630859375 133.13671875 16.16796875 133.233398438 16.16796875 133.333984375 c 0
 16.16796875 133.336914062 16.16796875 466.666015625 16.16796875 466.666015625 c 2
 16.16796875 466.668945312 16.16796875 466.671875 16.16796875 466.673828125 c 0
 16.16796875 466.76171875 16.1640625 466.845703125 16.15625 466.931640625 c 2
 16.15625 466.931640625 11.51171875 514.995117188 55.224609375 558.357421875 c 0
 98.9541015625 601.736328125 146.404296875 597.177734375 146.404296875 597.177734375 c 2
 146.490234375 597.169921875 146.577148438 597.166015625 146.6640625 597.166015625 c 0
 146.666015625 597.166015625 146.6640625 597.166015625 146.666015625 597.166015625 c 0
 146.668945312 597.166015625 346.666015625 597.166015625 346.666015625 597.166015625 c 1
 346.666992188 597.166015625 l 2
 348.231445312 597.166015625 349.501953125 598.435546875 349.501953125 600 c 0
 349.501953125 601.564453125 348.231445312 602.833984375 346.666992188 602.833984375 c 2
 346.666015625 602.833984375 l 2
 146.666015625 602.833984375 l 1
EndSplineSet
EndChar

StartChar: 
Encoding: 41 72 41
Width: 450
VWidth: 824
Flags: HW
LayerCount: 2
Fore
SplineSet
13.333984375 602.833984375 m 2
 13.3330078125 602.833984375 l 2
 11.7685546875 602.833984375 10.498046875 601.564453125 10.498046875 600 c 1
 10.498046875 333.333984375 l 1
 10.498046875 0 l 2
 10.498046875 -1.564453125 11.7685546875 -2.833984375 13.3330078125 -2.833984375 c 2
 13.333984375 -2.833984375 l 2
 14.8974609375 -2.833984375 16.16796875 -1.5634765625 16.16796875 0 c 1
 16.16796875 330.498046875 l 1
 343.83203125 330.498046875 l 1
 343.83203125 0 l 2
 343.83203125 -1.5634765625 345.102539062 -2.833984375 346.666015625 -2.833984375 c 2
 346.666992188 -2.833984375 l 2
 348.231445312 -2.833984375 349.501953125 -1.564453125 349.501953125 0 c 1
 349.501953125 333.333984375 l 1
 349.501953125 600 l 2
 349.501953125 601.564453125 348.231445312 602.833984375 346.666992188 602.833984375 c 2
 346.666015625 602.833984375 l 2
 345.102539062 602.833984375 343.83203125 601.563476562 343.83203125 600 c 1
 343.83203125 336.16796875 l 1
 16.16796875 336.16796875 l 1
 16.16796875 600 l 2
 16.16796875 601.563476562 14.8974609375 602.833984375 13.333984375 602.833984375 c 2
EndSplineSet
EndChar

StartChar: 
Encoding: 42 73 42
Width: 260
VWidth: 824
Flags: HW
LayerCount: 2
Fore
SplineSet
13.333984375 602.833984375 m 1
 13.3330078125 602.833984375 l 2
 11.7685546875 602.833984375 10.498046875 601.564453125 10.498046875 600 c 0
 10.498046875 598.435546875 11.7685546875 597.166015625 13.3330078125 597.166015625 c 2
 13.333984375 597.166015625 l 2
 77.166015625 597.166015625 l 1
 77.166015625 2.833984375 l 1
 13.333984375 2.833984375 l 1
 13.3330078125 2.833984375 l 2
 11.7685546875 2.833984375 10.498046875 1.564453125 10.498046875 0 c 0
 10.498046875 -1.564453125 11.7685546875 -2.833984375 13.3330078125 -2.833984375 c 2
 13.333984375 -2.833984375 l 2
 146.666015625 -2.833984375 l 1
 146.666992188 -2.833984375 l 2
 148.231445312 -2.833984375 149.501953125 -1.564453125 149.501953125 0 c 0
 149.501953125 1.564453125 148.231445312 2.833984375 146.666992188 2.833984375 c 2
 146.666015625 2.833984375 l 2
 82.833984375 2.833984375 l 1
 82.833984375 597.166015625 l 1
 146.666015625 597.166015625 l 1
 146.666992188 597.166015625 l 2
 148.231445312 597.166015625 149.501953125 598.435546875 149.501953125 600 c 0
 149.501953125 601.564453125 148.231445312 602.833984375 146.666992188 602.833984375 c 2
 146.666015625 602.833984375 l 2
 80 602.833984375 l 1
 13.333984375 602.833984375 l 1
EndSplineSet
EndChar

StartChar: 
Encoding: 43 74 43
Width: 360
VWidth: 824
Flags: HW
LayerCount: 2
Fore
SplineSet
213.333984375 602.880859375 m 1
 213.333007812 602.880859375 l 2
 211.744140625 602.880859375 210.453125 601.58984375 210.453125 600.000976562 c 2
 210.453125 600 l 2
 210.453125 133.333984375 l 2
 210.453125 133.33203125 210.453125 133.329101562 210.453125 133.327148438 c 0
 210.453125 133.202148438 210.4609375 133.08203125 210.4765625 132.9609375 c 2
 210.4765625 132.9609375 211.780273438 123.296875 207.61328125 107.46875 c 0
 203.446289062 91.640625 193.791015625 69.923828125 171.607421875 46.560546875 c 0
 127.338867188 -0.0615234375 80.16796875 2.875 80.16796875 2.875 c 2
 80.111328125 2.87890625 80.056640625 2.880859375 80 2.880859375 c 0
 79.998046875 2.880859375 13.333984375 2.880859375 13.333984375 2.880859375 c 1
 13.3330078125 2.880859375 l 2
 11.744140625 2.880859375 10.453125 1.58984375 10.453125 0.0009765625 c 2
 10.453125 0 l 1
 10.453125 -0.0009765625 l 2
 10.453125 -1.58984375 11.744140625 -2.880859375 13.3330078125 -2.880859375 c 2
 13.333984375 -2.880859375 l 2
 80 -2.880859375 l 1
 79.83203125 -2.875 l 1
 79.83203125 -2.875 130.010742188 -5.615234375 175.78515625 42.59375 c 0
 198.623046875 66.646484375 208.788085938 89.3056640625 213.18359375 106.001953125 c 0
 217.579101562 122.698242188 216.189453125 133.705078125 216.189453125 133.705078125 c 1
 216.212890625 133.333984375 l 1
 216.212890625 600 l 1
 216.212890625 600.000976562 l 2
 216.212890625 601.58984375 214.922851562 602.879882812 213.333984375 602.880859375 c 1
 213.333984375 602.880859375 l 1
EndSplineSet
EndChar

StartChar: 
Encoding: 44 75 44
Width: 460
VWidth: 824
Flags: HW
LayerCount: 2
Fore
SplineSet
13.333984375 602.833984375 m 2
 13.3330078125 602.833984375 l 2
 11.7685546875 602.833984375 10.498046875 601.564453125 10.498046875 600 c 1
 10.498046875 0 l 2
 10.498046875 -1.564453125 11.7685546875 -2.833984375 13.3330078125 -2.833984375 c 2
 13.333984375 -2.833984375 l 2
 14.8974609375 -2.833984375 16.16796875 -1.5634765625 16.16796875 0 c 1
 16.16796875 238.888671875 l 1
 131.76171875 363.73046875 l 1
 344.216796875 -1.42578125 l 2
 344.708007812 -2.26953125 345.622070312 -2.8369140625 346.66796875 -2.8369140625 c 0
 347.186523438 -2.8369140625 347.673828125 -2.6923828125 348.091796875 -2.44921875 c 0
 348.936523438 -1.9580078125 349.50390625 -1.04296875 349.50390625 0.0029296875 c 0
 349.50390625 0.5205078125 349.360351562 1.0078125 349.1171875 1.42578125 c 1
 349.122070312 1.4248046875 135.7890625 368.080078125 135.7890625 368.080078125 c 1
 348.74609375 598.07421875 l 2
 349.213867188 598.580078125 349.500976562 599.255859375 349.500976562 599.999023438 c 0
 349.500976562 600.8203125 349.151367188 601.5625 348.591796875 602.080078125 c 0
 348.0859375 602.547851562 347.41015625 602.833984375 346.66796875 602.833984375 c 0
 346.630859375 602.833984375 346.594726562 602.833007812 346.55859375 602.83203125 c 0
 345.780273438 602.802734375 345.081054688 602.459960938 344.5859375 601.92578125 c 1
 344.587890625 601.924804688 16.16796875 247.232421875 16.16796875 247.232421875 c 1
 16.16796875 600 l 2
 16.16796875 601.563476562 14.8974609375 602.833984375 13.333984375 602.833984375 c 2
EndSplineSet
EndChar

StartChar: 
Encoding: 45 76 45
Width: 400
VWidth: 824
Flags: HW
LayerCount: 2
Fore
SplineSet
13.333984375 602.833984375 m 2
 13.3330078125 602.833984375 l 2
 11.7685546875 602.833984375 10.498046875 601.564453125 10.498046875 600 c 1
 10.498046875 0 l 2
 10.4990234375 -1.564453125 11.7685546875 -2.833984375 13.3330078125 -2.833984375 c 2
 13.333984375 -2.833984375 l 2
 280 -2.833984375 l 2
 281.563476562 -2.833984375 282.833984375 -1.5634765625 282.833984375 0 c 0
 282.833984375 1.5634765625 281.563476562 2.833984375 280 2.833984375 c 1
 16.16796875 2.833984375 l 1
 16.16796875 600 l 2
 16.16796875 601.563476562 14.8974609375 602.833984375 13.333984375 602.833984375 c 2
EndSplineSet
EndChar

StartChar: 
Encoding: 46 77 46
Width: 500
VWidth: 824
Flags: HW
LayerCount: 2
Fore
SplineSet
12.576171875 602.73046875 m 0
 11.37890625 602.399414062 10.4990234375 601.301757812 10.498046875 600 c 0
 10.4990234375 600 10.498046875 0 10.498046875 0 c 2
 10.498046875 -1.564453125 11.7685546875 -2.833984375 13.3330078125 -2.833984375 c 2
 13.333984375 -2.833984375 l 2
 14.8974609375 -2.833984375 16.16796875 -1.5634765625 16.16796875 0 c 1
 16.16796875 589.765625 l 1
 210.90234375 265.208984375 l 2
 211.3984375 264.3828125 212.302734375 263.830078125 213.334960938 263.830078125 c 0
 214.3671875 263.830078125 215.267578125 264.3828125 215.763671875 265.208984375 c 0
 215.767578125 265.208984375 410.498046875 589.765625 410.498046875 589.765625 c 1
 410.498046875 0 l 2
 410.498046875 -1.564453125 411.768554688 -2.833984375 413.333007812 -2.833984375 c 2
 413.333984375 -2.833984375 l 2
 414.897460938 -2.833984375 416.16796875 -1.5634765625 416.16796875 0 c 1
 416.16796875 600 l 2
 416.16796875 601.564453125 414.897460938 602.834960938 413.333007812 602.834960938 c 0
 412.30078125 602.834960938 411.3984375 602.28515625 410.90234375 601.458984375 c 0
 410.900390625 601.456054688 213.33203125 272.17578125 213.33203125 272.17578125 c 1
 15.763671875 601.458984375 l 2
 15.267578125 602.284179688 14.3642578125 602.836914062 13.33203125 602.836914062 c 0
 13.0693359375 602.836914062 12.8173828125 602.797851562 12.576171875 602.73046875 c 0
EndSplineSet
EndChar

StartChar: 
Encoding: 47 78 47
Width: 440
VWidth: 824
Flags: HW
LayerCount: 2
Fore
SplineSet
346.666015625 602.833984375 m 2
 345.102539062 602.833984375 343.83203125 601.563476562 343.83203125 600 c 1
 343.83203125 10.939453125 l 1
 15.810546875 601.376953125 l 2
 15.326171875 602.247070312 14.3974609375 602.836914062 13.3310546875 602.836914062 c 0
 11.7666015625 602.836914062 10.4990234375 601.564453125 10.498046875 600 c 1
 10.49609375 600.002929688 10.498046875 0 10.498046875 0 c 2
 10.498046875 -1.564453125 11.7685546875 -2.833984375 13.3330078125 -2.833984375 c 2
 13.333984375 -2.833984375 l 2
 14.8974609375 -2.833984375 16.16796875 -1.5634765625 16.16796875 0 c 1
 16.16796875 589.060546875 l 1
 344.189453125 -1.376953125 l 2
 344.673828125 -2.2470703125 345.602539062 -2.8369140625 346.668945312 -2.8369140625 c 0
 348.233398438 -2.8369140625 349.500976562 -1.564453125 349.501953125 0 c 1
 349.50390625 -0.0029296875 349.501953125 600 349.501953125 600 c 2
 349.501953125 601.564453125 348.231445312 602.833984375 346.666992188 602.833984375 c 2
 346.666015625 602.833984375 l 2
EndSplineSet
EndChar

StartChar: 
Encoding: 48 79 48
Width: 440
VWidth: 824
Flags: HW
LayerCount: 2
Fore
SplineSet
177.189453125 602.8125 m 1
 177.3046875 602.810546875 l 1
 177.3046875 602.810546875 110.344726562 605.541015625 59.44140625 551.88671875 c 0
 8.57421875 498.270507812 13.498046875 433.150390625 13.498046875 433.150390625 c 1
 13.490234375 433.36328125 l 1
 13.490234375 168.63671875 l 1
 13.494140625 168.8046875 l 1
 13.494140625 168.8046875 8.607421875 92.408203125 52.5703125 43.806640625 c 0
 96.654296875 -4.9287109375 177.25 -2.810546875 177.25 -2.810546875 c 1
 177.189453125 -2.8125 l 1
 182.8125 -2.8125 l 1
 182.751953125 -2.810546875 l 1
 182.751953125 -2.810546875 263.346679688 -4.9287109375 307.431640625 43.806640625 c 0
 351.368164062 92.37890625 346.5078125 166.810546875 346.5078125 166.810546875 c 1
 346.51171875 166.63671875 l 1
 346.51171875 433.36328125 l 1
 346.50390625 433.150390625 l 1
 346.50390625 433.150390625 351.427734375 498.270507812 300.560546875 551.88671875 c 0
 249.657226562 605.541015625 182.69921875 602.810546875 182.69921875 602.810546875 c 1
 182.8125 602.8125 l 1
 177.189453125 602.8125 l 1
177.07421875 597.189453125 m 1
 177.110351562 597.188476562 177.146484375 597.1875 177.182617188 597.1875 c 0
 177.185546875 597.1875 177.186523438 597.1875 177.189453125 597.1875 c 0
 177.19140625 597.1875 182.8125 597.1875 182.8125 597.1875 c 2
 182.815429688 597.1875 182.818359375 597.1875 182.821289062 597.1875 c 0
 182.857421875 597.1875 182.891601562 597.188476562 182.927734375 597.189453125 c 2
 182.927734375 597.189453125 247.333984375 599.817382812 296.48046875 548.015625 c 0
 345.663085938 496.17578125 340.896484375 433.576171875 340.896484375 433.576171875 c 2
 340.891601562 433.504882812 340.888671875 433.43359375 340.888671875 433.361328125 c 1
 340.888671875 433.36328125 l 1
 340.888671875 433.360351562 340.888671875 166.63671875 340.888671875 166.63671875 c 2
 340.888671875 166.577148438 340.890625 166.521484375 340.89453125 166.462890625 c 2
 340.89453125 166.462890625 345.125976562 93.861328125 303.26171875 47.580078125 c 0
 261.545898438 1.462890625 182.875 2.810546875 182.875 2.810546875 c 2
 182.853515625 2.8115234375 182.833984375 2.8125 182.8125 2.8125 c 0
 182.811523438 2.8125 177.189453125 2.8125 177.189453125 2.8125 c 2
 177.168945312 2.8125 177.149414062 2.8115234375 177.12890625 2.810546875 c 2
 177.12890625 2.810546875 98.4560546875 1.462890625 56.740234375 47.580078125 c 0
 14.90234375 93.83203125 19.109375 168.466796875 19.109375 168.466796875 c 2
 19.1123046875 168.516601562 19.11328125 168.567382812 19.11328125 168.618164062 c 0
 19.11328125 168.625 19.11328125 168.629882812 19.11328125 168.63671875 c 0
 19.11328125 168.639648438 19.11328125 433.36328125 19.11328125 433.36328125 c 2
 19.11328125 433.364257812 19.11328125 433.365234375 19.11328125 433.3671875 c 0
 19.11328125 433.438476562 19.1103515625 433.505859375 19.10546875 433.576171875 c 2
 19.10546875 433.576171875 14.3388671875 496.17578125 63.521484375 548.015625 c 0
 112.66796875 599.817382812 177.07421875 597.189453125 177.07421875 597.189453125 c 1
 177.07421875 597.189453125 l 1
EndSplineSet
EndChar

StartChar: 
Encoding: 49 80 49
Width: 420
VWidth: 824
Flags: HW
LayerCount: 2
Fore
SplineSet
13.333984375 602.833984375 m 1
 13.3330078125 602.833984375 l 2
 11.7685546875 602.833984375 10.4990234375 601.564453125 10.498046875 600 c 1
 10.498046875 266.53515625 l 1
 10.498046875 0 l 2
 10.498046875 -1.564453125 11.7685546875 -2.833984375 13.3330078125 -2.833984375 c 2
 13.333984375 -2.833984375 l 2
 14.8974609375 -2.833984375 16.16796875 -1.5634765625 16.16796875 0 c 1
 16.16796875 263.708984375 l 1
 181.861328125 263.958984375 l 1
 181.72265625 263.962890625 l 1
 181.72265625 263.962890625 223.55859375 261.950195312 265.4921875 282.150390625 c 0
 307.42578125 302.350585938 349.501953125 345.293945312 349.501953125 433.333984375 c 0
 349.501953125 521.393554688 306.46875 564.369140625 263.615234375 584.58984375 c 0
 220.76171875 604.811523438 178.015625 602.83203125 178.015625 602.83203125 c 1
 178.14453125 602.833984375 l 1
 13.333984375 602.833984375 l 1
178.271484375 597.16796875 m 1
 178.271484375 597.16796875 219.787109375 599.001953125 261.1953125 579.462890625 c 0
 302.603515625 559.923828125 343.83203125 519.56640625 343.83203125 433.333984375 c 0
 343.83203125 347.081054688 303.502929688 306.75390625 263.03125 287.2578125 c 0
 222.559570312 267.76171875 181.990234375 269.625 181.990234375 269.625 c 2
 181.943359375 269.627929688 181.8984375 269.62890625 181.8515625 269.62890625 c 0
 181.849609375 269.62890625 16.16796875 269.37890625 16.16796875 269.37890625 c 1
 16.16796875 597.166015625 l 1
 178.14453125 597.166015625 l 2
 178.151367188 597.166015625 178.157226562 597.166015625 178.1640625 597.166015625 c 0
 178.200195312 597.166015625 178.235351562 597.166992188 178.271484375 597.16796875 c 0
 178.2734375 597.16796875 178.271484375 597.16796875 178.271484375 597.16796875 c 1
EndSplineSet
EndChar

StartChar: 
Encoding: 50 81 50
Width: 460
VWidth: 824
Flags: HW
LayerCount: 2
Fore
SplineSet
174.328125 602.822265625 m 1
 160.815429688 602.611328125 103.981445312 598.833984375 59.44140625 551.88671875 c 0
 9.01953125 498.739257812 13.4091796875 434.477539062 13.490234375 433.353515625 c 2
 13.490234375 168.69921875 l 2
 13.453125 168.106445312 8.779296875 92.2177734375 52.5703125 43.806640625 c 0
 96.654296875 -4.9287109375 177.25 -2.810546875 177.25 -2.810546875 c 1
 177.189453125 -2.8125 l 1
 182.8125 -2.8125 l 1
 182.751953125 -2.810546875 l 1
 182.751953125 -2.810546875 263.34765625 -4.9287109375 307.431640625 43.806640625 c 0
 317.271484375 54.6845703125 324.559570312 66.87109375 330.107421875 79.216796875 c 1
 411.328125 -2.00390625 l 2
 411.840820312 -2.517578125 412.549804688 -2.8349609375 413.33203125 -2.8349609375 c 0
 414.115234375 -2.8349609375 414.82421875 -2.517578125 415.337890625 -2.00390625 c 0
 415.850585938 -1.4912109375 416.16796875 -0.7822265625 416.16796875 -0 c 0
 416.16796875 0.78125 415.850585938 1.4912109375 415.337890625 2.00390625 c 1
 415.337890625 2.0029296875 332.55078125 84.791015625 332.55078125 84.791015625 c 1
 349.051757812 125.57421875 346.540039062 166.266601562 346.51171875 166.705078125 c 2
 346.51171875 433.36328125 l 2
 346.595703125 434.540039062 350.961914062 498.76171875 300.560546875 551.88671875 c 0
 249.657226562 605.541015625 182.69921875 602.810546875 182.69921875 602.810546875 c 1
 182.8125 602.8125 l 1
 177.189453125 602.8125 l 1
 177.3046875 602.810546875 l 1
 177.3046875 602.810546875 176.258789062 602.852539062 174.328125 602.822265625 c 1
 174.328125 602.822265625 l 1
174.2109375 597.201171875 m 1
 176.068359375 597.23046875 177.07421875 597.189453125 177.07421875 597.189453125 c 2
 177.110351562 597.188476562 177.146484375 597.1875 177.182617188 597.1875 c 0
 177.185546875 597.1875 177.186523438 597.1875 177.189453125 597.1875 c 0
 177.19140625 597.1875 182.8125 597.1875 182.8125 597.1875 c 2
 182.815429688 597.1875 182.818359375 597.1875 182.821289062 597.1875 c 0
 182.857421875 597.1875 182.891601562 597.188476562 182.927734375 597.189453125 c 2
 182.927734375 597.189453125 247.333984375 599.817382812 296.48046875 548.015625 c 0
 345.662109375 496.17578125 340.896484375 433.576171875 340.896484375 433.576171875 c 2
 340.891601562 433.504882812 340.888671875 433.43359375 340.888671875 433.361328125 c 1
 340.888671875 433.36328125 l 1
 340.888671875 433.360351562 340.888671875 166.63671875 340.888671875 166.63671875 c 2
 340.888671875 166.577148438 340.890625 166.521484375 340.89453125 166.462890625 c 2
 340.89453125 166.462890625 343.049804688 127.99609375 328.126953125 89.21484375 c 1
 282.00390625 135.337890625 l 2
 281.491210938 135.850585938 280.782226562 136.16796875 280 136.16796875 c 0
 279.217773438 136.16796875 278.508789062 135.850585938 277.99609375 135.337890625 c 0
 277.482421875 134.825195312 277.165039062 134.116210938 277.165039062 133.333007812 c 0
 277.165039062 132.55078125 277.482421875 131.840820312 277.99609375 131.328125 c 1
 277.99609375 131.329101562 325.81640625 83.5078125 325.81640625 83.5078125 c 1
 320.407226562 70.9345703125 313.15625 58.5185546875 303.26171875 47.580078125 c 0
 261.545898438 1.462890625 182.875 2.810546875 182.875 2.810546875 c 2
 182.853515625 2.8115234375 182.833984375 2.8125 182.8125 2.8125 c 0
 182.811523438 2.8125 177.189453125 2.8125 177.189453125 2.8125 c 2
 177.168945312 2.8125 177.149414062 2.8115234375 177.12890625 2.810546875 c 2
 177.12890625 2.810546875 98.4560546875 1.462890625 56.740234375 47.580078125 c 0
 14.90234375 93.83203125 19.109375 168.466796875 19.109375 168.466796875 c 2
 19.1123046875 168.516601562 19.11328125 168.567382812 19.11328125 168.618164062 c 0
 19.11328125 168.625 19.11328125 168.629882812 19.11328125 168.63671875 c 0
 19.11328125 168.639648438 19.11328125 433.36328125 19.11328125 433.36328125 c 2
 19.11328125 433.364257812 19.11328125 433.365234375 19.11328125 433.3671875 c 0
 19.11328125 433.438476562 19.1103515625 433.505859375 19.10546875 433.576171875 c 2
 19.10546875 433.576171875 14.33984375 496.17578125 63.521484375 548.015625 c 0
 106.524414062 593.342773438 161.2109375 596.99609375 174.2109375 597.201171875 c 1
 174.2109375 597.201171875 l 1
EndSplineSet
EndChar

StartChar: 
Encoding: 51 82 51
Width: 420
VWidth: 824
Flags: HW
LayerCount: 2
Fore
SplineSet
13.333984375 602.833984375 m 1
 13.3330078125 602.833984375 l 2
 11.7685546875 602.833984375 10.4990234375 601.564453125 10.498046875 600 c 1
 10.498046875 266.53515625 l 1
 10.498046875 0 l 2
 10.498046875 -1.564453125 11.7685546875 -2.833984375 13.3330078125 -2.833984375 c 2
 13.333984375 -2.833984375 l 2
 14.8974609375 -2.833984375 16.16796875 -1.5634765625 16.16796875 0 c 1
 16.16796875 263.708984375 l 1
 181.861328125 263.958984375 l 1
 181.72265625 263.962890625 l 1
 181.72265625 263.962890625 193.557617188 263.49609375 210.759765625 265.9453125 c 1
 210.758789062 265.920898438 210.758789062 265.896484375 210.758789062 265.872070312 c 0
 210.758789062 265.708984375 210.772460938 265.553710938 210.798828125 265.3984375 c 0
 210.798828125 265.39453125 344.130859375 -1.267578125 344.130859375 -1.267578125 c 2
 344.595703125 -2.197265625 345.557617188 -2.8369140625 346.66796875 -2.8369140625 c 0
 347.122070312 -2.8369140625 347.552734375 -2.7255859375 347.93359375 -2.53515625 c 0
 348.86328125 -2.0703125 349.502929688 -1.1083984375 349.502929688 0.001953125 c 0
 349.502929688 0.4560546875 349.391601562 0.88671875 349.201171875 1.267578125 c 1
 349.206054688 1.2666015625 216.41015625 266.853515625 216.41015625 266.853515625 c 1
 230.814453125 269.313476562 248.051757812 273.749023438 265.4921875 282.150390625 c 0
 307.42578125 302.350585938 349.501953125 345.293945312 349.501953125 433.333984375 c 0
 349.501953125 521.393554688 306.46875 564.369140625 263.615234375 584.58984375 c 0
 220.76171875 604.810546875 178.015625 602.83203125 178.015625 602.83203125 c 1
 178.14453125 602.833984375 l 1
 13.333984375 602.833984375 l 1
178.271484375 597.16796875 m 1
 178.271484375 597.16796875 219.787109375 599.001953125 261.1953125 579.462890625 c 0
 302.603515625 559.923828125 343.83203125 519.56640625 343.83203125 433.333984375 c 0
 343.83203125 347.081054688 303.502929688 306.75390625 263.03125 287.2578125 c 0
 222.559570312 267.76171875 181.990234375 269.625 181.990234375 269.625 c 2
 181.943359375 269.627929688 181.8984375 269.62890625 181.8515625 269.62890625 c 0
 181.849609375 269.62890625 16.16796875 269.37890625 16.16796875 269.37890625 c 1
 16.16796875 597.166015625 l 1
 178.14453125 597.166015625 l 2
 178.151367188 597.166015625 178.157226562 597.166015625 178.1640625 597.166015625 c 0
 178.200195312 597.166015625 178.235351562 597.166992188 178.271484375 597.16796875 c 0
 178.2734375 597.16796875 178.271484375 597.16796875 178.271484375 597.16796875 c 1
EndSplineSet
EndChar

StartChar: 
Encoding: 52 83 52
Width: 440
VWidth: 824
Flags: HW
LayerCount: 2
Fore
SplineSet
180.056640625 602.833984375 m 1
 112.534179688 604.184570312 37.166015625 551.263671875 37.166015625 466.666015625 c 0
 37.166015625 382.083007812 112.0546875 344.13671875 112.0546875 344.13671875 c 1
 111.94921875 344.193359375 l 1
 278.615234375 250.859375 l 2
 278.682617188 250.821289062 278.752929688 250.786132812 278.82421875 250.75390625 c 2
 278.82421875 250.75390625 343.83203125 221.51171875 343.83203125 133.333984375 c 0
 343.83203125 89.3251953125 325.690429688 56.8857421875 300.296875 35.228515625 c 0
 274.903320312 13.5712890625 242.149414062 2.833984375 213.333984375 2.833984375 c 0
 172.739257812 2.833984375 124.631835938 24.2392578125 86.88671875 45.794921875 c 0
 49.1416015625 67.3505859375 21.751953125 88.89453125 21.751953125 88.89453125 c 2
 21.26953125 89.2744140625 20.662109375 89.5 20.0009765625 89.5 c 0
 19.09765625 89.5 18.291015625 89.080078125 17.771484375 88.419921875 c 0
 17.392578125 87.9375 17.166015625 87.330078125 17.166015625 86.669921875 c 0
 17.166015625 85.765625 17.587890625 84.958984375 18.248046875 84.439453125 c 2
 18.248046875 84.439453125 45.9443359375 62.6484375 84.076171875 40.87109375 c 0
 122.208007812 19.09375 170.76953125 -2.833984375 213.333984375 -2.833984375 c 0
 243.549804688 -2.833984375 277.4609375 8.302734375 303.9765625 30.916015625 c 0
 330.4921875 53.529296875 349.501953125 87.7578125 349.501953125 133.333984375 c 0
 349.501953125 224.325195312 281.17578125 255.912109375 281.17578125 255.912109375 c 1
 281.384765625 255.806640625 l 1
 114.71875 349.140625 l 2
 114.684570312 349.159179688 114.6484375 349.177734375 114.61328125 349.1953125 c 2
 114.61328125 349.1953125 42.833984375 385.42578125 42.833984375 466.666015625 c 0
 42.833984375 547.890625 115.466796875 598.455078125 179.943359375 597.166015625 c 0
 244.497070312 595.875 318.369140625 544.34765625 318.369140625 544.34765625 c 2
 318.830078125 544.0234375 319.390625 543.833984375 319.99609375 543.833984375 c 0
 320.956054688 543.833984375 321.805664062 544.306640625 322.318359375 545.037109375 c 0
 322.642578125 545.498046875 322.833007812 546.059570312 322.833007812 546.665039062 c 0
 322.833007812 547.624023438 322.360351562 548.473632812 321.630859375 548.986328125 c 2
 321.630859375 548.986328125 247.501953125 601.485351562 180.056640625 602.833984375 c 1
 180.056640625 602.833984375 l 1
EndSplineSet
EndChar

StartChar: 
Encoding: 53 84 53
Width: 400
VWidth: 824
Flags: HW
LayerCount: 2
Fore
SplineSet
13.333984375 602.833984375 m 1
 13.3330078125 602.833984375 l 2
 11.7685546875 602.833984375 10.498046875 601.564453125 10.498046875 600 c 0
 10.498046875 598.435546875 11.7685546875 597.166015625 13.3330078125 597.166015625 c 2
 13.333984375 597.166015625 l 2
 177.166015625 597.166015625 l 1
 177.166015625 0 l 2
 177.166015625 -1.5634765625 178.436523438 -2.833984375 180 -2.833984375 c 0
 181.563476562 -2.833984375 182.833984375 -1.5634765625 182.833984375 0 c 1
 182.833984375 597.166015625 l 1
 346.666015625 597.166015625 l 1
 346.666992188 597.166015625 l 2
 348.231445312 597.166015625 349.501953125 598.435546875 349.501953125 600 c 0
 349.501953125 601.564453125 348.231445312 602.833984375 346.666992188 602.833984375 c 2
 346.666015625 602.833984375 l 2
 13.333984375 602.833984375 l 1
EndSplineSet
EndChar

StartChar: 
Encoding: 54 85 54
Width: 440
VWidth: 824
Flags: HW
LayerCount: 2
Fore
SplineSet
346.666015625 602.8359375 m 2
 345.1015625 602.8359375 343.83203125 601.565429688 343.83203125 600.000976562 c 2
 343.83203125 600 l 2
 343.83203125 166.666015625 l 2
 343.83203125 166.65625 343.83203125 166.646484375 343.83203125 166.63671875 c 0
 343.83203125 166.627929688 343.83203125 166.619140625 343.83203125 166.609375 c 2
 343.83203125 166.609375 344.606445312 125.548828125 324.529296875 84.580078125 c 0
 304.452148438 43.611328125 264.0625 2.833984375 180 2.833984375 c 0
 95.9375 2.833984375 55.5478515625 43.611328125 35.470703125 84.580078125 c 0
 15.3935546875 125.548828125 16.16796875 166.609375 16.16796875 166.609375 c 2
 16.16796875 166.619140625 16.16796875 166.62890625 16.16796875 166.638671875 c 0
 16.16796875 166.647460938 16.16796875 166.65625 16.16796875 166.666015625 c 0
 16.16796875 166.666992188 16.16796875 600 16.16796875 600 c 2
 16.16796875 601.563476562 14.8974609375 602.833984375 13.333984375 602.833984375 c 2
 13.3330078125 602.833984375 l 2
 11.7685546875 602.833984375 10.498046875 601.564453125 10.498046875 600 c 1
 10.498046875 166.666015625 l 1
 10.5 166.72265625 l 1
 10.5 166.72265625 9.6181640625 124.450195312 30.37890625 82.0859375 c 0
 51.140625 39.7216796875 94.083984375 -2.833984375 180 -2.833984375 c 0
 265.916015625 -2.833984375 308.860351562 39.7216796875 329.62109375 82.0859375 c 0
 350.3828125 124.450195312 349.5 166.72265625 349.5 166.72265625 c 1
 349.501953125 166.666015625 l 1
 349.501953125 600 l 1
 349.501953125 600.000976562 l 2
 349.501953125 601.565429688 348.231445312 602.8359375 346.666992188 602.8359375 c 2
 346.666015625 602.8359375 l 2
 346.666015625 602.8359375 l 2
EndSplineSet
EndChar

StartChar: 
Encoding: 55 86 55
Width: 440
VWidth: 824
Flags: HW
LayerCount: 2
Fore
SplineSet
12.57421875 602.73046875 m 0
 11.3779296875 602.3984375 10.4990234375 601.30078125 10.4990234375 599.999023438 c 0
 10.4990234375 599.736328125 10.53515625 599.483398438 10.6015625 599.2421875 c 0
 10.6015625 599.241210938 177.26953125 -0.7578125 177.26953125 -0.7578125 c 2
 177.603515625 -1.9521484375 178.700195312 -2.830078125 180 -2.830078125 c 0
 181.30078125 -2.830078125 182.396484375 -1.9521484375 182.73046875 -0.7578125 c 0
 182.731445312 -0.7578125 349.3984375 599.2421875 349.3984375 599.2421875 c 2
 349.46484375 599.483398438 349.500976562 599.737304688 349.500976562 600 c 0
 349.500976562 601.301757812 348.622070312 602.3984375 347.42578125 602.73046875 c 0
 347.18359375 602.797851562 346.9296875 602.833984375 346.666015625 602.833984375 c 0
 345.364257812 602.833984375 344.267578125 601.954101562 343.935546875 600.7578125 c 0
 343.934570312 600.7578125 180 10.587890625 180 10.587890625 c 1
 16.064453125 600.7578125 l 2
 15.732421875 601.954101562 14.634765625 602.833007812 13.3330078125 602.833007812 c 0
 13.0693359375 602.833007812 12.81640625 602.797851562 12.57421875 602.73046875 c 0
EndSplineSet
EndChar

StartChar: 
Encoding: 56 87 56
Width: 620
VWidth: 824
Flags: HW
LayerCount: 2
Fore
SplineSet
12.71484375 602.765625 m 0
 11.4482421875 602.482421875 10.5 601.350585938 10.5 599.999023438 c 0
 10.5 599.787109375 10.5224609375 599.58203125 10.56640625 599.3828125 c 0
 10.568359375 599.380859375 143.900390625 2.06640625 143.900390625 2.06640625 c 2
 144.184570312 0.80078125 145.315429688 -0.146484375 146.666992188 -0.146484375 c 0
 147.915039062 -0.146484375 148.975585938 0.6611328125 149.353515625 1.783203125 c 0
 149.354492188 1.78515625 280.00390625 391.099609375 280.00390625 391.099609375 c 1
 410.646484375 2.873046875 l 2
 411.024414062 1.751953125 412.084960938 0.943359375 413.333984375 0.943359375 c 0
 414.685546875 0.943359375 415.81640625 1.8935546875 416.099609375 3.16015625 c 1
 416.100585938 3.158203125 549.43359375 599.380859375 549.43359375 599.380859375 c 2
 549.478515625 599.580078125 549.501953125 599.788085938 549.501953125 600.000976562 c 0
 549.501953125 601.352539062 548.551757812 602.482421875 547.28515625 602.765625 c 0
 547.084960938 602.810546875 546.877929688 602.833984375 546.665039062 602.833984375 c 0
 545.313476562 602.833984375 544.18359375 601.884765625 543.900390625 600.619140625 c 1
 543.8984375 600.62109375 412.78125 14.302734375 412.78125 14.302734375 c 1
 282.6875 400.904296875 l 2
 282.310546875 402.02734375 281.249023438 402.836914062 280 402.836914062 c 0
 278.75 402.836914062 277.689453125 402.026367188 277.3125 400.90234375 c 0
 277.310546875 400.90234375 147.216796875 13.234375 147.216796875 13.234375 c 1
 16.099609375 600.6171875 l 2
 15.81640625 601.883789062 14.6845703125 602.83203125 13.3330078125 602.83203125 c 0
 13.1201171875 602.83203125 12.9140625 602.810546875 12.71484375 602.765625 c 0
EndSplineSet
EndChar

StartChar: 
Encoding: 57 88 57
Width: 500
VWidth: 824
Flags: HW
LayerCount: 2
Fore
SplineSet
13.888671875 602.779296875 m 0
 13.7080078125 602.815429688 13.521484375 602.833984375 13.330078125 602.833984375 c 0
 12.7509765625 602.833984375 12.2109375 602.658203125 11.76171875 602.359375 c 0
 10.9990234375 601.8515625 10.49609375 600.983398438 10.49609375 599.998046875 c 0
 10.49609375 599.41796875 10.6748046875 598.876953125 10.974609375 598.427734375 c 1
 10.9697265625 598.428710938 209.92578125 300 209.92578125 300 c 1
 10.974609375 1.572265625 l 2
 10.6748046875 1.123046875 10.5 0.5830078125 10.5 0.0029296875 c 0
 10.5 -0.982421875 10.9990234375 -1.8515625 11.76171875 -2.359375 c 0
 12.2109375 -2.658203125 12.75 -2.8330078125 13.330078125 -2.8330078125 c 0
 14.314453125 -2.8330078125 15.18359375 -2.3349609375 15.69140625 -1.572265625 c 0
 15.6904296875 -1.5673828125 213.33203125 294.890625 213.33203125 294.890625 c 1
 410.974609375 -1.572265625 l 2
 411.482421875 -2.3349609375 412.350585938 -2.837890625 413.3359375 -2.837890625 c 0
 413.916015625 -2.837890625 414.45703125 -2.6591796875 414.90625 -2.359375 c 0
 415.668945312 -1.8505859375 416.170898438 -0.9833984375 416.170898438 0.0009765625 c 0
 416.170898438 0.5810546875 415.991210938 1.123046875 415.69140625 1.572265625 c 1
 415.696289062 1.5712890625 216.740234375 300 216.740234375 300 c 1
 415.69140625 598.427734375 l 2
 415.991210938 598.876953125 416.166015625 599.41796875 416.166015625 599.998046875 c 0
 416.166015625 600.982421875 415.668945312 601.850585938 414.90625 602.359375 c 0
 414.45703125 602.658203125 413.91796875 602.833007812 413.337890625 602.833007812 c 0
 413.146484375 602.833007812 412.958007812 602.815429688 412.77734375 602.779296875 c 0
 412.028320312 602.629882812 411.384765625 602.186523438 410.974609375 601.572265625 c 0
 410.975585938 601.569335938 213.33203125 305.109375 213.33203125 305.109375 c 1
 15.69140625 601.572265625 l 2
 15.28125 602.186523438 14.6376953125 602.629882812 13.888671875 602.779296875 c 0
EndSplineSet
EndChar

StartChar: 
Encoding: 58 89 58
Width: 450
VWidth: 824
Flags: HW
LayerCount: 2
Fore
SplineSet
13.798828125 602.796875 m 0
 13.646484375 602.822265625 13.490234375 602.834960938 13.3310546875 602.834960938 c 0
 12.7177734375 602.834960938 12.1494140625 602.638671875 11.685546875 602.306640625 c 0
 10.9658203125 601.791992188 10.49609375 600.950195312 10.49609375 599.999023438 c 0
 10.49609375 599.384765625 10.6953125 598.815429688 11.02734375 598.3515625 c 1
 11.0234375 598.352539062 210.498046875 319.091796875 210.498046875 319.091796875 c 1
 210.498046875 0 l 2
 210.498046875 -1.564453125 211.768554688 -2.833984375 213.333007812 -2.833984375 c 2
 213.333984375 -2.833984375 l 2
 214.897460938 -2.833984375 216.16796875 -1.5634765625 216.16796875 0 c 1
 216.16796875 319.08984375 l 1
 415.640625 598.3515625 l 2
 415.971679688 598.815429688 416.166992188 599.383789062 416.166992188 599.99609375 c 0
 416.166992188 600.948242188 415.701171875 601.791992188 414.98046875 602.306640625 c 0
 414.516601562 602.637695312 413.94921875 602.833007812 413.3359375 602.833007812 c 0
 412.384765625 602.833007812 411.541992188 602.368164062 411.02734375 601.6484375 c 0
 411.028320312 601.64453125 213.333984375 324.876953125 213.333984375 324.876953125 c 1
 15.640625 601.6484375 l 2
 15.2119140625 602.248046875 14.5556640625 602.670898438 13.798828125 602.796875 c 0
EndSplineSet
EndChar

StartChar: 
Encoding: 59 90 59
Width: 420
VWidth: 824
Flags: HW
LayerCount: 2
Fore
SplineSet
13.333984375 602.833984375 m 1
 13.3330078125 602.833984375 l 2
 11.7685546875 602.833984375 10.498046875 601.564453125 10.498046875 600 c 0
 10.498046875 598.435546875 11.7685546875 597.166015625 13.3330078125 597.166015625 c 2
 13.333984375 597.166015625 l 2
 341.849609375 597.166015625 l 1
 10.85546875 1.376953125 l 2
 10.6298828125 0.9697265625 10.5009765625 0.501953125 10.5009765625 0.00390625 c 0
 10.5009765625 -1.560546875 11.76953125 -2.833984375 13.333984375 -2.833984375 c 0
 13.3359375 -2.8310546875 346.666015625 -2.833984375 346.666015625 -2.833984375 c 1
 346.666992188 -2.833984375 l 2
 348.231445312 -2.833984375 349.501953125 -1.564453125 349.501953125 0 c 0
 349.501953125 1.564453125 348.231445312 2.833984375 346.666992188 2.833984375 c 2
 346.666015625 2.833984375 l 2
 18.150390625 2.833984375 l 1
 349.14453125 598.623046875 l 2
 349.370117188 599.030273438 349.499023438 599.498046875 349.499023438 599.99609375 c 0
 349.499023438 601.560546875 348.23046875 602.833984375 346.666015625 602.833984375 c 0
 346.6640625 602.831054688 13.333984375 602.833984375 13.333984375 602.833984375 c 1
EndSplineSet
EndChar

StartChar: L. Square Bracket
Encoding: 60 91 60
Width: 240
VWidth: 824
Flags: HW
LayerCount: 2
Fore
SplineSet
13.333984375 669.501953125 m 1
 13.3330078125 669.501953125 l 2
 11.7685546875 669.501953125 10.498046875 668.231445312 10.498046875 666.666992188 c 2
 10.498046875 666.666015625 l 2
 10.498046875 -66.666015625 l 1
 10.498046875 -66.6669921875 l 2
 10.498046875 -68.2314453125 11.7685546875 -69.501953125 13.3330078125 -69.501953125 c 2
 13.333984375 -69.501953125 l 2
 120 -69.501953125 l 2
 121.564453125 -69.501953125 122.833984375 -68.2314453125 122.833984375 -66.6669921875 c 2
 122.833984375 -66.666015625 l 2
 122.833984375 -65.1025390625 121.563476562 -63.83203125 120 -63.83203125 c 1
 16.16796875 -63.83203125 l 1
 16.16796875 663.83203125 l 1
 120 663.83203125 l 2
 121.563476562 663.83203125 122.833984375 665.102539062 122.833984375 666.666015625 c 2
 122.833984375 666.666992188 l 2
 122.833984375 668.231445312 121.564453125 669.501953125 120 669.501953125 c 1
 13.333984375 669.501953125 l 1
EndSplineSet
EndChar

StartChar: Back Slash
Encoding: 61 92 61
Width: 400
VWidth: 824
Flags: H
LayerCount: 2
Fore
SplineSet
12.365234375 669.330078125 m 0
 11.2763671875 668.934570312 10.498046875 667.889648438 10.498046875 666.665039062 c 0
 10.498046875 666.325195312 10.560546875 665.999023438 10.669921875 665.697265625 c 1
 10.66796875 665.697265625 277.3359375 -67.634765625 277.3359375 -67.634765625 c 2
 277.731445312 -68.7236328125 278.776367188 -69.501953125 280.000976562 -69.501953125 c 0
 280.340820312 -69.501953125 280.666992188 -69.439453125 280.96875 -69.330078125 c 0
 282.057617188 -68.9345703125 282.8359375 -67.8896484375 282.8359375 -66.6650390625 c 0
 282.8359375 -66.3251953125 282.7734375 -65.9990234375 282.6640625 -65.697265625 c 1
 282.666015625 -65.697265625 15.998046875 667.634765625 15.998046875 667.634765625 c 2
 15.6025390625 668.723632812 14.5576171875 669.501953125 13.3330078125 669.501953125 c 0
 12.9931640625 669.501953125 12.6669921875 669.439453125 12.365234375 669.330078125 c 0
EndSplineSet
EndChar

StartChar: R. Square Bracket
Encoding: 62 93 62
Width: 240
VWidth: 824
Flags: HW
LayerCount: 2
Fore
SplineSet
13.333984375 669.501953125 m 1
 13.3330078125 669.501953125 l 2
 11.7685546875 669.501953125 10.498046875 668.231445312 10.498046875 666.666992188 c 2
 10.498046875 666.666015625 l 2
 10.498046875 665.1015625 11.7685546875 663.83203125 13.3330078125 663.83203125 c 2
 13.333984375 663.83203125 l 2
 117.166015625 663.83203125 l 1
 117.166015625 -63.83203125 l 1
 13.333984375 -63.83203125 l 1
 13.3330078125 -63.83203125 l 2
 11.7685546875 -63.83203125 10.498046875 -65.1015625 10.498046875 -66.666015625 c 2
 10.498046875 -66.6669921875 l 2
 10.498046875 -68.2314453125 11.7685546875 -69.501953125 13.3330078125 -69.501953125 c 2
 13.333984375 -69.501953125 l 2
 120 -69.501953125 l 2
 121.564453125 -69.5009765625 122.833984375 -68.2314453125 122.833984375 -66.6669921875 c 2
 122.833984375 -66.666015625 l 2
 122.833984375 666.666015625 l 1
 122.833984375 666.666992188 l 2
 122.833984375 668.231445312 121.564453125 669.500976562 120 669.501953125 c 1
 13.333984375 669.501953125 l 1
EndSplineSet
EndChar

StartChar: Circumflex
Encoding: 63 94 63
Width: 400
VWidth: 824
Flags: H
LayerCount: 2
Fore
SplineSet
117.99609375 722.00390625 m 2
 11.328125 615.337890625 l 2
 10.814453125 614.825195312 10.4970703125 614.116210938 10.4970703125 613.333007812 c 0
 10.4970703125 612.55078125 10.814453125 611.840820312 11.328125 611.328125 c 0
 11.8408203125 610.814453125 12.5498046875 610.497070312 13.3330078125 610.497070312 c 0
 14.115234375 610.497070312 14.8251953125 610.814453125 15.337890625 611.328125 c 1
 15.3369140625 611.328125 120 715.9921875 120 715.9921875 c 1
 224.662109375 611.328125 l 2
 225.174804688 610.814453125 225.883789062 610.497070312 226.666992188 610.497070312 c 0
 227.44921875 610.497070312 228.159179688 610.814453125 228.671875 611.328125 c 0
 229.185546875 611.840820312 229.502929688 612.549804688 229.502929688 613.333007812 c 0
 229.502929688 614.115234375 229.185546875 614.825195312 228.671875 615.337890625 c 1
 228.671875 615.336914062 122.00390625 722.00390625 122.00390625 722.00390625 c 2
 121.491210938 722.516601562 120.782226562 722.833984375 120 722.833984375 c 0
 119.21875 722.833984375 118.508789062 722.516601562 117.99609375 722.00390625 c 2
EndSplineSet
EndChar

StartChar: Low Line
Encoding: 64 95 64
Width: 400
VWidth: 824
Flags: H
LayerCount: 2
Fore
SplineSet
13.333984375 -63.83203125 m 1
 13.3330078125 -63.83203125 l 2
 11.7685546875 -63.83203125 10.498046875 -65.1015625 10.498046875 -66.666015625 c 2
 10.498046875 -66.6669921875 l 2
 10.498046875 -68.2314453125 11.7685546875 -69.501953125 13.3330078125 -69.501953125 c 2
 13.333984375 -69.501953125 l 2
 280 -69.501953125 l 2
 281.564453125 -69.501953125 282.833984375 -68.2314453125 282.833984375 -66.6669921875 c 2
 282.833984375 -66.666015625 l 2
 282.833984375 -65.1025390625 281.563476562 -63.83203125 280 -63.83203125 c 1
 13.333984375 -63.83203125 l 1
EndSplineSet
EndChar

StartChar: Grave Accent
Encoding: 65 96 65
Width: 400
VWidth: 824
Flags: H
LayerCount: 2
Fore
SplineSet
12.83984375 696.125 m 0
 12.0859375 695.991210938 11.43359375 695.5625 11.01171875 694.958984375 c 0
 10.689453125 694.499023438 10.5009765625 693.939453125 10.5009765625 693.3359375 c 0
 10.5009765625 692.375 10.9755859375 691.524414062 11.70703125 691.01171875 c 0
 11.7109375 691.012695312 145.041015625 597.677734375 145.041015625 597.677734375 c 2
 145.500976562 597.356445312 146.060546875 597.166992188 146.663085938 597.166992188 c 0
 147.624023438 597.166992188 148.475585938 597.642578125 148.98828125 598.375 c 0
 149.310546875 598.834960938 149.499023438 599.39453125 149.499023438 599.998046875 c 0
 149.499023438 600.958984375 149.024414062 601.809570312 148.29296875 602.322265625 c 0
 148.2890625 602.321289062 14.958984375 695.65625 14.958984375 695.65625 c 2
 14.4990234375 695.977539062 13.939453125 696.166992188 13.3369140625 696.166992188 c 0
 13.1669921875 696.166992188 13.0009765625 696.153320312 12.83984375 696.125 c 0
EndSplineSet
EndChar

StartChar: 
Encoding: 66 97 66
Width: 400
VWidth: 824
Flags: HW
LayerCount: 2
Fore
SplineSet
46.666015625 402.833984375 m 2
 45.1025390625 402.833984375 43.83203125 401.563476562 43.83203125 400 c 0
 43.83203125 398.436523438 45.1025390625 397.166015625 46.666015625 397.166015625 c 1
 173.333984375 397.166015625 l 2
 173.3359375 397.166015625 173.337890625 397.166015625 173.340820312 397.166015625 c 0
 173.427734375 397.166015625 173.51171875 397.169921875 173.59765625 397.177734375 c 2
 173.59765625 397.177734375 181.481445312 397.956054688 194.26171875 394.208984375 c 0
 207.041992188 390.4609375 224.452148438 382.182617188 242.796875 363.837890625 c 0
 261.141601562 345.493164062 269.69140625 327.806640625 273.69921875 314.74609375 c 0
 277.70703125 301.685546875 277.169921875 293.5078125 277.169921875 293.5078125 c 2
 277.166992188 293.45703125 277.166015625 293.405273438 277.166015625 293.353515625 c 0
 277.166015625 293.345703125 277.166015625 293.341796875 277.166015625 293.333984375 c 0
 277.166015625 293.331054688 277.166015625 236.16796875 277.166015625 236.16796875 c 1
 133.333984375 236.16796875 l 2
 133.30078125 236.16796875 133.26953125 236.166992188 133.236328125 236.166015625 c 2
 133.236328125 236.166015625 102.09765625 235.12890625 71.162109375 219.271484375 c 0
 40.2265625 203.4140625 9.3095703125 172.162109375 10.5 113.275390625 c 0
 11.689453125 54.4267578125 42.6259765625 24.859375 73.01171875 10.681640625 c 0
 103.397460938 -3.49609375 133.392578125 -2.833984375 133.392578125 -2.833984375 c 1
 280 -2.833984375 l 2
 281.563476562 -2.8330078125 282.833007812 -1.5634765625 282.833984375 0 c 1
 282.833984375 233.333984375 l 1
 282.833984375 293.333984375 l 1
 282.830078125 293.16015625 l 1
 282.830078125 293.16015625 283.37109375 302.555664062 279.119140625 316.41015625 c 0
 274.8671875 330.264648438 265.818359375 348.833984375 246.806640625 367.845703125 c 0
 227.794921875 386.857421875 209.470703125 395.658203125 195.85546875 399.650390625 c 0
 182.240234375 403.642578125 173.068359375 402.822265625 173.068359375 402.822265625 c 1
 173.333984375 402.833984375 l 1
 46.666015625 402.833984375 l 2
133.40625 230.498046875 m 2
 277.166015625 230.498046875 l 1
 277.166015625 2.833984375 l 1
 133.333984375 2.833984375 l 2
 133.32421875 2.833984375 133.314453125 2.833984375 133.303710938 2.833984375 c 0
 133.293945312 2.833984375 133.28515625 2.833984375 133.275390625 2.833984375 c 2
 133.275390625 2.833984375 104.439453125 2.2734375 75.41015625 15.818359375 c 0
 46.380859375 29.36328125 17.318359375 56.4619140625 16.16796875 113.390625 c 0
 15.0185546875 170.280273438 44.0986328125 199.028320312 73.748046875 214.2265625 c 0
 103.361328125 229.40625 133.33203125 230.495117188 133.40625 230.498046875 c 2
EndSplineSet
EndChar

StartChar: 
Encoding: 67 98 67
Width: 400
VWidth: 824
Flags: H
LayerCount: 2
Fore
SplineSet
13.333984375 602.833984375 m 2
 13.3330078125 602.833984375 l 2
 11.7685546875 602.833984375 10.498046875 601.564453125 10.498046875 600 c 1
 10.498046875 400 l 1
 10.498046875 0 l 2
 10.4990234375 -1.564453125 11.7685546875 -2.833984375 13.3330078125 -2.833984375 c 2
 13.333984375 -2.833984375 l 2
 186.666015625 -2.833984375 l 1
 186.486328125 -2.828125 l 1
 186.486328125 -2.828125 223.864257812 -5.21484375 254.7734375 22.802734375 c 0
 285.90625 51.0234375 282.828125 93.53125 282.828125 93.53125 c 1
 282.833984375 93.333984375 l 1
 282.833984375 306.666015625 l 1
 282.8203125 306.3828125 l 1
 282.8203125 306.3828125 283.647460938 314.883789062 280.482421875 327.072265625 c 0
 277.317382812 339.260742188 270.153320312 355.384765625 254.361328125 371.17578125 c 0
 222.778320312 402.758789062 186.666015625 402.833984375 186.666015625 402.833984375 c 1
 16.16796875 402.833984375 l 1
 16.16796875 600 l 2
 16.16796875 601.563476562 14.8974609375 602.833984375 13.333984375 602.833984375 c 2
16.16796875 397.166015625 m 1
 186.666015625 397.166015625 l 1
 186.666015625 397.166015625 220.282226562 397.239257812 250.353515625 367.16796875 c 0
 265.389648438 352.131835938 272.046875 337.00390625 274.99609375 325.646484375 c 0
 277.9453125 314.2890625 277.1796875 306.951171875 277.1796875 306.951171875 c 2
 277.170898438 306.858398438 277.166015625 306.764648438 277.166015625 306.669921875 c 0
 277.166015625 306.66796875 277.166015625 306.66796875 277.166015625 306.666015625 c 0
 277.166015625 306.663085938 277.166015625 93.333984375 277.166015625 93.333984375 c 2
 277.166015625 93.330078125 277.166015625 93.3251953125 277.166015625 93.3212890625 c 0
 277.166015625 93.2587890625 277.16796875 93.1982421875 277.171875 93.13671875 c 2
 277.171875 93.13671875 279.853515625 53.1875 250.966796875 27.001953125 c 0
 221.856445312 0.6142578125 186.845703125 2.828125 186.845703125 2.828125 c 0
 186.78515625 2.83203125 186.727539062 2.833984375 186.666015625 2.833984375 c 0
 186.6640625 2.833984375 16.16796875 2.833984375 16.16796875 2.833984375 c 1
 16.16796875 397.166015625 l 1
EndSplineSet
EndChar

StartChar: 
Encoding: 68 99 68
Width: 400
VWidth: 824
Flags: H
LayerCount: 2
Fore
SplineSet
106.75 402.833984375 m 1
 106.75 402.833984375 70.6376953125 402.758789062 39.0546875 371.17578125 c 0
 23.263671875 355.384765625 16.0986328125 339.260742188 12.93359375 327.072265625 c 0
 9.7685546875 314.883789062 10.595703125 306.3828125 10.595703125 306.3828125 c 1
 10.58203125 306.666015625 l 1
 10.58203125 93.333984375 l 1
 10.587890625 93.53125 l 1
 10.587890625 93.53125 7.509765625 51.0234375 38.642578125 22.802734375 c 0
 69.5517578125 -5.21484375 106.9296875 -2.828125 106.9296875 -2.828125 c 1
 106.75 -2.833984375 l 1
 280.083984375 -2.833984375 l 2
 281.6484375 -2.833984375 282.91796875 -1.564453125 282.91796875 0 c 0
 282.91796875 1.5634765625 281.647460938 2.833984375 280.083984375 2.833984375 c 1
 106.75 2.833984375 l 2
 106.688476562 2.833984375 106.630859375 2.83203125 106.5703125 2.828125 c 2
 106.5703125 2.828125 71.5595703125 0.6142578125 42.44921875 27.001953125 c 0
 13.5625 53.1875 16.244140625 93.13671875 16.244140625 93.13671875 c 2
 16.2490234375 93.203125 16.251953125 93.2666015625 16.251953125 93.333984375 c 0
 16.251953125 93.3359375 16.251953125 306.666015625 16.251953125 306.666015625 c 2
 16.251953125 306.763671875 16.24609375 306.856445312 16.236328125 306.951171875 c 2
 16.236328125 306.951171875 15.47265625 314.2890625 18.421875 325.646484375 c 0
 21.37109375 337.00390625 28.0283203125 352.131835938 43.064453125 367.16796875 c 0
 73.1357421875 397.240234375 106.75 397.166015625 106.75 397.166015625 c 1
 280.083984375 397.166015625 l 2
 281.647460938 397.166015625 282.91796875 398.436523438 282.91796875 400 c 0
 282.91796875 401.563476562 281.647460938 402.833984375 280.083984375 402.833984375 c 1
 106.75 402.833984375 l 1
EndSplineSet
EndChar

StartChar: 
Encoding: 69 100 69
Width: 400
VWidth: 824
Flags: H
LayerCount: 2
Fore
SplineSet
280.083984375 602.833984375 m 2
 280.083007812 602.833984375 l 2
 278.518554688 602.833984375 277.248046875 601.564453125 277.248046875 600 c 1
 277.248046875 402.833984375 l 1
 106.75 402.833984375 l 1
 106.75 402.833984375 70.6376953125 402.758789062 39.0546875 371.17578125 c 0
 23.263671875 355.384765625 16.0986328125 339.260742188 12.93359375 327.072265625 c 0
 9.7685546875 314.883789062 10.595703125 306.3828125 10.595703125 306.3828125 c 1
 10.58203125 306.666015625 l 1
 10.58203125 93.333984375 l 1
 10.587890625 93.53125 l 1
 10.587890625 93.53125 7.509765625 51.0234375 38.642578125 22.802734375 c 0
 69.5517578125 -5.21484375 106.9296875 -2.828125 106.9296875 -2.828125 c 1
 106.75 -2.833984375 l 1
 280.083984375 -2.833984375 l 2
 281.647460938 -2.833984375 282.91796875 -1.5634765625 282.91796875 0 c 1
 282.91796875 400 l 1
 282.91796875 600 l 2
 282.91796875 601.563476562 281.647460938 602.833984375 280.083984375 602.833984375 c 2
106.75 397.166015625 m 1
 277.248046875 397.166015625 l 1
 277.248046875 2.833984375 l 1
 106.75 2.833984375 l 2
 106.688476562 2.833984375 106.630859375 2.83203125 106.5703125 2.828125 c 2
 106.5703125 2.828125 71.5595703125 0.6142578125 42.44921875 27.001953125 c 0
 13.5625 53.1875 16.244140625 93.13671875 16.244140625 93.13671875 c 2
 16.2490234375 93.203125 16.251953125 93.2666015625 16.251953125 93.333984375 c 0
 16.251953125 93.3359375 16.251953125 306.666015625 16.251953125 306.666015625 c 2
 16.251953125 306.763671875 16.24609375 306.856445312 16.236328125 306.951171875 c 2
 16.236328125 306.951171875 15.47265625 314.2890625 18.421875 325.646484375 c 0
 21.37109375 337.00390625 28.0283203125 352.131835938 43.064453125 367.16796875 c 0
 73.1357421875 397.240234375 106.75 397.166015625 106.75 397.166015625 c 1
EndSplineSet
EndChar

StartChar: 
Encoding: 70 101 70
Width: 400
VWidth: 824
Flags: H
LayerCount: 2
Fore
SplineSet
146.666015625 402.833984375 m 1
 80.2060546875 402.833984375 45.7978515625 368.603515625 28.66796875 334.609375 c 0
 11.5380859375 300.615234375 11.146484375 266.703125 11.146484375 266.703125 c 2
 11.146484375 266.697265625 11.146484375 266.690429688 11.146484375 266.684570312 c 0
 11.146484375 266.677734375 11.146484375 266.671875 11.146484375 266.666015625 c 0
 11.146484375 266.665039062 11.146484375 200 11.146484375 200 c 1
 11.146484375 106.666015625 l 1
 11.154296875 106.873046875 l 1
 11.154296875 106.873046875 8.1298828125 64.7626953125 42.30859375 30.583984375 c 0
 59.2578125 13.634765625 75.2421875 5.2587890625 87.046875 1.15625 c 0
 98.8515625 -2.9462890625 106.7421875 -2.78125 106.7421875 -2.78125 c 1
 280 -2.78125 l 2
 281.563476562 -2.78125 282.833984375 -1.5107421875 282.833984375 0.052734375 c 0
 282.833984375 1.6162109375 281.563476562 2.88671875 280 2.88671875 c 1
 106.666015625 2.88671875 l 2
 106.653320312 2.88671875 106.640625 2.88671875 106.627929688 2.88671875 c 0
 106.615234375 2.88671875 106.604492188 2.88671875 106.591796875 2.88671875 c 2
 106.591796875 2.88671875 99.955078125 2.669921875 88.908203125 6.509765625 c 0
 77.861328125 10.349609375 62.66796875 18.2421875 46.31640625 34.59375 c 0
 13.892578125 67.017578125 16.80859375 106.4609375 16.80859375 106.4609375 c 2
 16.8134765625 106.529296875 16.81640625 106.596679688 16.81640625 106.666015625 c 0
 16.81640625 106.668945312 16.81640625 197.166015625 16.81640625 197.166015625 c 1
 280 197.166015625 l 2
 281.563476562 197.166992188 282.833007812 198.436523438 282.833984375 200 c 1
 282.833984375 266.666015625 l 2
 282.833984375 266.674804688 282.833984375 266.68359375 282.833984375 266.692382812 c 0
 282.833984375 266.700195312 282.833984375 266.708007812 282.833984375 266.716796875 c 2
 282.833984375 266.716796875 282.27734375 300.62890625 264.984375 334.619140625 c 0
 247.69140625 368.609375 213.125976562 402.833984375 146.666015625 402.833984375 c 1
 146.666015625 402.833984375 l 1
146.666015625 397.166015625 m 0
 211.203125 397.166015625 243.307617188 364.724609375 259.931640625 332.048828125 c 0
 276.555664062 299.373046875 277.166015625 266.6171875 277.166015625 266.6171875 c 1
 277.166015625 202.833984375 l 1
 16.81640625 202.833984375 l 1
 16.81640625 266.630859375 l 1
 16.81640625 266.630859375 17.2666015625 299.38671875 33.73046875 332.05859375 c 0
 50.1943359375 364.73046875 82.12890625 397.166015625 146.666015625 397.166015625 c 0
EndSplineSet
EndChar

StartChar: 
Encoding: 71 102 71
Width: 280
VWidth: 824
Flags: HW
LayerCount: 2
Fore
SplineSet
172.49609375 602.99609375 m 1
 157.99609375 602.73828125 126.16015625 599.38671875 103.46875 576.6953125 c 0
 73.2138671875 546.440429688 77.173828125 499.7734375 77.173828125 499.7734375 c 1
 77.166015625 500 l 1
 77.166015625 402.833984375 l 1
 16.40625 402.833984375 l 1
 16.4052734375 402.833984375 l 2
 14.8408203125 402.833984375 13.5703125 401.564453125 13.5703125 400 c 0
 13.5703125 398.435546875 14.8408203125 397.166015625 16.4052734375 397.166015625 c 2
 16.40625 397.166015625 l 2
 77.166015625 397.166015625 l 1
 77.166015625 0 l 2
 77.166015625 -1.5634765625 78.4365234375 -2.833984375 80 -2.833984375 c 0
 81.5634765625 -2.833984375 82.833984375 -1.5634765625 82.833984375 0 c 1
 82.833984375 397.166015625 l 1
 213.333984375 397.166015625 l 2
 214.897460938 397.166015625 216.16796875 398.436523438 216.16796875 400 c 0
 216.16796875 401.563476562 214.897460938 402.833984375 213.333984375 402.833984375 c 1
 82.833984375 402.833984375 l 1
 82.833984375 500 l 2
 82.833984375 500.004882812 82.833984375 500.010742188 82.833984375 500.016601562 c 0
 82.833984375 500.087890625 82.8310546875 500.15625 82.826171875 500.2265625 c 2
 82.826171875 500.2265625 79.4794921875 544.690429688 107.4765625 572.6875 c 0
 135.473632812 600.684570312 179.76171875 597.17578125 179.76171875 597.17578125 c 2
 179.840820312 597.168945312 179.918945312 597.166015625 180 597.166015625 c 0
 180.001953125 597.166015625 213.333984375 597.166015625 213.333984375 597.166015625 c 2
 214.897460938 597.166015625 216.16796875 598.435546875 216.16796875 600 c 0
 216.16796875 601.563476562 214.897460938 602.833007812 213.333984375 602.833984375 c 1
 180 602.833984375 l 1
 180.23828125 602.82421875 l 1
 180.23828125 602.82421875 177.329101562 603.081054688 172.49609375 602.99609375 c 1
 172.49609375 602.99609375 l 1
EndSplineSet
EndChar

StartChar: 
Encoding: 72 103 72
Width: 400
VWidth: 824
Flags: H
LayerCount: 2
Fore
SplineSet
106.75 402.7890625 m 1
 106.9296875 402.783203125 l 1
 106.9296875 402.783203125 69.5517578125 405.169921875 38.642578125 377.15234375 c 0
 7.509765625 348.931640625 10.587890625 306.423828125 10.587890625 306.423828125 c 1
 10.58203125 306.62109375 l 1
 10.58203125 93.287109375 l 1
 10.595703125 93.572265625 l 1
 10.595703125 93.572265625 9.7685546875 85.0703125 12.93359375 72.8828125 c 0
 16.0986328125 60.6943359375 23.2626953125 44.5703125 39.0546875 28.779296875 c 0
 70.6376953125 -2.8037109375 106.75 -2.880859375 106.75 -2.880859375 c 1
 277.248046875 -2.880859375 l 1
 277.248046875 -100 l 2
 277.248046875 -100.048828125 277.249023438 -100.094726562 277.251953125 -100.142578125 c 2
 277.251953125 -100.142578125 279.108398438 -135.778320312 248.875 -166.01171875 c 0
 218.701171875 -196.185546875 180.125 -194.501953125 180.125 -194.501953125 c 2
 180.083007812 -194.5 180.04296875 -194.498046875 180 -194.498046875 c 0
 179.998046875 -194.498046875 53.333984375 -194.498046875 53.333984375 -194.498046875 c 1
 53.3330078125 -194.498046875 l 2
 51.7685546875 -194.498046875 50.498046875 -195.768554688 50.498046875 -197.333007812 c 2
 50.498046875 -197.333984375 l 2
 50.498046875 -198.8984375 51.7685546875 -200.16796875 53.3330078125 -200.16796875 c 2
 53.333984375 -200.16796875 l 2
 180 -200.16796875 l 1
 179.875 -200.16796875 l 1
 179.875 -200.16796875 220.922851562 -201.983398438 252.884765625 -170.021484375 c 0
 284.787109375 -138.119140625 282.9140625 -99.859375 282.9140625 -99.859375 c 1
 282.91796875 -100.001953125 l 1
 282.91796875 -0.046875 l 1
 282.91796875 399.953125 l 2
 282.91796875 401.516601562 281.647460938 402.786132812 280.083984375 402.787109375 c 1
 106.75 402.7890625 l 1
106.5703125 397.125 m 0
 106.630859375 397.12109375 106.688476562 397.119140625 106.75 397.119140625 c 0
 106.751953125 397.119140625 277.248046875 397.119140625 277.248046875 397.119140625 c 1
 277.248046875 2.7890625 l 1
 106.75 2.7890625 l 1
 106.75 2.7890625 73.1357421875 2.7158203125 43.064453125 32.787109375 c 0
 28.0283203125 47.8232421875 21.37109375 62.951171875 18.421875 74.30859375 c 0
 15.47265625 85.666015625 16.236328125 93.00390625 16.236328125 93.00390625 c 2
 16.24609375 93.09765625 16.251953125 93.1904296875 16.251953125 93.287109375 c 0
 16.251953125 93.2900390625 16.251953125 306.62109375 16.251953125 306.62109375 c 2
 16.251953125 306.688476562 16.2490234375 306.751953125 16.244140625 306.818359375 c 2
 16.244140625 306.818359375 13.5625 346.765625 42.44921875 372.951171875 c 0
 71.5595703125 399.338867188 106.5703125 397.125 106.5703125 397.125 c 0
EndSplineSet
EndChar

StartChar: 
Encoding: 73 104 73
Width: 400
VWidth: 824
Flags: H
LayerCount: 2
Fore
SplineSet
13.349609375 602.833984375 m 2
 11.7861328125 602.833984375 10.515625 601.563476562 10.515625 600 c 1
 10.515625 400.029296875 l 1
 10.515625 0.029296875 l 2
 10.515625 -1.5341796875 11.7861328125 -2.8046875 13.349609375 -2.8046875 c 2
 13.3505859375 -2.8046875 l 2
 14.9150390625 -2.8046875 16.185546875 -1.53515625 16.185546875 0.029296875 c 1
 16.185546875 397.1953125 l 1
 186.68359375 397.1953125 l 1
 186.68359375 397.1953125 220.296875 397.268554688 250.369140625 367.197265625 c 0
 265.405273438 352.161132812 272.0625 337.033203125 275.01171875 325.67578125 c 0
 277.9609375 314.318359375 277.197265625 306.98046875 277.197265625 306.98046875 c 2
 277.1875 306.885742188 277.181640625 306.791992188 277.181640625 306.6953125 c 0
 277.181640625 306.692382812 277.181640625 0 277.181640625 0 c 2
 277.181640625 -1.564453125 278.452148438 -2.833984375 280.016601562 -2.833984375 c 2
 280.017578125 -2.833984375 l 2
 281.581054688 -2.833984375 282.8515625 -1.5634765625 282.8515625 0 c 1
 282.8515625 306.6953125 l 1
 282.837890625 306.412109375 l 1
 282.837890625 306.412109375 283.665039062 314.913085938 280.5 327.1015625 c 0
 277.334960938 339.290039062 270.169921875 355.4140625 254.37890625 371.205078125 c 0
 222.795898438 402.788085938 186.68359375 402.86328125 186.68359375 402.86328125 c 1
 16.185546875 402.86328125 l 1
 16.185546875 600 l 2
 16.185546875 601.564453125 14.9150390625 602.833984375 13.3505859375 602.833984375 c 2
 13.349609375 602.833984375 l 2
EndSplineSet
EndChar

StartChar: 
Encoding: 74 105 74
Width: 180
VWidth: 824
Flags: HW
LayerCount: 2
Fore
SplineSet
13.333984375 600.556640625 m 1
 13.3330078125 600.556640625 l 2
 12.2900390625 600.556640625 11.443359375 599.709960938 11.443359375 598.666992188 c 2
 11.443359375 598.666015625 l 2
 11.443359375 558.666015625 l 2
 11.4443359375 557.623046875 12.291015625 556.77734375 13.3330078125 556.77734375 c 2
 13.333984375 556.77734375 l 2
 53.333984375 556.77734375 l 2
 54.3759765625 556.778320312 55.2216796875 557.624023438 55.22265625 558.666015625 c 1
 55.22265625 598.666015625 l 1
 55.22265625 598.666992188 l 2
 55.22265625 599.708984375 54.376953125 600.555664062 53.333984375 600.556640625 c 1
 13.333984375 600.556640625 l 1
15.22265625 596.77734375 m 1
 51.443359375 596.77734375 l 1
 51.443359375 560.556640625 l 1
 15.22265625 560.556640625 l 1
 15.22265625 596.77734375 l 1
33.333984375 401.890625 m 2
 33.3330078125 401.890625 l 2
 32.2900390625 401.890625 31.443359375 401.043945312 31.443359375 400.000976562 c 2
 31.443359375 400 l 2
 31.443359375 0 l 1
 31.443359375 -0.0009765625 l 2
 31.443359375 -1.0439453125 32.2900390625 -1.890625 33.3330078125 -1.890625 c 2
 33.333984375 -1.890625 l 2
 34.3759765625 -1.8896484375 35.22265625 -1.0439453125 35.22265625 -0.0009765625 c 2
 35.22265625 0 l 2
 35.22265625 400 l 1
 35.22265625 400.000976562 l 2
 35.22265625 401.043945312 34.3759765625 401.889648438 33.333984375 401.890625 c 2
EndSplineSet
EndChar

StartChar: 
Encoding: 75 106 75
Width: 300
VWidth: 824
Flags: HW
LayerCount: 2
Fore
SplineSet
126.666015625 600.556640625 m 2
 125.623046875 600.555664062 124.77734375 599.708984375 124.77734375 598.666992188 c 2
 124.77734375 598.666015625 l 2
 124.77734375 558.666015625 l 2
 124.778320312 557.624023438 125.624023438 556.778320312 126.666015625 556.77734375 c 1
 166.666015625 556.77734375 l 1
 166.666992188 556.77734375 l 2
 167.708984375 556.77734375 168.555664062 557.623046875 168.556640625 558.666015625 c 1
 168.556640625 598.666015625 l 1
 168.556640625 598.666992188 l 2
 168.556640625 599.709960938 167.709960938 600.556640625 166.666992188 600.556640625 c 2
 166.666015625 600.556640625 l 2
 126.666015625 600.556640625 l 2
128.556640625 596.77734375 m 1
 164.77734375 596.77734375 l 1
 164.77734375 560.556640625 l 1
 128.556640625 560.556640625 l 1
 128.556640625 596.77734375 l 1
146.666015625 401.890625 m 1
 145.624023438 401.889648438 144.77734375 401.043945312 144.77734375 400.000976562 c 2
 144.77734375 400 l 2
 144.77734375 -100 l 2
 144.77734375 -150.491210938 120.380859375 -174.29296875 95.85546875 -185.95703125 c 0
 71.330078125 -197.62109375 46.734375 -196.77734375 46.734375 -196.77734375 c 2
 46.72265625 -196.77734375 46.7109375 -196.77734375 46.69921875 -196.77734375 c 0
 46.6875 -196.77734375 46.677734375 -196.77734375 46.666015625 -196.77734375 c 0
 46.6650390625 -196.77734375 13.333984375 -196.77734375 13.333984375 -196.77734375 c 1
 13.3330078125 -196.77734375 l 2
 12.2900390625 -196.77734375 11.4443359375 -197.624023438 11.443359375 -198.666015625 c 2
 11.443359375 -198.666992188 l 2
 11.443359375 -199.709960938 12.2900390625 -200.556640625 13.3330078125 -200.556640625 c 2
 13.333984375 -200.556640625 l 2
 46.599609375 -200.556640625 l 1
 46.599609375 -200.556640625 72.00390625 -201.48828125 97.478515625 -189.373046875 c 0
 122.953125 -177.255859375 148.556640625 -151.723632812 148.556640625 -100 c 2
 148.556640625 400 l 1
 148.556640625 400.000976562 l 2
 148.556640625 401.043945312 147.709960938 401.890625 146.666992188 401.890625 c 2
 146.666015625 401.890625 l 1
EndSplineSet
EndChar

StartChar: 
Encoding: 76 107 76
Width: 400
VWidth: 824
Flags: H
LayerCount: 2
Fore
SplineSet
13.333984375 603.162109375 m 2
 13.3330078125 603.162109375 l 2
 12.2900390625 603.162109375 11.443359375 602.315429688 11.443359375 601.272460938 c 2
 11.443359375 601.271484375 l 2
 11.443359375 1.83203125 l 1
 11.443359375 1.8310546875 l 2
 11.443359375 0.7880859375 12.2900390625 -0.05859375 13.3330078125 -0.05859375 c 2
 13.333984375 -0.05859375 l 2
 14.3759765625 -0.0576171875 15.22265625 0.7880859375 15.22265625 1.8310546875 c 2
 15.22265625 1.83203125 l 2
 15.22265625 199.0546875 l 1
 134.25390625 288.328125 l 1
 278.30859375 -0.841796875 l 2
 278.618164062 -1.4638671875 279.259765625 -1.890625 280.000976562 -1.890625 c 0
 280.302734375 -1.890625 280.588867188 -1.8173828125 280.841796875 -1.69140625 c 0
 281.463867188 -1.3818359375 281.890625 -0.740234375 281.890625 0.0009765625 c 0
 281.890625 0.302734375 281.817382812 0.5888671875 281.69140625 0.841796875 c 1
 281.694335938 0.8408203125 137.328125 290.6328125 137.328125 290.6328125 c 1
 281.134765625 398.48828125 l 2
 281.594726562 398.833007812 281.891601562 399.3828125 281.891601562 400.000976562 c 0
 281.891601562 400.42578125 281.749023438 400.819335938 281.51171875 401.134765625 c 0
 281.217773438 401.526367188 280.774414062 401.798828125 280.267578125 401.87109375 c 0
 280.1796875 401.883789062 280.08984375 401.890625 279.998046875 401.890625 c 0
 279.573242188 401.890625 279.180664062 401.749023438 278.865234375 401.51171875 c 1
 278.865234375 401.512695312 15.22265625 203.779296875 15.22265625 203.779296875 c 1
 15.22265625 601.271484375 l 1
 15.22265625 601.272460938 l 2
 15.22265625 602.315429688 14.3759765625 603.161132812 13.333984375 603.162109375 c 2
EndSplineSet
EndChar

StartChar: 
Encoding: 77 108 77
Width: 220
VWidth: 824
Flags: HW
LayerCount: 2
Fore
SplineSet
13.333984375 601.890625 m 2
 13.3330078125 601.890625 l 2
 12.2900390625 601.890625 11.443359375 601.043945312 11.443359375 600.000976562 c 2
 11.443359375 600 l 2
 11.443359375 100 l 2
 11.443359375 47.5869140625 37.0361328125 21.7216796875 62.513671875 9.443359375 c 0
 87.9912109375 -2.8349609375 113.40234375 -1.888671875 113.40234375 -1.888671875 c 2
 114.413085938 -1.8525390625 115.22265625 -1.01953125 115.22265625 -0 c 0
 115.22265625 0.0234375 115.223632812 0.044921875 115.22265625 0.068359375 c 0
 115.186523438 1.0791015625 114.353515625 1.888671875 113.333984375 1.888671875 c 0
 113.310546875 1.888671875 113.2890625 1.8896484375 113.265625 1.888671875 c 2
 113.265625 1.888671875 88.6767578125 1.029296875 64.154296875 12.84765625 c 0
 39.6318359375 24.666015625 15.22265625 48.802734375 15.22265625 100 c 2
 15.22265625 600 l 1
 15.22265625 600.000976562 l 2
 15.22265625 601.043945312 14.3759765625 601.889648438 13.333984375 601.890625 c 2
EndSplineSet
EndChar

StartChar: 
Encoding: 78 109 78
Width: 540
VWidth: 824
Flags: HW
LayerCount: 2
Fore
SplineSet
317.5625 402.005859375 m 1
 314.780273438 402.006835938 313.19140625 401.884765625 313.19140625 401.884765625 c 1
 313.333984375 401.890625 l 1
 213.333984375 401.890625 l 1
 13.333984375 401.890625 l 1
 13.3330078125 401.890625 l 2
 12.2900390625 401.890625 11.443359375 401.043945312 11.443359375 400.000976562 c 2
 11.443359375 400 l 2
 11.443359375 0 l 1
 11.443359375 -0.0009765625 l 2
 11.443359375 -1.0439453125 12.2900390625 -1.890625 13.3330078125 -1.890625 c 2
 13.333984375 -1.890625 l 2
 14.3759765625 -1.8896484375 15.22265625 -1.0439453125 15.22265625 -0.0009765625 c 2
 15.22265625 0 l 2
 15.22265625 398.109375 l 1
 211.443359375 398.109375 l 1
 211.443359375 0 l 1
 211.443359375 -0.0009765625 l 2
 211.443359375 -1.0439453125 212.290039062 -1.890625 213.333007812 -1.890625 c 2
 213.333984375 -1.890625 l 2
 214.375976562 -1.8896484375 215.22265625 -1.0439453125 215.22265625 -0.0009765625 c 2
 215.22265625 0 l 2
 215.22265625 398.109375 l 1
 313.333984375 398.109375 l 2
 313.3828125 398.109375 313.428710938 398.111328125 313.4765625 398.115234375 c 2
 313.4765625 398.115234375 338.046875 399.9453125 362.5390625 388.591796875 c 0
 387.03125 377.23828125 411.443359375 353.060546875 411.443359375 299.7109375 c 2
 411.443359375 2.369140625 l 2
 411.444335938 1.3271484375 412.290039062 0.48046875 413.333007812 0.48046875 c 2
 413.333984375 0.48046875 l 2
 414.375976562 0.4814453125 415.221679688 1.3271484375 415.22265625 2.369140625 c 1
 415.22265625 299.7109375 l 2
 415.22265625 354.228515625 389.63671875 380.1953125 364.12890625 392.01953125 c 0
 344.998046875 400.887695312 325.91015625 402.002929688 317.5625 402.005859375 c 1
 317.5625 402.005859375 l 1
EndSplineSet
EndChar

StartChar: 
Encoding: 79 110 79
Width: 380
VWidth: 824
Flags: HW
LayerCount: 2
Fore
SplineSet
184.228515625 402.005859375 m 0
 181.446289062 402.006835938 179.857421875 401.884765625 179.857421875 401.884765625 c 1
 180 401.890625 l 1
 13.333984375 401.890625 l 1
 13.3330078125 401.890625 l 2
 12.2900390625 401.890625 11.443359375 401.043945312 11.443359375 400.000976562 c 2
 11.443359375 400 l 2
 11.443359375 0 l 1
 11.443359375 -0.0009765625 l 2
 11.443359375 -1.0439453125 12.2900390625 -1.890625 13.3330078125 -1.890625 c 2
 13.333984375 -1.890625 l 2
 14.3759765625 -1.8896484375 15.22265625 -1.0439453125 15.22265625 -0.0009765625 c 2
 15.22265625 0 l 2
 15.22265625 398.109375 l 1
 180 398.109375 l 2
 180.048828125 398.109375 180.094726562 398.111328125 180.142578125 398.115234375 c 2
 180.142578125 398.115234375 204.712890625 399.9453125 229.205078125 388.591796875 c 0
 253.697265625 377.23828125 278.109375 353.060546875 278.109375 299.7109375 c 2
 278.109375 0 l 1
 278.109375 -0.0009765625 l 2
 278.109375 -1.0439453125 278.956054688 -1.890625 279.999023438 -1.890625 c 2
 280 -1.890625 l 1
 280.000976562 -1.890625 l 2
 281.043945312 -1.890625 281.890625 -1.0439453125 281.890625 -0.0009765625 c 2
 281.890625 0 l 2
 281.890625 299.7109375 l 2
 281.890625 354.228515625 256.302734375 380.1953125 230.794921875 392.01953125 c 0
 211.6640625 400.887695312 192.576171875 402.002929688 184.228515625 402.005859375 c 0
EndSplineSet
EndChar

StartChar: 
Encoding: 80 111 80
Width: 400
VWidth: 824
Flags: H
LayerCount: 2
Fore
SplineSet
133.333984375 401.890625 m 2
 95.9287109375 401.890625 65.3798828125 390.424804688 44.234375 369.369140625 c 0
 23.0888671875 348.313476562 11.443359375 317.759765625 11.443359375 280 c 2
 11.443359375 120 l 2
 11.443359375 83.1298828125 23.1005859375 52.5888671875 44.2421875 31.3125 c 0
 65.3837890625 10.0361328125 95.93359375 -1.890625 133.333984375 -1.890625 c 2
 160 -1.890625 l 2
 234.555664062 -1.890625 281.890625 52.361328125 281.890625 120 c 2
 281.890625 280 l 2
 281.890625 318.129882812 270.342773438 348.686523438 249.23828125 369.65234375 c 0
 228.133789062 390.618164062 197.583984375 401.890625 160 401.890625 c 2
 133.333984375 401.890625 l 2
133.333984375 398.109375 m 2
 160 398.109375 l 2
 196.831054688 398.109375 226.282226562 387.131835938 246.57421875 366.97265625 c 0
 266.866210938 346.813476562 278.109375 317.370117188 278.109375 280 c 2
 278.109375 120 l 2
 278.109375 54.1103515625 232.733398438 1.890625 160 1.890625 c 2
 133.333984375 1.890625 l 2
 96.734375 1.890625 67.2822265625 13.4892578125 46.923828125 33.9765625 c 0
 26.5654296875 54.4638671875 15.22265625 83.923828125 15.22265625 120 c 2
 15.22265625 280 l 2
 15.22265625 316.985351562 26.55859375 346.43359375 46.90234375 366.69140625 c 0
 67.24609375 386.94921875 96.69921875 398.109375 133.333984375 398.109375 c 2
EndSplineSet
EndChar

StartChar: 
Encoding: 81 112 81
Width: 400
VWidth: 824
Flags: H
LayerCount: 2
Fore
SplineSet
13.333984375 402.7890625 m 1
 13.3330078125 402.7890625 l 2
 11.7685546875 402.7890625 10.4990234375 401.51953125 10.498046875 399.955078125 c 1
 10.498046875 -0.044921875 l 1
 10.498046875 -200.044921875 l 1
 10.498046875 -200.045898438 l 2
 10.498046875 -201.610351562 11.7685546875 -202.880859375 13.3330078125 -202.880859375 c 2
 13.333984375 -202.880859375 l 2
 14.8984375 -202.880859375 16.16796875 -201.610351562 16.16796875 -200.045898438 c 2
 16.16796875 -200.044921875 l 2
 16.16796875 -2.880859375 l 1
 186.666015625 -2.880859375 l 1
 186.666015625 -2.880859375 222.778320312 -2.8037109375 254.361328125 28.779296875 c 0
 270.15234375 44.5703125 277.317382812 60.6943359375 280.482421875 72.8828125 c 0
 283.647460938 85.0712890625 282.8203125 93.572265625 282.8203125 93.572265625 c 1
 282.833984375 93.287109375 l 1
 282.833984375 306.62109375 l 1
 282.828125 306.423828125 l 1
 282.828125 306.423828125 285.90625 348.931640625 254.7734375 377.15234375 c 0
 223.864257812 405.169921875 186.486328125 402.783203125 186.486328125 402.783203125 c 1
 186.666015625 402.7890625 l 1
 13.333984375 402.7890625 l 1
186.845703125 397.125 m 1
 186.845703125 397.125 221.856445312 399.338867188 250.966796875 372.951171875 c 0
 279.853515625 346.765625 277.171875 306.818359375 277.171875 306.818359375 c 2
 277.16796875 306.756835938 277.166015625 306.694335938 277.166015625 306.630859375 c 0
 277.166015625 306.626953125 277.166015625 306.625 277.166015625 306.62109375 c 0
 277.166015625 306.618164062 277.166015625 93.287109375 277.166015625 93.287109375 c 2
 277.166015625 93.28515625 277.166015625 93.2841796875 277.166015625 93.2822265625 c 0
 277.166015625 93.1875 277.170898438 93.0966796875 277.1796875 93.00390625 c 2
 277.1796875 93.00390625 277.9453125 85.666015625 274.99609375 74.30859375 c 0
 272.046875 62.951171875 265.389648438 47.8232421875 250.353515625 32.787109375 c 0
 220.28125 2.71484375 186.666015625 2.7890625 186.666015625 2.7890625 c 1
 16.16796875 2.7890625 l 1
 16.16796875 397.119140625 l 1
 186.666015625 397.119140625 l 2
 186.727539062 397.119140625 186.78515625 397.12109375 186.845703125 397.125 c 0
 186.84765625 397.125 186.845703125 397.125 186.845703125 397.125 c 1
EndSplineSet
EndChar

StartChar: 
Encoding: 82 113 82
Width: 400
VWidth: 824
Flags: H
LayerCount: 2
Fore
SplineSet
106.75 402.7890625 m 1
 106.9296875 402.783203125 l 1
 106.9296875 402.783203125 69.5517578125 405.169921875 38.642578125 377.15234375 c 0
 7.509765625 348.931640625 10.587890625 306.423828125 10.587890625 306.423828125 c 1
 10.58203125 306.62109375 l 1
 10.58203125 93.287109375 l 1
 10.595703125 93.572265625 l 1
 10.595703125 93.572265625 9.7685546875 85.0703125 12.93359375 72.8828125 c 0
 16.0986328125 60.6943359375 23.2626953125 44.5703125 39.0546875 28.779296875 c 0
 70.6376953125 -2.8037109375 106.75 -2.880859375 106.75 -2.880859375 c 1
 277.248046875 -2.880859375 l 1
 277.248046875 -200.044921875 l 1
 277.248046875 -200.045898438 l 2
 277.248046875 -201.610351562 278.518554688 -202.880859375 280.083007812 -202.880859375 c 2
 280.083984375 -202.880859375 l 2
 281.6484375 -202.880859375 282.91796875 -201.610351562 282.91796875 -200.045898438 c 2
 282.91796875 -200.044921875 l 2
 282.91796875 -0.044921875 l 1
 282.91796875 399.955078125 l 2
 282.916992188 401.518554688 281.647460938 402.788085938 280.083984375 402.7890625 c 1
 106.75 402.7890625 l 1
106.5703125 397.125 m 0
 106.630859375 397.12109375 106.688476562 397.119140625 106.75 397.119140625 c 0
 106.751953125 397.119140625 277.248046875 397.119140625 277.248046875 397.119140625 c 1
 277.248046875 2.7890625 l 1
 106.75 2.7890625 l 1
 106.75 2.7890625 73.1357421875 2.7158203125 43.064453125 32.787109375 c 0
 28.0283203125 47.8232421875 21.37109375 62.951171875 18.421875 74.30859375 c 0
 15.47265625 85.666015625 16.236328125 93.00390625 16.236328125 93.00390625 c 2
 16.24609375 93.09765625 16.251953125 93.1904296875 16.251953125 93.287109375 c 0
 16.251953125 93.2900390625 16.251953125 306.62109375 16.251953125 306.62109375 c 2
 16.251953125 306.688476562 16.2490234375 306.751953125 16.244140625 306.818359375 c 2
 16.244140625 306.818359375 13.5625 346.765625 42.44921875 372.951171875 c 0
 71.5595703125 399.338867188 106.5703125 397.125 106.5703125 397.125 c 0
EndSplineSet
EndChar

StartChar: 
Encoding: 83 114 83
Width: 320
VWidth: 824
Flags: HW
LayerCount: 2
Fore
SplineSet
13.333984375 401.890625 m 2
 13.3330078125 401.890625 l 2
 12.2900390625 401.890625 11.443359375 401.043945312 11.443359375 400.000976562 c 2
 11.443359375 400 l 2
 11.443359375 0 l 1
 11.443359375 -0.0009765625 l 2
 11.443359375 -1.0439453125 12.2900390625 -1.890625 13.3330078125 -1.890625 c 2
 13.333984375 -1.890625 l 2
 14.3759765625 -1.8896484375 15.22265625 -1.0439453125 15.22265625 -0.0009765625 c 2
 15.22265625 0 l 2
 15.22265625 332.744140625 l 1
 41.55859375 371.927734375 93.8984375 398.109375 146.666015625 398.109375 c 2
 211.443359375 398.109375 l 1
 211.443359375 333.333984375 l 1
 211.443359375 333.333007812 l 2
 211.443359375 332.290039062 212.290039062 331.443359375 213.333007812 331.443359375 c 2
 213.333984375 331.443359375 l 2
 214.375976562 331.444335938 215.22265625 332.290039062 215.22265625 333.333007812 c 2
 215.22265625 333.333984375 l 2
 215.22265625 400 l 1
 215.22265625 400.000976562 l 2
 215.22265625 401.04296875 214.376953125 401.889648438 213.333984375 401.890625 c 1
 146.666015625 401.890625 l 2
 94.654296875 401.890625 43.2392578125 377.236328125 15.22265625 339.287109375 c 1
 15.22265625 400 l 1
 15.22265625 400.000976562 l 2
 15.22265625 401.043945312 14.3759765625 401.889648438 13.333984375 401.890625 c 2
EndSplineSet
EndChar

StartChar: 
Encoding: 84 115 84
Width: 360
VWidth: 824
Flags: HW
LayerCount: 2
Fore
SplineSet
116.37890625 401.890625 m 2
 57.69140625 402.311523438 22.5732421875 370.079101562 13.56640625 333.30859375 c 0
 4.55859375 296.53515625 21.701171875 255.265625 65.98828125 238.236328125 c 2
 225.939453125 171.58984375 l 2
 225.950195312 171.584960938 225.959960938 171.581054688 225.970703125 171.576171875 c 0
 269.970703125 154.123046875 283.080078125 111.807617188 273.8203125 73.57421875 c 0
 264.560546875 35.3408203125 232.87890625 1.6396484375 186.677734375 1.890625 c 0
 186.67578125 1.890625 186.673828125 1.890625 186.671875 1.890625 c 0
 186.669921875 1.890625 186.66796875 1.890625 186.666015625 1.890625 c 0
 173.333984375 1.890625 l 2
 173.331054688 1.890625 173.328125 1.890625 173.325195312 1.890625 c 0
 173.322265625 1.890625 173.319335938 1.890625 173.31640625 1.890625 c 0
 112.693359375 1.345703125 62.4287109375 13.0693359375 14.115234375 35.052734375 c 0
 13.876953125 35.1611328125 13.61328125 35.220703125 13.3349609375 35.220703125 c 0
 12.5703125 35.220703125 11.9111328125 34.7685546875 11.61328125 34.115234375 c 0
 11.5048828125 33.876953125 11.4453125 33.61328125 11.4453125 33.3349609375 c 0
 11.4453125 32.5703125 11.8974609375 31.9111328125 12.55078125 31.61328125 c 0
 61.298828125 9.431640625 112.2109375 -2.4375 173.333984375 -1.890625 c 2
 186.666015625 -1.890625 l 2
 234.712890625 -2.146484375 267.88671875 33.0224609375 277.4921875 72.68359375 c 0
 287.098632812 112.34765625 273.081054688 156.956054688 227.36328125 175.08984375 c 2
 67.392578125 241.744140625 l 2
 67.376953125 241.750976562 67.361328125 241.7578125 67.345703125 241.763671875 c 0
 24.65234375 258.180664062 8.646484375 297.333007812 17.23828125 332.408203125 c 0
 25.830078125 367.483398438 59.052734375 398.525390625 116.36328125 398.109375 c 0
 116.366210938 398.109375 116.368164062 398.109375 116.37109375 398.109375 c 0
 116.374023438 398.109375 116.375976562 398.109375 116.37890625 398.109375 c 0
 142.283203125 398.109375 l 2
 149.4140625 398.109375 199.212890625 398.919921875 242.318359375 377.00390625 c 0
 242.575195312 376.873046875 242.866210938 376.799804688 243.173828125 376.799804688 c 0
 243.908203125 376.799804688 244.546875 377.216796875 244.859375 377.830078125 c 0
 244.990234375 378.086914062 245.063476562 378.376953125 245.063476562 378.684570312 c 0
 245.063476562 379.419921875 244.645507812 380.05859375 244.03125 380.37109375 c 0
 199.844726562 402.836914062 149.096679688 401.890625 142.283203125 401.890625 c 2
 116.392578125 401.890625 l 1
 116.37890625 401.890625 l 2
EndSplineSet
EndChar

StartChar: 
Encoding: 85 116 85
Width: 300
VWidth: 824
Flags: HW
LayerCount: 2
Fore
SplineSet
80 601.890625 m 1
 79.9990234375 601.890625 l 2
 78.9560546875 601.890625 78.109375 601.043945312 78.109375 600.000976562 c 2
 78.109375 600 l 2
 78.109375 401.890625 l 1
 13.333984375 401.890625 l 1
 13.3330078125 401.890625 l 2
 12.2900390625 401.890625 11.443359375 401.043945312 11.443359375 400.000976562 c 2
 11.443359375 400 l 1
 11.443359375 399.999023438 l 2
 11.443359375 398.956054688 12.2900390625 398.109375 13.3330078125 398.109375 c 2
 13.333984375 398.109375 l 2
 78.109375 398.109375 l 1
 78.109375 100 l 2
 78.109375 69.453125 86.578125 43.9189453125 103.658203125 26.044921875 c 0
 120.73828125 8.1708984375 146.32421875 -1.890625 180 -1.890625 c 2
 213.333984375 -1.890625 l 2
 214.375976562 -1.8896484375 215.22265625 -1.0439453125 215.22265625 -0.0009765625 c 2
 215.22265625 0 l 1
 215.22265625 0.0009765625 l 2
 215.22265625 1.0439453125 214.375976562 1.8896484375 213.333984375 1.890625 c 1
 180 1.890625 l 2
 147.073242188 1.890625 122.66015625 11.6298828125 106.390625 28.65625 c 0
 90.12109375 45.6826171875 81.890625 70.1494140625 81.890625 100 c 2
 81.890625 398.109375 l 1
 213.333984375 398.109375 l 2
 214.375976562 398.110351562 215.22265625 398.956054688 215.22265625 399.999023438 c 2
 215.22265625 400 l 1
 215.22265625 400.000976562 l 2
 215.22265625 401.043945312 214.375976562 401.889648438 213.333984375 401.890625 c 1
 81.890625 401.890625 l 1
 81.890625 600 l 1
 81.890625 600.000976562 l 2
 81.890625 601.043945312 81.0439453125 601.890625 80.0009765625 601.890625 c 2
 80 601.890625 l 1
EndSplineSet
EndChar

StartChar: 
Encoding: 86 117 86
Width: 400
VWidth: 824
Flags: HW
LayerCount: 2
Fore
SplineSet
13.333984375 402.005859375 m 2
 13.3330078125 402.005859375 l 2
 12.2900390625 402.005859375 11.443359375 401.159179688 11.443359375 400.116210938 c 2
 11.443359375 400.115234375 l 2
 11.443359375 100.404296875 l 2
 11.443359375 45.88671875 37.03125 19.919921875 62.5390625 8.095703125 c 0
 88.046875 -3.728515625 113.4765625 -1.767578125 113.4765625 -1.767578125 c 1
 113.333984375 -1.7734375 l 1
 280 -1.7734375 l 1
 280.000976562 -1.7734375 l 2
 281.04296875 -1.7734375 281.889648438 -0.927734375 281.890625 0.115234375 c 1
 281.890625 400.115234375 l 1
 281.890625 400.116210938 l 2
 281.890625 401.159179688 281.043945312 402.005859375 280.000976562 402.005859375 c 2
 280 402.005859375 l 1
 279.999023438 402.005859375 l 2
 278.956054688 402.005859375 278.109375 401.159179688 278.109375 400.116210938 c 2
 278.109375 400.115234375 l 2
 278.109375 2.005859375 l 1
 113.333984375 2.005859375 l 2
 113.28515625 2.005859375 113.239257812 2.00390625 113.19140625 2 c 2
 113.19140625 2 88.62109375 0.171875 64.12890625 11.525390625 c 0
 39.63671875 22.87890625 15.22265625 47.0546875 15.22265625 100.404296875 c 2
 15.22265625 400.115234375 l 1
 15.22265625 400.116210938 l 2
 15.22265625 401.159179688 14.3759765625 402.004882812 13.333984375 402.005859375 c 2
EndSplineSet
EndChar

StartChar: 
Encoding: 87 118 87
Width: 360
VWidth: 824
Flags: HW
LayerCount: 2
Fore
SplineSet
12.736328125 401.79296875 m 0
 11.9853515625 401.54296875 11.443359375 400.833984375 11.443359375 400 c 0
 11.443359375 399.791015625 11.478515625 399.58984375 11.541015625 399.40234375 c 1
 11.5400390625 399.40234375 144.740234375 -0.59765625 144.740234375 -0.59765625 c 2
 144.990234375 -1.3486328125 145.69921875 -1.890625 146.533203125 -1.890625 c 0
 147.368164062 -1.890625 148.076171875 -1.3486328125 148.326171875 -0.59765625 c 0
 148.327148438 -0.59765625 281.79296875 399.40234375 281.79296875 399.40234375 c 2
 281.85546875 399.58984375 281.889648438 399.791015625 281.889648438 400 c 0
 281.889648438 400.833984375 281.348632812 401.54296875 280.59765625 401.79296875 c 0
 280.41015625 401.85546875 280.208984375 401.889648438 280 401.889648438 c 0
 279.166015625 401.889648438 278.45703125 401.348632812 278.20703125 400.59765625 c 0
 278.20703125 400.596679688 146.53515625 5.9765625 146.53515625 5.9765625 c 1
 15.126953125 400.59765625 l 2
 14.876953125 401.348632812 14.16796875 401.890625 13.333984375 401.890625 c 0
 13.125 401.890625 12.923828125 401.85546875 12.736328125 401.79296875 c 0
EndSplineSet
EndChar

StartChar: 
Encoding: 88 119 88
Width: 500
VWidth: 824
Flags: HW
LayerCount: 2
Fore
SplineSet
413.734375 401.84765625 m 0
 413.604492188 401.875976562 413.469726562 401.890625 413.33203125 401.890625 c 0
 412.426757812 401.890625 411.669921875 401.250976562 411.486328125 400.400390625 c 1
 411.485351562 400.401367188 325.869140625 5.240234375 325.869140625 5.240234375 c 1
 214.9765625 200.931640625 l 2
 214.651367188 201.504882812 214.036132812 201.891601562 213.331054688 201.891601562 c 0
 212.591796875 201.891601562 211.953125 201.465820312 211.642578125 200.845703125 c 0
 211.640625 200.845703125 113.927734375 5.4140625 113.927734375 5.4140625 c 1
 15.166015625 400.458984375 l 2
 14.9609375 401.280273438 14.216796875 401.889648438 13.3330078125 401.889648438 c 0
 13.1748046875 401.889648438 13.021484375 401.87109375 12.875 401.833984375 c 0
 12.0537109375 401.62890625 11.4443359375 400.884765625 11.4443359375 400 c 0
 11.4443359375 399.841796875 11.462890625 399.688476562 11.5 399.541015625 c 0
 11.5009765625 399.540039062 111.5 -0.458984375 111.5 -0.458984375 c 2
 111.706054688 -1.2802734375 112.44921875 -1.888671875 113.333007812 -1.888671875 c 0
 114.073242188 -1.888671875 114.712890625 -1.4658203125 115.0234375 -0.845703125 c 0
 115.024414062 -0.8427734375 213.4375 195.982421875 213.4375 195.982421875 c 1
 325.0234375 -0.931640625 l 2
 325.348632812 -1.50390625 325.963867188 -1.890625 326.66796875 -1.890625 c 0
 327.573242188 -1.890625 328.329101562 -1.25 328.513671875 -0.400390625 c 1
 328.514648438 -0.4033203125 415.1796875 399.599609375 415.1796875 399.599609375 c 2
 415.208007812 399.729492188 415.22265625 399.864257812 415.22265625 400.001953125 c 0
 415.22265625 400.907226562 414.583984375 401.663085938 413.734375 401.84765625 c 0
EndSplineSet
EndChar

StartChar: 
Encoding: 89 120 89
Width: 400
VWidth: 824
Flags: H
LayerCount: 2
Fore
SplineSet
13.703125 401.853515625 m 0
 13.5830078125 401.876953125 13.458984375 401.889648438 13.33203125 401.889648438 c 0
 12.9453125 401.889648438 12.5849609375 401.772460938 12.28515625 401.572265625 c 0
 11.77734375 401.233398438 11.4423828125 400.655273438 11.4423828125 399.999023438 c 0
 11.4423828125 399.612304688 11.5615234375 399.250976562 11.76171875 398.951171875 c 1
 11.7587890625 398.952148438 144.396484375 200 144.396484375 200 c 1
 11.76171875 1.048828125 l 2
 11.5615234375 0.7490234375 11.4453125 0.388671875 11.4453125 0.001953125 c 0
 11.4453125 -0.654296875 11.77734375 -1.2333984375 12.28515625 -1.572265625 c 0
 12.5849609375 -1.7724609375 12.9453125 -1.888671875 13.33203125 -1.888671875 c 0
 13.98828125 -1.888671875 14.5673828125 -1.556640625 14.90625 -1.048828125 c 0
 14.9052734375 -1.0458984375 146.66796875 196.591796875 146.66796875 196.591796875 c 1
 278.427734375 -1.048828125 l 2
 278.766601562 -1.556640625 279.344726562 -1.8916015625 280.000976562 -1.8916015625 c 0
 280.387695312 -1.8916015625 280.749023438 -1.7724609375 281.048828125 -1.572265625 c 0
 281.556640625 -1.2333984375 281.891601562 -0.6552734375 281.891601562 0.0009765625 c 0
 281.891601562 0.3876953125 281.772460938 0.7490234375 281.572265625 1.048828125 c 1
 281.575195312 1.0478515625 148.9375 200 148.9375 200 c 1
 281.572265625 398.951171875 l 2
 281.772460938 399.250976562 281.888671875 399.611328125 281.888671875 399.998046875 c 0
 281.888671875 400.654296875 281.556640625 401.233398438 281.048828125 401.572265625 c 0
 280.749023438 401.772460938 280.388671875 401.888671875 280.001953125 401.888671875 c 0
 279.874023438 401.888671875 279.749023438 401.877929688 279.62890625 401.853515625 c 0
 279.129882812 401.75390625 278.701171875 401.458007812 278.427734375 401.048828125 c 0
 278.427734375 401.046875 146.66796875 203.408203125 146.66796875 203.408203125 c 1
 14.90625 401.048828125 l 2
 14.6328125 401.458984375 14.203125 401.75390625 13.703125 401.853515625 c 0
EndSplineSet
EndChar

StartChar: 
Encoding: 90 121 90
Width: 380
VWidth: 824
Flags: HW
LayerCount: 2
Fore
SplineSet
12.732421875 401.791015625 m 0
 11.9833984375 401.540039062 11.4423828125 400.83203125 11.4423828125 399.999023438 c 0
 11.4423828125 399.7890625 11.4775390625 399.586914062 11.541015625 399.3984375 c 1
 11.5400390625 399.3984375 144.142578125 4.203125 144.142578125 4.203125 c 2
 144.26953125 3.9794921875 144.4375 3.7861328125 144.640625 3.630859375 c 0
 144.643554688 3.6279296875 87.5546875 -166.029296875 87.5546875 -166.029296875 c 2
 84.861328125 -173.560546875 80.3662109375 -181.025390625 69.541015625 -186.853515625 c 0
 58.7158203125 -192.681640625 41.412109375 -196.77734375 13.333984375 -196.77734375 c 2
 13.3330078125 -196.77734375 l 2
 12.2900390625 -196.77734375 11.4443359375 -197.624023438 11.443359375 -198.666015625 c 2
 11.443359375 -198.666992188 l 2
 11.443359375 -199.709960938 12.2900390625 -200.556640625 13.3330078125 -200.556640625 c 2
 13.333984375 -200.556640625 l 2
 41.7783203125 -200.556640625 59.68359375 -196.453125 71.33203125 -190.181640625 c 0
 82.98046875 -183.91015625 88.2255859375 -175.375976562 91.11328125 -167.302734375 c 0
 91.1171875 -167.291992188 91.12109375 -167.280273438 91.125 -167.26953125 c 1
 281.791015625 399.396484375 l 2
 281.854492188 399.5859375 281.889648438 399.7890625 281.889648438 400 c 0
 281.889648438 400.83203125 281.3515625 401.5390625 280.603515625 401.791015625 c 0
 280.4140625 401.854492188 280.2109375 401.889648438 280 401.889648438 c 0
 279.16796875 401.889648438 278.4609375 401.3515625 278.208984375 400.603515625 c 0
 278.208984375 400.602539062 146.482421875 9.109375 146.482421875 9.109375 c 1
 15.125 400.6015625 l 2
 14.873046875 401.349609375 14.166015625 401.889648438 13.3330078125 401.889648438 c 0
 13.123046875 401.889648438 12.9208984375 401.854492188 12.732421875 401.791015625 c 0
EndSplineSet
EndChar

StartChar: 
Encoding: 91 122 91
Width: 400
VWidth: 824
Flags: H
LayerCount: 2
Fore
SplineSet
13.333984375 401.890625 m 1
 13.3330078125 401.890625 l 2
 12.2900390625 401.890625 11.443359375 401.043945312 11.443359375 400.000976562 c 2
 11.443359375 400 l 1
 11.443359375 399.999023438 l 2
 11.443359375 398.956054688 12.2900390625 398.109375 13.3330078125 398.109375 c 2
 13.333984375 398.109375 l 2
 276.46875 398.109375 l 1
 11.76171875 1.048828125 l 2
 11.5615234375 0.7490234375 11.4443359375 0.388671875 11.4443359375 0.0009765625 c 0
 11.4443359375 -1.0419921875 12.2919921875 -1.888671875 13.3349609375 -1.888671875 c 1
 13.333984375 -1.890625 l 1
 13.3349609375 -1.888671875 280 -1.890625 280 -1.890625 c 1
 280.000976562 -1.890625 l 2
 281.043945312 -1.890625 281.890625 -1.0439453125 281.890625 -0.0009765625 c 2
 281.890625 0 l 1
 281.890625 0.0009765625 l 2
 281.890625 1.0439453125 281.043945312 1.890625 280.000976562 1.890625 c 2
 280 1.890625 l 2
 16.865234375 1.890625 l 1
 281.572265625 398.951171875 l 2
 281.772460938 399.250976562 281.889648438 399.611328125 281.889648438 399.999023438 c 0
 281.889648438 401.041992188 281.041992188 401.888671875 279.999023438 401.888671875 c 1
 280 401.890625 l 1
 279.999023438 401.888671875 13.333984375 401.890625 13.333984375 401.890625 c 1
EndSplineSet
EndChar

StartChar: CurlL
Encoding: 92 123 92
Width: 400
VWidth: 824
Flags: H
LayerCount: 2
Fore
SplineSet
180 668.556640625 m 2
 119.766601562 668.556640625 78.109375 620.727539062 78.109375 566.666015625 c 2
 78.109375 400 l 2
 78.109375 384.373046875 66.8994140625 368.022460938 53 355.6953125 c 0
 39.1005859375 343.368164062 22.4033203125 335.22265625 13.333984375 335.22265625 c 0
 12.306640625 335.204101562 11.478515625 334.364257812 11.478515625 333.333007812 c 0
 11.478515625 332.301757812 12.306640625 331.461914062 13.333984375 331.443359375 c 0
 22.4306640625 331.443359375 39.1142578125 323.50390625 53.0078125 311.287109375 c 0
 66.9013671875 299.0703125 78.109375 282.744140625 78.109375 266.666015625 c 2
 78.109375 33.333984375 l 2
 78.109375 -21.1533203125 125.696289062 -68.556640625 180 -68.556640625 c 2
 226.666015625 -68.556640625 l 1
 226.666992188 -68.556640625 l 2
 227.709960938 -68.556640625 228.556640625 -67.7099609375 228.556640625 -66.6669921875 c 2
 228.556640625 -66.666015625 l 2
 228.555664062 -65.6240234375 227.709960938 -64.77734375 226.666992188 -64.77734375 c 2
 226.666015625 -64.77734375 l 2
 180 -64.77734375 l 2
 127.903320312 -64.77734375 81.890625 -18.9443359375 81.890625 33.333984375 c 2
 81.890625 266.666015625 l 2
 81.890625 284.470703125 69.8828125 301.479492188 55.501953125 314.125 c 0
 45.0634765625 323.303710938 33.4541015625 330.221679688 23.599609375 333.353515625 c 1
 33.4619140625 336.552734375 45.0693359375 343.611328125 55.5078125 352.869140625 c 0
 69.8828125 365.618164062 81.890625 382.6015625 81.890625 400 c 2
 81.890625 566.666015625 l 2
 81.890625 618.793945312 121.762695312 664.77734375 180 664.77734375 c 2
 226.666015625 664.77734375 l 1
 226.666992188 664.77734375 l 2
 227.709960938 664.77734375 228.555664062 665.624023438 228.556640625 666.666015625 c 2
 228.556640625 666.666992188 l 2
 228.556640625 667.709960938 227.709960938 668.556640625 226.666992188 668.556640625 c 2
 226.666015625 668.556640625 l 2
 180 668.556640625 l 2
EndSplineSet
EndChar

StartChar: Pipe
Encoding: 93 124 93
Width: 400
VWidth: 824
Flags: H
LayerCount: 2
Fore
SplineSet
26.666015625 701.890625 m 2
 25.6240234375 701.889648438 24.77734375 701.043945312 24.77734375 700.000976562 c 2
 24.77734375 700 l 2
 24.77734375 -100 l 1
 24.77734375 -100.000976562 l 2
 24.77734375 -101.043945312 25.6240234375 -101.889648438 26.666015625 -101.890625 c 2
 26.6669921875 -101.890625 l 2
 27.7099609375 -101.890625 28.556640625 -101.043945312 28.556640625 -100.000976562 c 2
 28.556640625 -100 l 2
 28.556640625 700 l 1
 28.556640625 700.000976562 l 2
 28.556640625 701.043945312 27.7099609375 701.890625 26.6669921875 701.890625 c 2
 26.666015625 701.890625 l 2
EndSplineSet
EndChar

StartChar: CurlR
Encoding: 94 125 94
Width: 340
VWidth: 824
Flags: HW
LayerCount: 2
Fore
SplineSet
13.359375 668.556640625 m 2
 12.3173828125 668.555664062 11.470703125 667.709960938 11.470703125 666.666992188 c 2
 11.470703125 666.666015625 l 2
 11.4716796875 665.624023438 12.3173828125 664.778320312 13.359375 664.77734375 c 1
 60.02734375 664.77734375 l 2
 118.264648438 664.77734375 158.13671875 618.793945312 158.13671875 566.666015625 c 2
 158.13671875 400 l 2
 158.13671875 382.6015625 170.142578125 365.618164062 184.517578125 352.869140625 c 0
 194.95703125 343.610351562 206.565429688 336.552734375 216.427734375 333.353515625 c 1
 206.573242188 330.221679688 194.961914062 323.303710938 184.5234375 314.125 c 0
 170.142578125 301.479492188 158.13671875 284.470703125 158.13671875 266.666015625 c 2
 158.13671875 33.333984375 l 2
 158.13671875 -18.9443359375 112.124023438 -64.77734375 60.02734375 -64.77734375 c 2
 13.359375 -64.77734375 l 2
 12.3173828125 -64.7783203125 11.4716796875 -65.6240234375 11.470703125 -66.666015625 c 2
 11.470703125 -66.6669921875 l 2
 11.470703125 -67.7099609375 12.3173828125 -68.5556640625 13.359375 -68.556640625 c 1
 60.02734375 -68.556640625 l 2
 114.331054688 -68.556640625 161.916015625 -21.1533203125 161.916015625 33.333984375 c 2
 161.916015625 266.666015625 l 2
 161.916015625 282.744140625 173.125976562 299.0703125 187.01953125 311.287109375 c 0
 200.913085938 323.50390625 217.596679688 331.443359375 226.693359375 331.443359375 c 1
 226.693359375 335.22265625 l 1
 217.624023438 335.22265625 200.924804688 343.368164062 187.025390625 355.6953125 c 0
 173.125976562 368.022460938 161.916015625 384.373046875 161.916015625 400 c 2
 161.916015625 566.666015625 l 2
 161.916015625 620.727539062 120.260742188 668.556640625 60.02734375 668.556640625 c 2
 13.359375 668.556640625 l 2
EndSplineSet
EndChar

StartChar: Tilde
Encoding: 95 126 95
Width: 400
VWidth: 824
Flags: H
LayerCount: 2
Fore
SplineSet
279.462890625 268.478515625 m 0
 278.977539062 268.334960938 278.575195312 268.004882812 278.337890625 267.568359375 c 2
 278.337890625 267.568359375 262.923828125 239.260742188 238.951171875 221.138671875 c 0
 226.96484375 212.078125 212.94921875 205.619140625 197.68359375 206.265625 c 0
 182.41796875 206.912109375 165.6875 214.603515625 148.083984375 234.58203125 c 0
 130.009765625 255.094726562 112.234375 263.482421875 95.810546875 264.177734375 c 0
 79.38671875 264.873046875 64.529296875 257.9375 52.1015625 248.54296875 c 0
 27.24609375 229.752929688 11.671875 200.900390625 11.671875 200.900390625 c 2
 11.5263671875 200.6328125 11.4443359375 200.326171875 11.4443359375 200.000976562 c 0
 11.4443359375 199.283203125 11.841796875 198.658203125 12.431640625 198.337890625 c 0
 12.69921875 198.193359375 13.0048828125 198.110351562 13.330078125 198.110351562 c 0
 14.048828125 198.110351562 14.6748046875 198.508789062 14.994140625 199.099609375 c 2
 14.994140625 199.099609375 30.408203125 227.405273438 54.380859375 245.52734375 c 0
 66.3671875 254.587890625 80.384765625 261.046875 95.650390625 260.400390625 c 0
 110.916015625 259.75390625 127.64453125 252.0625 145.248046875 232.083984375 c 0
 163.322265625 211.571289062 181.099609375 203.185546875 197.5234375 202.490234375 c 0
 213.947265625 201.794921875 228.802734375 208.73046875 241.23046875 218.125 c 0
 266.0859375 236.915039062 281.662109375 265.765625 281.662109375 265.765625 c 2
 281.806640625 266.033203125 281.889648438 266.338867188 281.889648438 266.6640625 c 0
 281.889648438 267.3828125 281.491210938 268.008789062 280.900390625 268.328125 c 0
 280.6328125 268.47265625 280.327148438 268.555664062 280.001953125 268.555664062 c 0
 279.815429688 268.555664062 279.6328125 268.529296875 279.462890625 268.478515625 c 0
EndSplineSet
EndChar

StartChar: ExclInv
Encoding: 97 161 96
Width: 400
VWidth: 824
Flags: H
LayerCount: 2
Fore
SplineSet
13.333984375 400.556640625 m 1
 13.3330078125 400.556640625 l 2
 12.2900390625 400.556640625 11.443359375 399.709960938 11.443359375 398.666992188 c 2
 11.443359375 398.666015625 l 2
 11.443359375 358.666015625 l 2
 11.4443359375 357.623046875 12.291015625 356.77734375 13.3330078125 356.77734375 c 2
 13.333984375 356.77734375 l 2
 53.333984375 356.77734375 l 2
 54.3759765625 356.778320312 55.2216796875 357.624023438 55.22265625 358.666015625 c 1
 55.22265625 398.666015625 l 1
 55.22265625 398.666992188 l 2
 55.22265625 399.708984375 54.376953125 400.555664062 53.333984375 400.556640625 c 1
 13.333984375 400.556640625 l 1
15.22265625 396.77734375 m 1
 51.443359375 396.77734375 l 1
 51.443359375 360.556640625 l 1
 15.22265625 360.556640625 l 1
 15.22265625 396.77734375 l 1
33.333984375 201.888671875 m 2
 33.3330078125 201.888671875 l 2
 32.2900390625 201.888671875 31.4443359375 201.041992188 31.443359375 200 c 1
 31.443359375 -200 l 1
 31.443359375 -200.000976562 l 2
 31.443359375 -201.043945312 32.2900390625 -201.890625 33.3330078125 -201.890625 c 2
 33.333984375 -201.890625 l 2
 34.3759765625 -201.889648438 35.22265625 -201.04296875 35.22265625 -200.000976562 c 2
 35.22265625 -200 l 2
 35.22265625 200 l 2
 35.2216796875 201.041992188 34.3759765625 201.887695312 33.333984375 201.888671875 c 2
EndSplineSet
EndChar

StartChar: Cents
Encoding: 98 162 97
Width: 400
VWidth: 824
Flags: H
LayerCount: 2
Fore
SplineSet
180 501.890625 m 1
 179.999023438 501.890625 l 2
 178.956054688 501.890625 178.109375 501.043945312 178.109375 500.000976562 c 2
 178.109375 500 l 2
 178.109375 401.890625 l 1
 113.333984375 401.890625 l 2
 52.373046875 401.890625 11.443359375 358.82421875 11.443359375 300 c 2
 11.443359375 100 l 2
 11.443359375 71.0859375 19.6591796875 45.5771484375 36.59765625 27.296875 c 0
 53.5361328125 9.0166015625 79.1357421875 -1.890625 113.333984375 -1.890625 c 2
 178.109375 -1.890625 l 1
 178.109375 -100 l 1
 178.109375 -100.000976562 l 2
 178.109375 -101.043945312 178.956054688 -101.890625 179.999023438 -101.890625 c 2
 180 -101.890625 l 1
 180.000976562 -101.890625 l 2
 181.043945312 -101.890625 181.890625 -101.043945312 181.890625 -100.000976562 c 2
 181.890625 -100 l 2
 181.890625 -1.890625 l 1
 280 -1.890625 l 1
 280.000976562 -1.890625 l 2
 281.043945312 -1.890625 281.890625 -1.0439453125 281.890625 -0.0009765625 c 2
 281.890625 0 l 1
 281.890625 0.0009765625 l 2
 281.890625 1.0439453125 281.043945312 1.890625 280.000976562 1.890625 c 2
 280 1.890625 l 2
 181.890625 1.890625 l 1
 181.890625 398.109375 l 1
 280 398.109375 l 1
 280.000976562 398.109375 l 2
 281.043945312 398.109375 281.890625 398.956054688 281.890625 399.999023438 c 2
 281.890625 400 l 1
 281.890625 400.000976562 l 2
 281.890625 401.043945312 281.043945312 401.890625 280.000976562 401.890625 c 2
 280 401.890625 l 2
 181.890625 401.890625 l 1
 181.890625 500 l 1
 181.890625 500.000976562 l 2
 181.890625 501.043945312 181.043945312 501.890625 180.000976562 501.890625 c 2
 180 501.890625 l 1
113.333984375 398.109375 m 2
 178.109375 398.109375 l 1
 178.109375 1.890625 l 1
 113.333984375 1.890625 l 2
 79.9345703125 1.890625 55.533203125 12.42578125 39.37109375 29.8671875 c 0
 23.208984375 47.30859375 15.22265625 71.80078125 15.22265625 100 c 2
 15.22265625 300 l 2
 15.22265625 357.088867188 54.13671875 398.109375 113.333984375 398.109375 c 2
EndSplineSet
EndChar

StartChar: Pound
Encoding: 99 163 98
Width: 400
VWidth: 824
Flags: H
LayerCount: 2
Fore
SplineSet
246.658203125 600.9375 m 0
 212.908203125 600.783203125 179.135742188 589.469726562 153.748046875 567.025390625 c 0
 128.360351562 544.581054688 111.443359375 510.967773438 111.443359375 466.666015625 c 2
 111.443359375 295.22265625 l 1
 13.333984375 295.22265625 l 1
 13.3330078125 295.22265625 l 2
 12.2900390625 295.22265625 11.4443359375 294.375976562 11.443359375 293.333984375 c 2
 11.443359375 293.333007812 l 2
 11.443359375 292.290039062 12.2900390625 291.443359375 13.3330078125 291.443359375 c 2
 13.333984375 291.443359375 l 2
 111.443359375 291.443359375 l 1
 111.443359375 100 l 2
 111.443359375 44.5390625 64.033203125 1.890625 13.333984375 1.890625 c 0
 12.29296875 1.888671875 11.4482421875 1.0419921875 11.4482421875 0 c 0
 11.4482421875 -1.0419921875 12.29296875 -1.888671875 13.333984375 -1.890625 c 1
 300 -1.890625 l 2
 329.916992188 -1.890625 355.442382812 8.25390625 373.44921875 26.115234375 c 0
 391.456054688 43.9765625 401.890625 69.5126953125 401.890625 100 c 2
 401.890625 100.000976562 l 2
 401.890625 101.043945312 401.043945312 101.890625 400.000976562 101.890625 c 2
 400 101.890625 l 1
 399.999023438 101.890625 l 2
 398.956054688 101.890625 398.109375 101.043945312 398.109375 100.000976562 c 2
 398.109375 100 l 2
 398.109375 70.3720703125 388.03515625 45.908203125 370.787109375 28.798828125 c 0
 353.5390625 11.689453125 329.065429688 1.890625 300 1.890625 c 2
 39.69921875 1.890625 l 1
 81.390625 13.64453125 115.22265625 52.18359375 115.22265625 100 c 2
 115.22265625 291.443359375 l 1
 246.666015625 291.443359375 l 1
 246.666992188 291.443359375 l 2
 247.709960938 291.443359375 248.556640625 292.290039062 248.556640625 293.333007812 c 2
 248.556640625 293.333984375 l 2
 248.555664062 294.375976562 247.709960938 295.22265625 246.666992188 295.22265625 c 2
 246.666015625 295.22265625 l 2
 115.22265625 295.22265625 l 1
 115.22265625 466.666015625 l 2
 115.22265625 510.009765625 131.639648438 542.434570312 156.251953125 564.193359375 c 0
 180.864257812 585.952148438 213.759765625 597.0078125 246.67578125 597.158203125 c 0
 279.591796875 597.30859375 312.477539062 586.555664062 337.083984375 564.876953125 c 0
 361.690429688 543.198242188 378.109375 510.625 378.109375 466.666015625 c 0
 378.110351562 465.624023438 378.956054688 464.77734375 379.999023438 464.77734375 c 2
 380 464.77734375 l 1
 380.000976562 464.77734375 l 2
 381.043945312 464.77734375 381.889648438 465.624023438 381.890625 466.666015625 c 0
 381.890625 511.569335938 364.975585938 545.340820312 339.58203125 567.712890625 c 0
 314.188476562 590.084960938 280.408203125 601.091796875 246.658203125 600.9375 c 0
EndSplineSet
EndChar

StartChar: Currency
Encoding: 100 164 99
Width: 400
VWidth: 824
Flags: H
LayerCount: 2
Fore
SplineSet
13.330078125 481.890625 m 2
 12.80859375 481.889648438 12.3359375 481.676757812 11.994140625 481.333984375 c 0
 11.6533203125 480.9921875 11.4423828125 480.520507812 11.4423828125 480 c 0
 11.4423828125 479.4765625 11.65625 479.002929688 12 478.66015625 c 1
 12 478.661132812 103.568359375 387.486328125 103.568359375 387.486328125 c 1
 79.734375 363.104492188 65.021484375 329.76953125 65.021484375 292.99609375 c 0
 65.021484375 256.471679688 79.541015625 223.344726562 103.08984375 199.0078125 c 1
 11.998046875 108.00390625 l 2
 11.6552734375 107.662109375 11.4423828125 107.188476562 11.4423828125 106.666015625 c 0
 11.4423828125 106.14453125 11.654296875 105.671875 11.99609375 105.330078125 c 0
 12.337890625 104.987304688 12.810546875 104.775390625 13.3330078125 104.775390625 c 0
 13.8544921875 104.775390625 14.328125 104.987304688 14.669921875 105.330078125 c 1
 14.6689453125 105.330078125 105.75 196.32421875 105.75 196.32421875 c 1
 130.131835938 172.48828125 163.46875 157.7734375 200.244140625 157.7734375 c 0
 237.071289062 157.7734375 270.451171875 172.52734375 294.841796875 196.421875 c 1
 385.326171875 105.333984375 l 2
 385.668945312 104.989257812 386.142578125 104.776367188 386.666015625 104.776367188 c 0
 387.185546875 104.776367188 387.65625 104.986328125 387.998046875 105.326171875 c 0
 388.342773438 105.66796875 388.556640625 106.142578125 388.556640625 106.666992188 c 0
 388.556640625 107.185546875 388.346679688 107.65625 388.0078125 107.998046875 c 1
 388.0078125 107.997070312 297.498046875 199.111328125 297.498046875 199.111328125 c 1
 320.989257812 223.438476562 335.46875 256.5234375 335.46875 292.99609375 c 0
 335.46875 329.750976562 320.768554688 363.0703125 296.955078125 387.44921875 c 1
 388.00390625 478.6640625 l 2
 388.345703125 479.005859375 388.557617188 479.478515625 388.557617188 480 c 0
 388.557617188 480.521484375 388.344726562 480.995117188 388.001953125 481.337890625 c 0
 387.66015625 481.6796875 387.188476562 481.890625 386.666992188 481.890625 c 0
 386.666015625 481.890625 386.665039062 481.890625 386.6640625 481.890625 c 0
 386.143554688 481.889648438 385.671875 481.677734375 385.330078125 481.3359375 c 1
 385.331054688 481.3359375 294.2734375 390.111328125 294.2734375 390.111328125 c 1
 269.932617188 413.68359375 236.7890625 428.220703125 200.244140625 428.220703125 c 0
 163.717773438 428.220703125 130.588867188 413.698242188 106.251953125 390.146484375 c 1
 14.666015625 481.33984375 l 2
 14.32421875 481.6796875 13.853515625 481.890625 13.3330078125 481.890625 c 0
 13.33203125 481.890625 13.3310546875 481.890625 13.330078125 481.890625 c 1
 13.330078125 481.890625 l 2
200.244140625 424.44140625 m 0
 272.860351562 424.44140625 331.6875 365.612304688 331.6875 292.99609375 c 0
 331.6875 220.379882812 272.860351562 161.552734375 200.244140625 161.552734375 c 0
 127.627929688 161.552734375 68.80078125 220.379882812 68.80078125 292.99609375 c 0
 68.80078125 365.612304688 127.627929688 424.44140625 200.244140625 424.44140625 c 0
EndSplineSet
EndChar

StartChar: Yen
Encoding: 101 165 100
Width: 400
VWidth: 824
Flags: H
LayerCount: 2
Fore
SplineSet
13.76171875 601.83984375 m 0
 13.623046875 601.872070312 13.4794921875 601.889648438 13.3310546875 601.889648438 c 0
 12.966796875 601.889648438 12.625 601.784179688 12.3359375 601.60546875 c 0
 11.798828125 601.272460938 11.44140625 600.676757812 11.44140625 599.999023438 c 0
 11.44140625 599.633789062 11.548828125 599.291015625 11.728515625 599.001953125 c 1
 11.7255859375 599.002929688 198.109375 299.4609375 198.109375 299.4609375 c 1
 198.109375 261.890625 l 1
 100 261.890625 l 1
 99.9990234375 261.890625 l 2
 98.9560546875 261.890625 98.109375 261.043945312 98.109375 260.000976562 c 2
 98.109375 260 l 1
 98.109375 259.999023438 l 2
 98.109375 258.956054688 98.9560546875 258.109375 99.9990234375 258.109375 c 2
 100 258.109375 l 2
 198.109375 258.109375 l 1
 198.109375 101.890625 l 1
 100 101.890625 l 1
 99.9990234375 101.890625 l 2
 98.9560546875 101.890625 98.109375 101.043945312 98.109375 100.000976562 c 2
 98.109375 100 l 1
 98.109375 99.9990234375 l 2
 98.109375 98.9560546875 98.9560546875 98.109375 99.9990234375 98.109375 c 2
 100 98.109375 l 2
 198.109375 98.109375 l 1
 198.109375 0 l 1
 198.109375 -0.0009765625 l 2
 198.109375 -1.0439453125 198.956054688 -1.890625 199.999023438 -1.890625 c 2
 200 -1.890625 l 1
 200.000976562 -1.890625 l 2
 201.043945312 -1.890625 201.890625 -1.0439453125 201.890625 -0.0009765625 c 2
 201.890625 0 l 2
 201.890625 98.109375 l 1
 300 98.109375 l 1
 300.000976562 98.109375 l 2
 301.043945312 98.109375 301.890625 98.9560546875 301.890625 99.9990234375 c 2
 301.890625 100 l 1
 301.890625 100.000976562 l 2
 301.890625 101.043945312 301.043945312 101.890625 300.000976562 101.890625 c 2
 300 101.890625 l 2
 201.890625 101.890625 l 1
 201.890625 258.109375 l 1
 300 258.109375 l 1
 300.000976562 258.109375 l 2
 301.043945312 258.109375 301.890625 258.956054688 301.890625 259.999023438 c 2
 301.890625 260 l 1
 301.890625 260.000976562 l 2
 301.890625 261.043945312 301.043945312 261.890625 300.000976562 261.890625 c 2
 300 261.890625 l 2
 201.890625 261.890625 l 1
 201.890625 299.494140625 l 1
 374.96875 599.0546875 l 2
 375.129882812 599.333007812 375.221679688 599.655273438 375.221679688 599.999023438 c 0
 375.221679688 600.698242188 374.844726562 601.309570312 374.279296875 601.63671875 c 0
 374.001953125 601.796875 373.6796875 601.888671875 373.3359375 601.888671875 c 0
 372.635742188 601.888671875 372.024414062 601.510742188 371.697265625 600.9453125 c 0
 371.698242188 600.942382812 199.939453125 303.673828125 199.939453125 303.673828125 c 1
 14.9375 600.998046875 l 2
 14.6767578125 601.416992188 14.2568359375 601.724609375 13.76171875 601.83984375 c 0
EndSplineSet
EndChar

StartChar: BrokeBar
Encoding: 102 166 101
Width: 400
VWidth: 824
Flags: H
LayerCount: 2
Fore
SplineSet
13.333984375 701.890625 m 2
 13.3330078125 701.890625 l 2
 12.2900390625 701.890625 11.443359375 701.043945312 11.443359375 700.000976562 c 2
 11.443359375 700 l 2
 11.443359375 400 l 1
 11.443359375 399.999023438 l 2
 11.443359375 398.956054688 12.2900390625 398.109375 13.3330078125 398.109375 c 2
 13.333984375 398.109375 l 2
 14.3759765625 398.110351562 15.22265625 398.956054688 15.22265625 399.999023438 c 2
 15.22265625 400 l 2
 15.22265625 700 l 1
 15.22265625 700.000976562 l 2
 15.22265625 701.043945312 14.3759765625 701.889648438 13.333984375 701.890625 c 2
13.333984375 201.890625 m 2
 13.3330078125 201.890625 l 2
 12.2900390625 201.890625 11.443359375 201.043945312 11.443359375 200.000976562 c 2
 11.443359375 200 l 2
 11.443359375 -100 l 1
 11.443359375 -100.000976562 l 2
 11.443359375 -101.043945312 12.2900390625 -101.890625 13.3330078125 -101.890625 c 2
 13.333984375 -101.890625 l 2
 14.3759765625 -101.889648438 15.22265625 -101.043945312 15.22265625 -100.000976562 c 2
 15.22265625 -100 l 2
 15.22265625 200 l 1
 15.22265625 200.000976562 l 2
 15.22265625 201.043945312 14.3759765625 201.889648438 13.333984375 201.890625 c 2
EndSplineSet
EndChar

StartChar: Section
Encoding: 103 167 102
Width: 400
VWidth: 824
Flags: H
LayerCount: 2
Fore
SplineSet
127.033203125 641.376953125 m 1
 120.739257812 641.293945312 115.053710938 641.14453125 110.083984375 641.021484375 c 1
 110.138671875 641.021484375 l 1
 55.0107421875 641.268554688 23.484375 603.915039062 16.62890625 561.560546875 c 0
 9.7734375 519.206054688 27.2138671875 471.557617188 69.29296875 450.771484375 c 2
 114.080078125 428.37890625 l 1
 58.4912109375 426.51953125 24.943359375 396.9296875 15.73046875 360.71484375 c 0
 6.19140625 323.215820312 22.5625 278.970703125 65.65625 251.736328125 c 0
 65.7099609375 251.702148438 65.765625 251.670898438 65.822265625 251.642578125 c 1
 252.48828125 158.310546875 l 2
 252.491210938 158.309570312 252.493164062 158.307617188 252.49609375 158.306640625 c 0
 292.887695312 138.353515625 309.7265625 92.4248046875 303.103515625 51.509765625 c 0
 296.48046875 10.59375 266.770507812 -25.0166015625 213.341796875 -24.77734375 c 0
 213.333007812 -24.77734375 213.323242188 -24.77734375 213.314453125 -24.77734375 c 0
 213.3046875 -24.77734375 213.296875 -24.77734375 213.287109375 -24.77734375 c 0
 172.892578125 -25.75390625 82.9541015625 -16.83203125 14.126953125 15.048828125 c 0
 13.88671875 15.16015625 13.6181640625 15.2216796875 13.3359375 15.2216796875 c 0
 12.576171875 15.2216796875 11.9189453125 14.7744140625 11.619140625 14.126953125 c 0
 11.5078125 13.8857421875 11.4453125 13.6181640625 11.4453125 13.3349609375 c 0
 11.4453125 12.5751953125 11.892578125 11.9189453125 12.5390625 11.619140625 c 0
 82.234375 -20.6630859375 172.234375 -29.54296875 213.33203125 -28.556640625 c 0
 268.455078125 -28.7998046875 299.978515625 8.5537109375 306.833984375 50.90625 c 0
 313.689453125 93.2578125 296.250976562 140.901367188 254.177734375 161.689453125 c 2
 254.169921875 161.693359375 l 1
 209.384765625 184.0859375 l 1
 264.97265625 185.9453125 298.521484375 215.53515625 307.734375 251.75 c 0
 317.2734375 289.249023438 300.900390625 333.494140625 257.806640625 360.728515625 c 0
 257.75390625 360.762695312 257.69921875 360.793945312 257.642578125 360.822265625 c 1
 70.974609375 454.15625 l 2
 70.9716796875 454.157226562 70.9697265625 454.159179688 70.966796875 454.16015625 c 0
 30.5751953125 474.112304688 13.73828125 520.0390625 20.361328125 560.955078125 c 0
 26.984375 601.87109375 56.693359375 637.481445312 110.12109375 637.2421875 c 0
 110.130859375 637.2421875 110.140625 637.2421875 110.149414062 637.2421875 c 0
 110.159179688 637.2421875 110.16796875 637.2421875 110.177734375 637.2421875 c 0
 149.96875 638.227539062 234.690429688 640.821289062 309.1796875 597.498046875 c 0
 309.458007812 597.3359375 309.782226562 597.243164062 310.127929688 597.243164062 c 0
 310.825195312 597.243164062 311.436523438 597.618164062 311.763671875 598.181640625 c 0
 311.92578125 598.459960938 312.018554688 598.784179688 312.018554688 599.129882812 c 0
 312.018554688 599.827148438 311.643554688 600.438476562 311.080078125 600.765625 c 0
 244.912109375 639.249023438 171.087890625 641.959960938 127.033203125 641.376953125 c 1
 127.033203125 641.376953125 l 1
120.701171875 425.068359375 m 2
 255.8515625 357.4921875 l 1
 297.701171875 331.009765625 313.174804688 288.473632812 304.0703125 252.681640625 c 0
 294.9609375 216.87109375 261.35546875 187.546875 203.46875 187.6875 c 0
 203.212890625 187.638671875 202.971679688 187.537109375 202.763671875 187.396484375 c 1
 202.767578125 187.397460938 67.623046875 254.96875 67.623046875 254.96875 c 1
 25.765625 281.450195312 10.287109375 323.98828125 19.392578125 359.783203125 c 0
 28.501953125 395.59375 62.109375 424.91796875 119.99609375 424.77734375 c 0
 120.251953125 424.826171875 120.493164062 424.927734375 120.701171875 425.068359375 c 2
EndSplineSet
EndChar

StartChar: Diaeresis
Encoding: 104 168 103
Width: 400
VWidth: 824
Flags: H
LayerCount: 2
Fore
SplineSet
13.333984375 601.890625 m 1
 13.3330078125 601.890625 l 2
 12.2900390625 601.890625 11.443359375 601.043945312 11.443359375 600.000976562 c 2
 11.443359375 600 l 2
 11.443359375 573.333984375 l 1
 11.443359375 573.333007812 l 2
 11.443359375 572.290039062 12.2900390625 571.443359375 13.3330078125 571.443359375 c 2
 13.333984375 571.443359375 l 2
 40 571.443359375 l 1
 40.0009765625 571.443359375 l 2
 41.0439453125 571.443359375 41.890625 572.290039062 41.890625 573.333007812 c 2
 41.890625 573.333984375 l 2
 41.890625 600 l 1
 41.890625 600.000976562 l 2
 41.890625 601.043945312 41.0439453125 601.890625 40.0009765625 601.890625 c 2
 40 601.890625 l 2
 13.333984375 601.890625 l 1
200 601.890625 m 2
 198.95703125 601.889648438 198.111328125 601.04296875 198.111328125 600.000976562 c 2
 198.111328125 600 l 2
 198.111328125 573.333984375 l 1
 198.111328125 573.333007812 l 2
 198.111328125 572.291015625 198.95703125 571.444335938 200 571.443359375 c 1
 226.66796875 571.443359375 l 2
 227.7109375 571.444335938 228.556640625 572.291015625 228.556640625 573.333007812 c 2
 228.556640625 573.333984375 l 2
 228.556640625 600 l 1
 228.556640625 600.000976562 l 2
 228.556640625 601.04296875 227.7109375 601.889648438 226.66796875 601.890625 c 1
 200 601.890625 l 2
15.22265625 598.109375 m 1
 38.109375 598.109375 l 1
 38.109375 575.22265625 l 1
 15.22265625 575.22265625 l 1
 15.22265625 598.109375 l 1
201.890625 598.109375 m 1
 224.77734375 598.109375 l 1
 224.77734375 575.22265625 l 1
 201.890625 575.22265625 l 1
 201.890625 598.109375 l 1
EndSplineSet
EndChar

StartChar: Copyright
Encoding: 105 169 104
Width: 400
VWidth: 824
Flags: H
LayerCount: 2
Fore
SplineSet
276.646484375 542.16796875 m 0
 128.349609375 542.16796875 8.091796875 421.908203125 8.091796875 273.611328125 c 0
 8.091796875 125.314453125 128.349609375 5.0546875 276.646484375 5.0546875 c 0
 424.943359375 5.0546875 545.203125 125.314453125 545.203125 273.611328125 c 0
 545.203125 421.908203125 424.943359375 542.16796875 276.646484375 542.16796875 c 0
276.646484375 538.388671875 m 0
 422.900390625 538.388671875 541.423828125 419.865234375 541.423828125 273.611328125 c 0
 541.423828125 127.357421875 422.900390625 8.833984375 276.646484375 8.833984375 c 0
 130.392578125 8.833984375 11.87109375 127.357421875 11.87109375 273.611328125 c 0
 11.87109375 419.865234375 130.392578125 538.388671875 276.646484375 538.388671875 c 0
250.80078125 409.013671875 m 2
 226.416992188 409.013671875 208.740234375 402.080078125 197.255859375 389.9140625 c 0
 185.771484375 377.748046875 180.611328125 360.547851562 180.611328125 340.45703125 c 2
 180.611328125 207.123046875 l 2
 180.611328125 184.350585938 186.513671875 167.154296875 197.279296875 155.6640625 c 0
 208.044921875 144.173828125 223.560546875 138.56640625 242.177734375 138.56640625 c 2
 333.333984375 138.56640625 l 2
 334.375976562 138.567382812 335.22265625 139.413085938 335.22265625 140.456054688 c 2
 335.22265625 140.45703125 l 1
 335.22265625 140.458007812 l 2
 335.22265625 141.500976562 334.375976562 142.346679688 333.333984375 142.34765625 c 1
 242.177734375 142.34765625 l 2
 224.311523438 142.34765625 209.98828125 147.627929688 200.037109375 158.248046875 c 0
 190.0859375 168.868164062 184.390625 185.001953125 184.390625 207.123046875 c 2
 184.390625 340.45703125 l 2
 184.390625 359.90234375 189.352539062 376.037109375 200.00390625 387.3203125 c 0
 210.655273438 398.603515625 227.127929688 405.234375 250.80078125 405.234375 c 2
 333.333984375 405.234375 l 2
 334.375976562 405.235351562 335.221679688 406.081054688 335.22265625 407.123046875 c 2
 335.22265625 407.124023438 l 2
 335.22265625 408.166992188 334.375976562 409.012695312 333.333984375 409.013671875 c 1
 250.80078125 409.013671875 l 2
EndSplineSet
EndChar

StartChar: Fem.Ord.Ind.
Encoding: 106 170 105
Width: 400
VWidth: 824
Flags: H
LayerCount: 2
Fore
SplineSet
13.51171875 601.890625 m 1
 13.5107421875 601.890625 l 2
 12.4677734375 601.890625 11.62109375 601.043945312 11.62109375 600.000976562 c 2
 11.62109375 600 l 1
 11.62109375 599.999023438 l 2
 11.62109375 598.956054688 12.4677734375 598.109375 13.5107421875 598.109375 c 2
 13.51171875 598.109375 l 2
 113.333984375 598.109375 l 2
 133.643554688 598.109375 149.755859375 591.4296875 160.859375 580.05859375 c 0
 171.962890625 568.6875 178.109375 552.544921875 178.109375 533.333984375 c 2
 178.109375 468.556640625 l 1
 66.666015625 468.556640625 l 2
 -5.552734375 468.556640625 -5.060546875 331.443359375 66.666015625 331.443359375 c 2
 180 331.443359375 l 1
 180.000976562 331.443359375 l 2
 181.043945312 331.443359375 181.890625 332.290039062 181.890625 333.333007812 c 2
 181.890625 333.333984375 l 2
 181.890625 466.666015625 l 1
 181.890625 533.333984375 l 2
 181.890625 553.354492188 175.431640625 570.545898438 163.564453125 582.69921875 c 0
 151.697265625 594.852539062 134.477539062 601.890625 113.333984375 601.890625 c 2
 13.51171875 601.890625 l 1
66.666015625 464.77734375 m 2
 178.109375 464.77734375 l 1
 178.109375 335.22265625 l 1
 66.666015625 335.22265625 l 2
 -0.212890625 335.22265625 -0.740234375 464.77734375 66.666015625 464.77734375 c 2
13.333984375 202.0234375 m 1
 13.3330078125 202.0234375 l 2
 12.2900390625 202.0234375 11.443359375 201.176757812 11.443359375 200.133789062 c 2
 11.443359375 200.1328125 l 2
 11.4443359375 199.090820312 12.2900390625 198.244140625 13.3330078125 198.244140625 c 2
 13.333984375 198.244140625 l 2
 180 198.244140625 l 1
 180.000976562 198.244140625 l 2
 181.043945312 198.244140625 181.889648438 199.090820312 181.890625 200.1328125 c 2
 181.890625 200.133789062 l 2
 181.890625 201.176757812 181.043945312 202.0234375 180.000976562 202.0234375 c 2
 180 202.0234375 l 2
 13.333984375 202.0234375 l 1
EndSplineSet
EndChar

StartChar: L.DoublePoint
Encoding: 107 171 106
Width: 400
VWidth: 824
Flags: H
LayerCount: 2
Fore
SplineSet
146.45703125 401.87890625 m 0
 145.946289062 401.821289062 145.49609375 401.561523438 145.19140625 401.1796875 c 0
 145.192382812 401.178710938 11.857421875 234.513671875 11.857421875 234.513671875 c 2
 11.5986328125 234.190429688 11.4443359375 233.780273438 11.4443359375 233.333984375 c 0
 11.4443359375 232.888671875 11.5986328125 232.475585938 11.857421875 232.15234375 c 1
 11.857421875 232.155273438 145.19140625 65.486328125 145.19140625 65.486328125 c 2
 145.538085938 65.0537109375 146.0703125 64.775390625 146.66796875 64.775390625 c 0
 147.11328125 64.775390625 147.524414062 64.9326171875 147.84765625 65.19140625 c 0
 148.280273438 65.5380859375 148.55859375 66.0703125 148.55859375 66.66796875 c 0
 148.55859375 67.11328125 148.401367188 67.5244140625 148.142578125 67.84765625 c 1
 148.14453125 67.8466796875 15.75390625 233.333984375 15.75390625 233.333984375 c 1
 148.142578125 398.8203125 l 2
 148.401367188 399.143554688 148.555664062 399.553710938 148.555664062 400 c 0
 148.555664062 400.596679688 148.280273438 401.129882812 147.84765625 401.4765625 c 0
 147.524414062 401.735351562 147.114257812 401.889648438 146.668945312 401.889648438 c 0
 146.596679688 401.889648438 146.526367188 401.88671875 146.45703125 401.87890625 c 0
330.45703125 401.87890625 m 0
 329.946289062 401.821289062 329.49609375 401.561523438 329.19140625 401.1796875 c 0
 329.192382812 401.178710938 195.857421875 234.513671875 195.857421875 234.513671875 c 2
 195.598632812 234.190429688 195.444335938 233.780273438 195.444335938 233.333984375 c 0
 195.444335938 232.888671875 195.598632812 232.475585938 195.857421875 232.15234375 c 1
 195.857421875 232.155273438 329.19140625 65.486328125 329.19140625 65.486328125 c 2
 329.538085938 65.0537109375 330.0703125 64.775390625 330.66796875 64.775390625 c 0
 331.11328125 64.775390625 331.524414062 64.9326171875 331.84765625 65.19140625 c 0
 332.280273438 65.5380859375 332.55859375 66.0703125 332.55859375 66.66796875 c 0
 332.55859375 67.11328125 332.401367188 67.5244140625 332.142578125 67.84765625 c 1
 332.14453125 67.8466796875 199.75390625 233.333984375 199.75390625 233.333984375 c 1
 332.142578125 398.8203125 l 2
 332.401367188 399.143554688 332.555664062 399.553710938 332.555664062 400 c 0
 332.555664062 400.596679688 332.280273438 401.129882812 331.84765625 401.4765625 c 0
 331.524414062 401.735351562 331.114257812 401.889648438 330.668945312 401.889648438 c 0
 330.596679688 401.889648438 330.526367188 401.88671875 330.45703125 401.87890625 c 0
EndSplineSet
EndChar

StartChar: Not Sign
Encoding: 108 172 107
Width: 400
VWidth: 824
Flags: H
LayerCount: 2
Fore
SplineSet
13.333984375 235.22265625 m 1
 13.3330078125 235.22265625 l 2
 12.2900390625 235.22265625 11.4443359375 234.375976562 11.443359375 233.333984375 c 2
 11.443359375 233.333007812 l 2
 11.443359375 232.290039062 12.2900390625 231.443359375 13.3330078125 231.443359375 c 2
 13.333984375 231.443359375 l 2
 391.443359375 231.443359375 l 1
 391.443359375 13.333984375 l 1
 391.443359375 13.3330078125 l 2
 391.443359375 12.2900390625 392.290039062 11.443359375 393.333007812 11.443359375 c 2
 393.333984375 11.443359375 l 2
 394.375976562 11.4443359375 395.22265625 12.2900390625 395.22265625 13.3330078125 c 2
 395.22265625 13.333984375 l 2
 395.22265625 233.333984375 l 2
 395.221679688 234.375976562 394.375976562 235.221679688 393.333984375 235.22265625 c 1
 13.333984375 235.22265625 l 1
EndSplineSet
EndChar

StartChar: Registered
Encoding: 110 174 108
Width: 400
VWidth: 824
Flags: H
LayerCount: 2
Fore
SplineSet
276.646484375 542.16796875 m 0
 128.349609375 542.16796875 8.091796875 421.908203125 8.091796875 273.611328125 c 0
 8.091796875 125.314453125 128.349609375 5.0546875 276.646484375 5.0546875 c 0
 424.943359375 5.0546875 545.203125 125.314453125 545.203125 273.611328125 c 0
 545.203125 421.908203125 424.943359375 542.16796875 276.646484375 542.16796875 c 0
276.646484375 538.388671875 m 0
 422.900390625 538.388671875 541.423828125 419.865234375 541.423828125 273.611328125 c 0
 541.423828125 127.357421875 422.900390625 8.833984375 276.646484375 8.833984375 c 0
 130.392578125 8.833984375 11.87109375 127.357421875 11.87109375 273.611328125 c 0
 11.87109375 419.865234375 130.392578125 538.388671875 276.646484375 538.388671875 c 0
210.501953125 401.013671875 m 1
 210.500976562 401.013671875 l 2
 209.458007812 401.013671875 208.611328125 400.166992188 208.611328125 399.124023438 c 2
 208.611328125 399.123046875 l 2
 208.611328125 272.45703125 l 1
 208.611328125 140.66015625 l 1
 208.611328125 140.659179688 l 2
 208.611328125 139.616210938 209.458007812 138.76953125 210.500976562 138.76953125 c 2
 210.501953125 138.76953125 l 2
 211.543945312 138.770507812 212.390625 139.616210938 212.390625 140.659179688 c 2
 212.390625 140.66015625 l 2
 212.390625 270.56640625 l 1
 292.802734375 270.56640625 l 1
 358.4140625 140.482421875 l 2
 358.725585938 139.865234375 359.365234375 139.44140625 360.102539062 139.44140625 c 0
 360.408203125 139.44140625 360.697265625 139.517578125 360.953125 139.646484375 c 0
 361.569335938 139.958007812 361.993164062 140.596679688 361.993164062 141.334960938 c 0
 361.993164062 141.639648438 361.91796875 141.928710938 361.7890625 142.18359375 c 1
 361.791992188 142.182617188 297.037109375 270.56640625 297.037109375 270.56640625 c 1
 301.658203125 270.56640625 l 2
 320.20703125 270.56640625 335.682617188 275.106445312 346.4921875 285.599609375 c 0
 357.301757812 296.092773438 363.22265625 312.350585938 363.22265625 335.123046875 c 2
 363.22265625 336.45703125 l 2
 363.22265625 356.547851562 358.041015625 372.810546875 346.51953125 383.974609375 c 0
 334.998046875 395.138671875 317.364257812 401.013671875 293.033203125 401.013671875 c 2
 210.501953125 401.013671875 l 1
212.390625 397.234375 m 1
 293.033203125 397.234375 l 2
 316.758789062 397.234375 333.276367188 391.544921875 343.890625 381.259765625 c 0
 354.504882812 370.974609375 359.443359375 355.90234375 359.443359375 336.45703125 c 2
 359.443359375 335.123046875 l 2
 359.443359375 313.001953125 353.768554688 297.927734375 343.861328125 288.310546875 c 0
 333.954101562 278.693359375 319.592773438 274.34765625 301.658203125 274.34765625 c 2
 212.390625 274.34765625 l 1
 212.390625 397.234375 l 1
EndSplineSet
EndChar

StartChar: Macron
Encoding: 111 175 109
Width: 400
VWidth: 824
Flags: H
LayerCount: 2
Fore
SplineSet
13.333984375 601.890625 m 1
 13.3330078125 601.890625 l 2
 12.2900390625 601.890625 11.443359375 601.043945312 11.443359375 600.000976562 c 2
 11.443359375 600 l 1
 11.443359375 599.999023438 l 2
 11.443359375 598.956054688 12.2900390625 598.109375 13.3330078125 598.109375 c 2
 13.333984375 598.109375 l 2
 246.666015625 598.109375 l 1
 246.666992188 598.109375 l 2
 247.709960938 598.109375 248.556640625 598.956054688 248.556640625 599.999023438 c 2
 248.556640625 600 l 1
 248.556640625 600.000976562 l 2
 248.556640625 601.043945312 247.709960938 601.890625 246.666992188 601.890625 c 2
 246.666015625 601.890625 l 2
 13.333984375 601.890625 l 1
EndSplineSet
EndChar

StartChar: Degrees
Encoding: 112 176 110
Width: 400
VWidth: 824
Flags: H
LayerCount: 2
Fore
SplineSet
114.2109375 601.421875 m 0
 57.9609375 601.421875 12.3203125 555.78125 12.3203125 499.53125 c 0
 12.3203125 443.28125 57.9609375 397.640625 114.2109375 397.640625 c 0
 170.4609375 397.640625 216.099609375 443.28125 216.099609375 499.53125 c 0
 216.099609375 555.78125 170.4609375 601.421875 114.2109375 601.421875 c 0
114.2109375 597.640625 m 0
 168.41796875 597.640625 212.3203125 553.73828125 212.3203125 499.53125 c 0
 212.3203125 445.32421875 168.41796875 401.421875 114.2109375 401.421875 c 0
 60.00390625 401.421875 16.099609375 445.32421875 16.099609375 499.53125 c 0
 16.099609375 553.73828125 60.00390625 597.640625 114.2109375 597.640625 c 0
EndSplineSet
EndChar

StartChar: PlusMinus
Encoding: 113 177 111
Width: 400
VWidth: 824
Flags: H
LayerCount: 2
Fore
SplineSet
213.333984375 521.890625 m 2
 213.333007812 521.890625 l 2
 212.290039062 521.890625 211.443359375 521.043945312 211.443359375 520.000976562 c 2
 211.443359375 520 l 2
 211.443359375 321.890625 l 1
 13.333984375 321.890625 l 1
 13.3330078125 321.890625 l 2
 12.2900390625 321.890625 11.443359375 321.043945312 11.443359375 320.000976562 c 2
 11.443359375 320 l 1
 11.443359375 319.999023438 l 2
 11.443359375 318.956054688 12.2900390625 318.109375 13.3330078125 318.109375 c 2
 13.333984375 318.109375 l 2
 211.443359375 318.109375 l 1
 211.443359375 120 l 1
 211.443359375 119.999023438 l 2
 211.443359375 118.956054688 212.290039062 118.109375 213.333007812 118.109375 c 2
 213.333984375 118.109375 l 2
 214.375976562 118.110351562 215.22265625 118.956054688 215.22265625 119.999023438 c 2
 215.22265625 120 l 2
 215.22265625 318.109375 l 1
 413.333984375 318.109375 l 2
 414.375976562 318.110351562 415.22265625 318.956054688 415.22265625 319.999023438 c 2
 415.22265625 320 l 1
 415.22265625 320.000976562 l 2
 415.22265625 321.043945312 414.375976562 321.889648438 413.333984375 321.890625 c 1
 215.22265625 321.890625 l 1
 215.22265625 520 l 1
 215.22265625 520.000976562 l 2
 215.22265625 521.043945312 214.375976562 521.889648438 213.333984375 521.890625 c 2
13.333984375 15.22265625 m 1
 13.3330078125 15.22265625 l 2
 12.2900390625 15.22265625 11.4443359375 14.3759765625 11.443359375 13.333984375 c 2
 11.443359375 13.3330078125 l 2
 11.443359375 12.2900390625 12.2900390625 11.443359375 13.3330078125 11.443359375 c 2
 13.333984375 11.443359375 l 2
 413.333984375 11.443359375 l 2
 414.375976562 11.4443359375 415.22265625 12.2900390625 415.22265625 13.3330078125 c 2
 415.22265625 13.333984375 l 2
 415.221679688 14.3759765625 414.375976562 15.2216796875 413.333984375 15.22265625 c 1
 13.333984375 15.22265625 l 1
EndSplineSet
EndChar

StartChar: Super 2
Encoding: 114 178 112
Width: 400
VWidth: 824
Flags: H
LayerCount: 2
Fore
SplineSet
113.685546875 760.431640625 m 0
 95.6376953125 759.834960938 77.607421875 755.189453125 61.740234375 746.09765625 c 0
 36.3525390625 731.55078125 16.591796875 705.525390625 11.4609375 666.916015625 c 0
 11.4501953125 666.833984375 11.4443359375 666.75 11.4443359375 666.6640625 c 0
 11.4443359375 665.70703125 12.16015625 664.916015625 13.083984375 664.79296875 c 0
 13.166015625 664.782226562 13.25 664.776367188 13.3359375 664.776367188 c 0
 14.2939453125 664.776367188 15.0849609375 665.493164062 15.20703125 666.41796875 c 0
 20.201171875 703.997070312 39.177734375 728.813476562 63.619140625 742.818359375 c 0
 88.060546875 756.823242188 118.057617188 759.920898438 144.85546875 753.54296875 c 0
 171.653320312 747.165039062 195.159179688 731.359375 206.900390625 707.7734375 c 0
 218.62890625 684.211914062 218.807617188 652.727539062 198.388671875 614.33984375 c 1
 11.841796875 374.494140625 l 2
 11.5927734375 374.173828125 11.4443359375 373.771484375 11.4443359375 373.334960938 c 0
 11.4443359375 372.291992188 12.291015625 371.444335938 13.333984375 371.444335938 c 1
 13.333984375 371.443359375 l 1
 13.3349609375 371.444335938 213.333984375 371.443359375 213.333984375 371.443359375 c 2
 214.375976562 371.444335938 215.22265625 372.290039062 215.22265625 373.333007812 c 2
 215.22265625 373.333984375 l 2
 215.221679688 374.375976562 214.375976562 375.221679688 213.333984375 375.22265625 c 1
 17.1953125 375.22265625 l 1
 201.4921875 612.173828125 l 2
 201.55859375 612.258789062 201.6171875 612.349609375 201.66796875 612.4453125 c 0
 222.560546875 651.657226562 222.620117188 684.674804688 210.283203125 709.45703125 c 0
 197.946289062 734.239257812 173.412109375 750.629882812 145.73046875 757.21875 c 0
 135.349609375 759.689453125 124.514648438 760.790039062 113.685546875 760.431640625 c 0
EndSplineSet
EndChar

